<?xml version="1.0" encoding="UTF-8" standalone="no"?>
<svg
   xmlns:ns0="http://www.iki.fi/pav/software/textext/"
   xmlns:dc="http://purl.org/dc/elements/1.1/"
   xmlns:cc="http://creativecommons.org/ns#"
   xmlns:rdf="http://www.w3.org/1999/02/22-rdf-syntax-ns#"
   xmlns:svg="http://www.w3.org/2000/svg"
   xmlns="http://www.w3.org/2000/svg"
   xmlns:xlink="http://www.w3.org/1999/xlink"
   xmlns:sodipodi="http://sodipodi.sourceforge.net/DTD/sodipodi-0.dtd"
   xmlns:inkscape="http://www.inkscape.org/namespaces/inkscape"
   version="1.1"
   id="svg2"
   sodipodi:version="0.32"
   inkscape:version="0.46"
   width="210mm"
   height="297mm"
   sodipodi:docname="bFret.svg"
   inkscape:output_extension="org.inkscape.output.svg.inkscape">
  <sodipodi:namedview
     inkscape:window-height="748"
     inkscape:window-width="1278"
     inkscape:pageshadow="2"
     inkscape:pageopacity="0.0"
     guidetolerance="10.0"
     gridtolerance="10.0"
     objecttolerance="10.0"
     borderopacity="1.0"
     bordercolor="#666666"
     pagecolor="#ffffff"
     id="base"
     showgrid="true"
     inkscape:zoom="2.53"
     inkscape:cx="372.04724"
     inkscape:cy="883.90229"
     inkscape:window-x="1280"
     inkscape:window-y="13"
     inkscape:current-layer="svg2">
    <inkscape:grid
       enabled="true"
       visible="true"
       units="in"
       id="grid2396"
       type="xygrid" />
  </sodipodi:namedview>
  <metadata
     id="metadata51">
    <rdf:RDF>
      <cc:Work
         rdf:about="">
        <dc:format>image/svg+xml</dc:format>
        <dc:type
           rdf:resource="http://purl.org/dc/dcmitype/StillImage" />
      </cc:Work>
    </rdf:RDF>
  </metadata>
  <defs
     id="defs48">
    <clipPath
       id="cp2">
      <polygon
         id="polygon2580"
         points="74,13 74,235 434,235 434,13 74,13 " />
    </clipPath>
    <clipPath
       id="cp1">
      <polygon
         id="polygon2722"
         points="74,13 74,235 434,235 434,13 74,13 " />
    </clipPath>
    <inkscape:perspective
       id="perspective53"
       inkscape:persp3d-origin="372.04724 : 350.78739 : 1"
       inkscape:vp_z="744.09448 : 526.18109 : 1"
       inkscape:vp_y="0 : 1000 : 0"
       inkscape:vp_x="0 : 526.18109 : 1"
       sodipodi:type="inkscape:persp3d" />
  </defs>
  <g
     id="g2422"
     ns0:preamble=""
     ns0:text="$\\frac{1}{2}$"
     transform="translate(-11.328125,75.799683)">
    <defs
       id="defs2424">
      <g
         id="g2426">
        <symbol
           id="textext-f49ec9cc-0"
           overflow="visible"
           style="overflow:visible">
          <path
             id="path2429"
             d=""
             style="stroke:none" />
        </symbol>
        <symbol
           id="textext-f49ec9cc-1"
           overflow="visible"
           style="overflow:visible">
          <path
             id="path2432"
             d="M 2.328125,-4.4375 C 2.328125,-4.625 2.328125,-4.625 2.125,-4.625 C 1.671875,-4.1875 1.046875,-4.1875 0.765625,-4.1875 L 0.765625,-3.9375 C 0.921875,-3.9375 1.390625,-3.9375 1.765625,-4.125 L 1.765625,-0.578125 C 1.765625,-0.34375 1.765625,-0.25 1.078125,-0.25 L 0.8125,-0.25 L 0.8125,0 C 0.9375,0 1.796875,-0.03125 2.046875,-0.03125 C 2.265625,-0.03125 3.140625,0 3.296875,0 L 3.296875,-0.25 L 3.03125,-0.25 C 2.328125,-0.25 2.328125,-0.34375 2.328125,-0.578125 L 2.328125,-4.4375 z"
             style="stroke:none" />
        </symbol>
        <symbol
           id="textext-f49ec9cc-2"
           overflow="visible"
           style="overflow:visible">
          <path
             id="path2435"
             d="M 3.515625,-1.265625 L 3.28125,-1.265625 C 3.265625,-1.109375 3.1875,-0.703125 3.09375,-0.640625 C 3.046875,-0.59375 2.515625,-0.59375 2.40625,-0.59375 L 1.125,-0.59375 C 1.859375,-1.234375 2.109375,-1.4375 2.515625,-1.765625 C 3.03125,-2.171875 3.515625,-2.609375 3.515625,-3.265625 C 3.515625,-4.109375 2.78125,-4.625 1.890625,-4.625 C 1.03125,-4.625 0.4375,-4.015625 0.4375,-3.375 C 0.4375,-3.03125 0.734375,-2.984375 0.8125,-2.984375 C 0.96875,-2.984375 1.171875,-3.109375 1.171875,-3.359375 C 1.171875,-3.484375 1.125,-3.734375 0.765625,-3.734375 C 0.984375,-4.21875 1.453125,-4.375 1.78125,-4.375 C 2.484375,-4.375 2.84375,-3.828125 2.84375,-3.265625 C 2.84375,-2.65625 2.40625,-2.1875 2.1875,-1.9375 L 0.515625,-0.265625 C 0.4375,-0.203125 0.4375,-0.1875 0.4375,0 L 3.3125,0 L 3.515625,-1.265625 z"
             style="stroke:none" />
        </symbol>
      </g>
    </defs>
    <g
       id="textext-f49ec9cc-3">
      <g
         id="g2438"
         style="fill:#000000;fill-opacity:1">
        <use
           id="use2440"
           y="130.842"
           x="224.62801"
           xlink:href="#textext-f49ec9cc-1"
           width="744.09448"
           height="1052.3622" />
      </g>
      <path
         id="path2442"
         transform="matrix(1,0,0,-1,224.628,132.274)"
         d="M 0.00090625,0.0005625 L 3.969656,0.0005625"
         style="fill:none;stroke:#000000;stroke-width:0.398;stroke-linecap:butt;stroke-linejoin:miter;stroke-miterlimit:10;stroke-opacity:1" />
      <g
         id="g2444"
         style="fill:#000000;fill-opacity:1">
        <use
           id="use2446"
           y="138.2"
           x="224.62801"
           xlink:href="#textext-f49ec9cc-2"
           width="744.09448"
           height="1052.3622" />
      </g>
    </g>
  </g>
  <g
     transform="translate(79.09375,75.690308)"
     ns0:text="$\\frac{2}{3}$"
     ns0:preamble=""
     id="g2524">
    <defs
       id="defs2526">
      <g
         id="g2528">
        <symbol
           overflow="visible"
           id="textext-d3319c0f-0"
           style="overflow:visible">
          <path
             style="stroke:none"
             d=""
             id="path2531" />
        </symbol>
        <symbol
           overflow="visible"
           id="textext-d3319c0f-1"
           style="overflow:visible">
          <path
             style="stroke:none"
             d="M 3.515625,-1.265625 L 3.28125,-1.265625 C 3.265625,-1.109375 3.1875,-0.703125 3.09375,-0.640625 C 3.046875,-0.59375 2.515625,-0.59375 2.40625,-0.59375 L 1.125,-0.59375 C 1.859375,-1.234375 2.109375,-1.4375 2.515625,-1.765625 C 3.03125,-2.171875 3.515625,-2.609375 3.515625,-3.265625 C 3.515625,-4.109375 2.78125,-4.625 1.890625,-4.625 C 1.03125,-4.625 0.4375,-4.015625 0.4375,-3.375 C 0.4375,-3.03125 0.734375,-2.984375 0.8125,-2.984375 C 0.96875,-2.984375 1.171875,-3.109375 1.171875,-3.359375 C 1.171875,-3.484375 1.125,-3.734375 0.765625,-3.734375 C 0.984375,-4.21875 1.453125,-4.375 1.78125,-4.375 C 2.484375,-4.375 2.84375,-3.828125 2.84375,-3.265625 C 2.84375,-2.65625 2.40625,-2.1875 2.1875,-1.9375 L 0.515625,-0.265625 C 0.4375,-0.203125 0.4375,-0.1875 0.4375,0 L 3.3125,0 L 3.515625,-1.265625 z"
             id="path2534" />
        </symbol>
        <symbol
           overflow="visible"
           id="textext-d3319c0f-2"
           style="overflow:visible">
          <path
             style="stroke:none"
             d="M 1.90625,-2.328125 C 2.453125,-2.328125 2.84375,-1.953125 2.84375,-1.203125 C 2.84375,-0.34375 2.328125,-0.078125 1.9375,-0.078125 C 1.65625,-0.078125 1.03125,-0.15625 0.75,-0.578125 C 1.078125,-0.578125 1.15625,-0.8125 1.15625,-0.96875 C 1.15625,-1.1875 0.984375,-1.34375 0.765625,-1.34375 C 0.578125,-1.34375 0.375,-1.21875 0.375,-0.9375 C 0.375,-0.28125 1.09375,0.140625 1.9375,0.140625 C 2.90625,0.140625 3.578125,-0.515625 3.578125,-1.203125 C 3.578125,-1.75 3.140625,-2.296875 2.375,-2.453125 C 3.09375,-2.71875 3.359375,-3.234375 3.359375,-3.671875 C 3.359375,-4.21875 2.734375,-4.625 1.953125,-4.625 C 1.1875,-4.625 0.59375,-4.25 0.59375,-3.6875 C 0.59375,-3.453125 0.75,-3.328125 0.953125,-3.328125 C 1.171875,-3.328125 1.3125,-3.484375 1.3125,-3.671875 C 1.3125,-3.875 1.171875,-4.03125 0.953125,-4.046875 C 1.203125,-4.34375 1.671875,-4.421875 1.9375,-4.421875 C 2.25,-4.421875 2.6875,-4.265625 2.6875,-3.671875 C 2.6875,-3.375 2.59375,-3.046875 2.40625,-2.84375 C 2.1875,-2.578125 1.984375,-2.5625 1.640625,-2.53125 C 1.46875,-2.515625 1.453125,-2.515625 1.421875,-2.515625 C 1.40625,-2.515625 1.34375,-2.5 1.34375,-2.421875 C 1.34375,-2.328125 1.40625,-2.328125 1.53125,-2.328125 L 1.90625,-2.328125 z"
             id="path2537" />
        </symbol>
      </g>
    </defs>
    <g
       id="textext-d3319c0f-3">
      <g
         style="fill:#000000;fill-opacity:1"
         id="g2540">
        <use
           xlink:href="#textext-d3319c0f-1"
           x="224.62801"
           y="130.842"
           id="use2542"
           width="744.09448"
           height="1052.3622" />
      </g>
      <path
         style="fill:none;stroke:#000000;stroke-width:0.398;stroke-linecap:butt;stroke-linejoin:miter;stroke-miterlimit:10;stroke-opacity:1"
         d="M 0.00090625,0.0005625 L 3.969656,0.0005625"
         transform="matrix(1,0,0,-1,224.628,132.274)"
         id="path2544" />
      <g
         style="fill:#000000;fill-opacity:1"
         id="g2546">
        <use
           xlink:href="#textext-d3319c0f-2"
           x="224.62801"
           y="138.2"
           id="use2548"
           width="744.09448"
           height="1052.3622" />
      </g>
    </g>
  </g>
  <g
     id="g2656"
     ns0:preamble=""
     ns0:text="$1$"
     transform="translate(249.04687,75.362183)">
    <defs
       id="defs2658">
      <g
         id="g2660">
        <symbol
           id="textext-6f8cc4f8-0"
           overflow="visible"
           style="overflow:visible">
          <path
             id="path2663"
             d=""
             style="stroke:none" />
        </symbol>
        <symbol
           id="textext-6f8cc4f8-1"
           overflow="visible"
           style="overflow:visible">
          <path
             id="path2666"
             d="M 2.9375,-6.375 C 2.9375,-6.625 2.9375,-6.640625 2.703125,-6.640625 C 2.078125,-6 1.203125,-6 0.890625,-6 L 0.890625,-5.6875 C 1.09375,-5.6875 1.671875,-5.6875 2.1875,-5.953125 L 2.1875,-0.78125 C 2.1875,-0.421875 2.15625,-0.3125 1.265625,-0.3125 L 0.953125,-0.3125 L 0.953125,0 C 1.296875,-0.03125 2.15625,-0.03125 2.5625,-0.03125 C 2.953125,-0.03125 3.828125,-0.03125 4.171875,0 L 4.171875,-0.3125 L 3.859375,-0.3125 C 2.953125,-0.3125 2.9375,-0.421875 2.9375,-0.78125 L 2.9375,-6.375 z"
             style="stroke:none" />
        </symbol>
      </g>
    </defs>
    <g
       id="textext-6f8cc4f8-2">
      <g
         id="g2669"
         style="fill:#000000;fill-opacity:1">
        <use
           id="use2671"
           y="134.765"
           x="223.43201"
           xlink:href="#textext-6f8cc4f8-1"
           width="744.09448"
           height="1052.3622" />
      </g>
    </g>
  </g>
  <g
     id="g2577"
     clip-path="url(#cp2)"
     transform="matrix(0.75,0,0,0.75,155.1,104.17768)">
    <clipPath
       id="clipPath2880">
      <polygon
         id="polygon2882"
         points="74,13 74,235 434,235 434,13 74,13 " />
    </clipPath>
    <polyline
       style="fill:none;stroke:#000000;stroke-width:2.66666675px;stroke-opacity:1"
       id="polyline2582"
       points="81.2,124.246 81.306,124.246 81.412,124.246 81.624,124.246 82.048,124.246 82.8959,124.246 84.5918,124.246 87.9837,124.246 95.3379,124.246 102.205,124.246 108.937,124.246 116.24,124.246 123.055,124.246 130.441,124.246 137.693,124.246 144.457,124.246 151.791,124.246 158.639,124.246 165.351,124.246 172.634,124.246 179.43,124.246 186.797,124.246 194.028,124.246 200.773,124.246 208.088,124.246 214.915,124.246 222.313,124.246 229.577,124.246 236.353,124.246 243.7,124.246 250.559,124.246 257.284,124.246 264.579,124.246 271.387,124.246 278.766,124.246 286.01,124.246 292.766,124.246 300.093,124.246 306.933,124.246 313.638,124.246 320.914,124.246 327.702,124.246 335.061,124.246 341.932,124.246 348.669,124.246 355.977,124.246 362.797,124.246 370.187,124.246 377.443,124.246 384.212,124.246 391.551,124.246 398.403,124.246 405.12,124.246 412.408,124.246 419.209,124.246 419.327,124.246 419.446,124.246 419.683,124.246 420.158,124.246 421.106,124.246 423.004,124.246 423.123,124.246 423.242,124.246 423.479,124.246 423.953,124.246 424.902,124.246 425.021,124.246 425.139,124.246 425.377,124.246 425.851,124.246 425.97,124.246 426.088,124.246 426.326,124.246 426.444,124.246 426.563,124.246 426.681,124.246 426.8,124.246 " />
    <polyline
       style="fill:none;stroke:#000000;stroke-width:2.66666675px;stroke-opacity:1"
       id="polyline2584"
       points="81.2,70.848 84.5918,70.848 87.9837,70.848 95.3379,70.848 102.205,70.848 108.937,70.848 116.24,70.848 123.055,70.848 130.441,70.848 137.693,70.848 144.457,70.848 151.791,70.848 158.639,70.848 165.351,70.848 172.634,70.848 179.43,70.848 186.797,70.848 194.028,70.848 200.773,70.848 208.088,70.848 214.915,70.848 222.313,70.848 229.577,70.848 236.353,70.848 243.7,70.848 250.559,70.848 257.284,70.848 264.579,70.848 271.387,70.848 278.766,70.848 286.01,70.848 292.766,70.848 300.093,70.848 306.933,70.848 313.638,70.848 320.914,70.848 327.702,70.848 335.061,70.848 341.932,70.848 348.669,70.848 355.977,70.848 362.797,70.848 370.187,70.848 377.443,70.848 384.212,70.848 391.551,70.848 398.403,70.848 405.12,70.848 412.408,70.848 419.209,70.848 423.004,70.848 426.8,70.848 " />
    <polyline
       style="fill:none;stroke:#000000;stroke-width:0.66666669px;stroke-dasharray:5.33333333, 5.33333333;stroke-opacity:1"
       id="polyline2586"
       points="426.8,124.246 426.8,70.848 " />
    <polyline
       style="fill:none;stroke:#000000;stroke-width:0.66666669px;stroke-dasharray:5.33333333, 5.33333333;stroke-opacity:1"
       id="polyline2588"
       points="199.46,124.246 199.46,70.848 " />
    <polyline
       style="fill:none;stroke:#000000;stroke-width:0.66666669px;stroke-dasharray:5.33333333, 5.33333333;stroke-opacity:1"
       id="polyline2590"
       points="351.02,124.246 351.02,70.848 " />
    <polyline
       style="fill:none;stroke:#000000;stroke-width:0.66666669px;stroke-dasharray:5.33333333, 5.33333333;stroke-opacity:1"
       id="polyline2592"
       points="148.94,124.246 148.94,70.848 " />
    <polyline
       style="fill:none;stroke:#000000;stroke-width:0.66666669px;stroke-dasharray:5.33333333, 5.33333333;stroke-opacity:1"
       id="polyline2594"
       points="283.66,124.246 283.66,70.848 " />
    <polyline
       style="fill:none;stroke:#000000;stroke-width:0.66666669px;stroke-dasharray:5.33333333, 5.33333333;stroke-opacity:1"
       id="polyline2596"
       points="104.033,124.246 104.033,70.848 " />
    <polyline
       style="fill:none;stroke:#000000;stroke-width:0.66666669px;stroke-dasharray:5.33333333, 5.33333333;stroke-opacity:1"
       id="polyline2598"
       points="223.784,124.246 223.784,70.848 " />
    <polyline
       style="fill:none;stroke:#000000;stroke-width:0.66666669px;stroke-dasharray:5.33333333, 5.33333333;stroke-opacity:1"
       id="polyline2600"
       points="383.453,124.246 383.453,70.848 " />
    <polyline
       style="fill:none;stroke:#000000;stroke-width:0.66666669px;stroke-dasharray:5.33333333, 5.33333333;stroke-opacity:1"
       id="polyline2602"
       points="170.562,124.246 170.562,70.848 " />
    <polyline
       style="fill:none;stroke:#000000;stroke-width:0.66666669px;stroke-dasharray:5.33333333, 5.33333333;stroke-opacity:1"
       id="polyline2604"
       points="312.489,124.246 312.489,70.848 " />
    <polyline
       style="fill:none;stroke:#000000;stroke-width:0.66666669px;stroke-dasharray:5.33333333, 5.33333333;stroke-opacity:1"
       id="polyline2606"
       points="123.253,124.246 123.253,70.848 " />
    <polyline
       style="fill:none;stroke:#000000;stroke-width:0.66666669px;stroke-dasharray:5.33333333, 5.33333333;stroke-opacity:1"
       id="polyline2608"
       points="249.41,124.246 249.41,70.848 " />
    <polyline
       style="fill:none;stroke:#000000;stroke-width:0.66666669px;stroke-dasharray:5.33333333, 5.33333333;stroke-opacity:1"
       id="polyline2610"
       points="81.2001,124.246 81.2001,70.848 " />
    <polyline
       style="fill:none;stroke:#000000;stroke-width:0.66666669px;stroke-opacity:1"
       id="polyline2612"
       points="426.8,124.246 426.8,70.848 " />
    <polyline
       style="fill:none;stroke:#000000;stroke-width:0.66666669px;stroke-opacity:1"
       id="polyline2614"
       points="388.521,124.246 388.521,70.848 " />
    <polyline
       style="fill:none;stroke:#000000;stroke-width:0.66666669px;stroke-opacity:1"
       id="polyline2616"
       points="352.391,124.246 352.391,70.848 " />
    <polyline
       style="fill:none;stroke:#000000;stroke-width:0.66666669px;stroke-opacity:1"
       id="polyline2618"
       points="318.288,124.246 318.288,70.848 " />
    <polyline
       style="fill:none;stroke:#000000;stroke-width:0.66666669px;stroke-opacity:1"
       id="polyline2620"
       points="286.1,124.246 286.1,70.848 " />
    <polyline
       style="fill:none;stroke:#000000;stroke-width:0.66666669px;stroke-opacity:1"
       id="polyline2622"
       points="255.718,124.246 255.718,70.848 " />
    <polyline
       style="fill:none;stroke:#000000;stroke-width:0.66666669px;stroke-opacity:1"
       id="polyline2624"
       points="227.041,124.246 227.041,70.848 " />
    <polyline
       style="fill:none;stroke:#000000;stroke-width:0.66666669px;stroke-opacity:1"
       id="polyline2626"
       points="199.974,124.246 199.974,70.848 " />
    <polyline
       style="fill:none;stroke:#000000;stroke-width:0.66666669px;stroke-opacity:1"
       id="polyline2628"
       points="174.426,124.246 174.426,70.848 " />
    <polyline
       style="fill:none;stroke:#000000;stroke-width:0.66666669px;stroke-opacity:1"
       id="polyline2630"
       points="150.312,124.246 150.312,70.848 " />
    <polyline
       style="fill:none;stroke:#000000;stroke-width:0.66666669px;stroke-opacity:1"
       id="polyline2632"
       points="127.551,124.246 127.551,70.848 " />
    <polyline
       style="fill:none;stroke:#000000;stroke-width:0.66666669px;stroke-opacity:1"
       id="polyline2634"
       points="106.068,124.246 106.068,70.848 " />
    <polyline
       style="fill:none;stroke:#000000;stroke-width:0.66666669px;stroke-opacity:1"
       id="polyline2636"
       points="85.79,124.246 85.79,70.848 " />
  </g>
</svg>
