<?xml version="1.0" encoding="UTF-8" standalone="no"?>
<!-- Created with Inkscape (http://www.inkscape.org/) -->
<svg
   xmlns:dc="http://purl.org/dc/elements/1.1/"
   xmlns:cc="http://creativecommons.org/ns#"
   xmlns:rdf="http://www.w3.org/1999/02/22-rdf-syntax-ns#"
   xmlns:svg="http://www.w3.org/2000/svg"
   xmlns="http://www.w3.org/2000/svg"
   xmlns:sodipodi="http://sodipodi.sourceforge.net/DTD/sodipodi-0.dtd"
   xmlns:inkscape="http://www.inkscape.org/namespaces/inkscape"
   id="svg2"
   sodipodi:version="0.32"
   inkscape:version="0.46"
   width="2400"
   height="480"
   version="1.0"
   sodipodi:docname="gfive.svg"
   inkscape:output_extension="org.inkscape.output.svg.inkscape">
  <metadata
     id="metadata7">
    <rdf:RDF>
      <cc:Work
         rdf:about="">
        <dc:format>image/svg+xml</dc:format>
        <dc:type
           rdf:resource="http://purl.org/dc/dcmitype/StillImage" />
      </cc:Work>
    </rdf:RDF>
  </metadata>
  <defs
     id="defs5">
    <inkscape:perspective
       sodipodi:type="inkscape:persp3d"
       inkscape:vp_x="0 : 526.18109 : 1"
       inkscape:vp_y="0 : 1000 : 0"
       inkscape:vp_z="744.09448 : 526.18109 : 1"
       inkscape:persp3d-origin="372.04724 : 350.78739 : 1"
       id="perspective9" />
  </defs>
  <sodipodi:namedview
     inkscape:window-height="972"
     inkscape:window-width="1280"
     inkscape:pageshadow="2"
     inkscape:pageopacity="0.0"
     guidetolerance="10.0"
     gridtolerance="10.0"
     objecttolerance="10.0"
     borderopacity="1.0"
     bordercolor="#666666"
     pagecolor="#ffffff"
     id="base"
     showgrid="false"
     inkscape:zoom="2.38"
     inkscape:cx="188.08354"
     inkscape:cy="434.13338"
     inkscape:window-x="0"
     inkscape:window-y="0"
     inkscape:current-layer="svg2" />
  <path
     style="fill:#000000"
     d="M 168.61389,57.530124 C 166.08249,57.134063 163.265,57.49609 160.83881,55.864004 C 155.26538,51.345861 155.70512,40.53122 162.58606,37.688428 C 166.54069,35.326749 172.74816,34.103452 175.61356,38.382164 C 178.87345,41.568992 181.786,47.192128 179.07614,51.619304 C 176.36709,54.428596 173.11608,56.660017 169.1504,57.277221 C 168.93471,57.272896 168.89759,58.061989 168.61389,57.530124 z M 166.37091,55.596165 C 170.91081,56.060063 176.11235,53.340761 178.29214,49.380392 C 178.9744,47.053151 178.04916,44.786384 176.98678,43.002524 C 175.3818,40.339595 172.74864,37.425906 170.22597,37.164294 C 166.25896,37.314499 162.01544,38.925311 159.91178,42.57595 C 158.19832,46.370776 159.25736,51.524075 162.276,54.349374 C 163.57771,55.014857 165.46425,55.659522 166.37091,55.596165 z M 147.71787,54.518448 C 144.81376,53.440316 149.68824,39.536453 145.70808,44.612674 C 143.58008,46.828172 141.59071,50.39002 138.55944,51.342833 C 136.46863,48.911871 142.77452,47.398971 143.46418,44.736127 C 145.3014,42.680391 146.74996,39.664112 147.91365,36.806864 C 151.77402,38.9851 148.28843,46.998843 149.05602,51.395587 C 149.49177,52.108491 149.4396,55.516999 147.71787,54.518448 z M 180.8882,31.67253 C 181.15136,31.281797 181.21291,31.88931 180.8882,31.67253 z"
     id="path2384"
     sodipodi:nodetypes="ccccccccccccccccccccccc" />
</svg>
