<?xml version="1.0" encoding="UTF-8" standalone="no"?>
<!-- Created with Inkscape (http://www.inkscape.org/) -->
<svg
   xmlns:dc="http://purl.org/dc/elements/1.1/"
   xmlns:cc="http://creativecommons.org/ns#"
   xmlns:rdf="http://www.w3.org/1999/02/22-rdf-syntax-ns#"
   xmlns:svg="http://www.w3.org/2000/svg"
   xmlns="http://www.w3.org/2000/svg"
   xmlns:sodipodi="http://sodipodi.sourceforge.net/DTD/sodipodi-0.dtd"
   xmlns:inkscape="http://www.inkscape.org/namespaces/inkscape"
   id="svg2"
   sodipodi:version="0.32"
   inkscape:version="0.46"
   width="2400"
   height="480"
   version="1.0"
   sodipodi:docname="numbers.svg"
   inkscape:output_extension="org.inkscape.output.svg.inkscape">
  <metadata
     id="metadata7">
    <rdf:RDF>
      <cc:Work
         rdf:about="">
        <dc:format>image/svg+xml</dc:format>
        <dc:type
           rdf:resource="http://purl.org/dc/dcmitype/StillImage" />
      </cc:Work>
    </rdf:RDF>
  </metadata>
  <defs
     id="defs5">
    <inkscape:perspective
       sodipodi:type="inkscape:persp3d"
       inkscape:vp_x="0 : 526.18109 : 1"
       inkscape:vp_y="0 : 1000 : 0"
       inkscape:vp_z="744.09448 : 526.18109 : 1"
       inkscape:persp3d-origin="372.04724 : 350.78739 : 1"
       id="perspective9" />
  </defs>
  <sodipodi:namedview
     inkscape:window-height="972"
     inkscape:window-width="1280"
     inkscape:pageshadow="2"
     inkscape:pageopacity="0.0"
     guidetolerance="10.0"
     gridtolerance="10.0"
     objecttolerance="10.0"
     borderopacity="1.0"
     bordercolor="#666666"
     pagecolor="#ffffff"
     id="base"
     showgrid="false"
     inkscape:zoom="2.38"
     inkscape:cx="261.82304"
     inkscape:cy="434.13338"
     inkscape:window-x="0"
     inkscape:window-y="0"
     inkscape:current-layer="svg2" />
  <path
     style="fill:#000000"
     d="M 318.34731,68.929328 C 313.27562,65.601568 316.88681,59.51131 322.21414,59.717541 C 328.24215,59.571835 329.78451,50.117289 324.04302,48.842298 C 319.94574,46.932336 314.92217,49.899537 310.7365,51.135531 C 307.71423,47.861171 316.69511,47.836604 318.88355,46.082305 C 321.99337,45.348704 325.82234,42.730733 325.81585,39.350713 C 325.24213,34.876536 319.97936,36.696585 317.3279,37.609203 C 316.71495,38.209908 315.68952,38.764795 314.63235,39.176793 C 311.75111,40.299686 308.63428,40.361154 312.99154,37.395917 C 316.52015,36.044228 320.02702,33.958565 323.45641,34.412584 C 330.32601,34.451694 329.21999,44.14544 323.98494,46.284485 C 328.59749,47.059228 330.2064,50.978434 330.46047,55.330383 C 329.26283,60.949674 322.50028,60.982313 318.52284,63.411912 C 317.66964,65.108024 320.6742,68.379619 318.34731,68.929328 z M 368.47326,64.980988 C 364.61773,61.431433 372.57908,49.84045 364.0432,51.885424 C 359.89136,52.907114 351.37642,52.954277 358.22939,47.756191 C 361.45886,43.241016 364.89472,39.339292 368.59912,35.316651 C 367.62236,28.582762 373.26248,28.989009 371.38911,35.792311 C 373.03041,40.31069 368.21031,49.154678 374.11931,50.103968 C 367.58559,51.025195 373.49177,63.639656 368.47326,64.980988 z M 362.31809,49.977509 C 369.62612,51.800191 368.82078,45.826326 368.75612,40.381929 C 366.94585,38.071745 362.56958,46.639773 359.98995,49.197033 C 358.47362,50.491401 361.8766,49.762742 362.31809,49.977509 z M 264.3048,57.555754 C 264.68472,53.62208 271.56212,52.655691 272.0032,47.822945 C 274.55392,42.306464 269.36529,33.40707 264.02676,39.856358 C 261.85395,44.490737 255.79815,44.847246 261.13868,39.640944 C 264.12344,36.925844 269.36475,33.047025 272.95341,37.041319 C 276.49745,42.102411 275.49083,49.090426 271.63272,53.493149 C 275.20578,52.953214 278.75508,52.35089 282.52031,53.088986 C 288.51032,54.873642 281.82939,56.430012 279.10804,54.666223 C 275.50848,55.162476 272.06789,55.043149 268.25113,56.408066 C 266.88307,56.614731 265.59408,58.066962 264.3048,57.555754 z M 170.86164,60.75609 C 167.69739,60.261013 164.17553,60.713547 161.14279,58.673439 C 154.176,53.025761 154.72567,39.50746 163.32685,35.953969 C 168.27014,33.001871 176.02947,31.47275 179.61123,36.821139 C 183.68609,40.804674 187.32678,47.833595 183.93945,53.367565 C 180.55314,56.87918 176.48937,59.668456 171.53228,60.439961 C 171.26266,60.434554 171.21626,61.420921 170.86164,60.75609 z M 168.05791,58.338641 C 173.73279,58.918513 180.23471,55.519386 182.95945,50.568924 C 183.81227,47.659873 182.65573,44.826415 181.32775,42.596589 C 179.32153,39.267928 176.03007,35.625817 172.87674,35.298802 C 167.91797,35.486558 162.61358,37.500073 159.984,42.063372 C 157.84217,46.806905 159.16597,53.248528 162.93927,56.780152 C 164.56641,57.612006 166.92459,58.417837 168.05791,58.338641 z M 223.73321,59.932671 C 220.10308,58.585006 226.19618,41.205177 221.22097,47.550453 C 218.56097,50.319826 216.07426,54.772135 212.28517,55.963152 C 209.67166,52.924449 217.55403,51.033324 218.4161,47.704769 C 220.71262,45.135099 222.52332,41.364751 223.97794,37.793191 C 228.8034,40.515986 224.44641,50.533164 225.4059,56.029094 C 225.95059,56.920224 225.88538,61.180859 223.73321,59.932671 z M 296.70872,22.971912 C 297.03767,22.483496 297.11461,23.242887 296.70872,22.971912 z"
     id="path2384"
     sodipodi:nodetypes="cccccccscccccccccccccccccccccccccccccccccccccccccccccccccc" />
</svg>
