<?xml version="1.0" encoding="UTF-8" standalone="no"?>
<!-- Created with Inkscape (http://www.inkscape.org/) -->

<svg
   xmlns:dc="http://purl.org/dc/elements/1.1/"
   xmlns:cc="http://creativecommons.org/ns#"
   xmlns:rdf="http://www.w3.org/1999/02/22-rdf-syntax-ns#"
   xmlns:svg="http://www.w3.org/2000/svg"
   xmlns="http://www.w3.org/2000/svg"
   xmlns:xlink="http://www.w3.org/1999/xlink"
   xmlns:sodipodi="http://sodipodi.sourceforge.net/DTD/sodipodi-0.dtd"
   xmlns:inkscape="http://www.inkscape.org/namespaces/inkscape"
   sodipodi:docname="pascalsTri.svg"
   inkscape:version="0.47 r22583"
   version="1.1"
   id="svg2"
   height="990"
   width="765">
  <sodipodi:namedview
     id="base"
     pagecolor="#ffffff"
     bordercolor="#666666"
     borderopacity="1.0"
     inkscape:pageopacity="0.0"
     inkscape:pageshadow="2"
     inkscape:zoom="3.6599245"
     inkscape:cx="383.20866"
     inkscape:cy="70.559355"
     inkscape:document-units="cm"
     inkscape:current-layer="layer1"
     showgrid="true"
     gridtolerance="10000"
     guidetolerance="10000"
     objecttolerance="10"
     inkscape:snap-grids="true"
     inkscape:snap-to-guides="true"
     inkscape:snap-object-midpoints="true"
     inkscape:snap-bbox="true"
     inkscape:snap-nodes="true"
     inkscape:object-nodes="true"
     inkscape:window-width="1280"
     inkscape:window-height="968"
     inkscape:window-x="0"
     inkscape:window-y="0"
     inkscape:window-maximized="1"
     showguides="true"
     inkscape:guide-bbox="true"
     inkscape:snap-global="true"
     inkscape:snap-center="true"
     inkscape:bbox-paths="false"
     inkscape:bbox-nodes="true"
     inkscape:snap-bbox-edge-midpoints="false"
     inkscape:snap-bbox-midpoints="false"
     inkscape:snap-midpoints="true"
     units="cm"
     inkscape:snap-page="true"
     inkscape:object-paths="true"
     inkscape:snap-intersection-paths="true"
     inkscape:snap-smooth-nodes="true">
    <inkscape:grid
       type="xygrid"
       id="grid2816"
       empspacing="5"
       visible="true"
       enabled="true"
       snapvisiblegridlinesonly="true"
       units="cm"
       spacingx="0.025cm"
       spacingy="0.025cm" />
  </sodipodi:namedview>
  <defs
     id="defs4">
    <inkscape:path-effect
       is_visible="true"
       id="path-effect2954"
       effect="spiro" />
    <inkscape:path-effect
       is_visible="true"
       id="path-effect2950"
       effect="spiro" />
    <inkscape:path-effect
       is_visible="true"
       id="path-effect2946"
       effect="spiro" />
    <linearGradient
       id="linearGradient3829">
      <stop
         style="stop-color:#000000;stop-opacity:1;"
         offset="0"
         id="stop3831" />
      <stop
         style="stop-color:#000000;stop-opacity:0;"
         offset="1"
         id="stop3833" />
    </linearGradient>
    <inkscape:path-effect
       effect="spiro"
       id="path-effect3171"
       is_visible="true" />
    <inkscape:perspective
       sodipodi:type="inkscape:persp3d"
       inkscape:vp_x="0 : 526.18109 : 1"
       inkscape:vp_y="0 : 1000 : 0"
       inkscape:vp_z="744.09448 : 526.18109 : 1"
       inkscape:persp3d-origin="372.04724 : 350.78739 : 1"
       id="perspective10" />
    <inkscape:perspective
       id="perspective3006"
       inkscape:persp3d-origin="0.5 : 0.33333333 : 1"
       inkscape:vp_z="1 : 0.5 : 1"
       inkscape:vp_y="0 : 1000 : 0"
       inkscape:vp_x="0 : 0.5 : 1"
       sodipodi:type="inkscape:persp3d" />
    <marker
       refX="0"
       refY="0"
       orient="auto"
       id="Arrow2Mend"
       style="overflow:visible">
      <path
         d="M 8.7185878,4.0337352 -2.2072895,0.01601326 8.7185884,-4.0017078 c -1.7454984,2.3720609 -1.7354408,5.6174519 -6e-7,8.035443 z"
         transform="scale(-0.6,-0.6)"
         id="path3761"
         style="font-size:12px;fill-rule:evenodd;stroke-width:0.625;stroke-linejoin:round" />
    </marker>
    <marker
       refX="0"
       refY="0"
       orient="auto"
       id="marker3012"
       style="overflow:visible">
      <path
         d="M 8.7185878,4.0337352 -2.2072895,0.01601326 8.7185884,-4.0017078 c -1.7454984,2.3720609 -1.7354408,5.6174519 -6e-7,8.035443 z"
         transform="scale(-0.6,-0.6)"
         id="path3014"
         style="font-size:12px;fill-rule:evenodd;stroke-width:0.625;stroke-linejoin:round" />
    </marker>
    <inkscape:perspective
       id="perspective4778"
       inkscape:persp3d-origin="0.5 : 0.33333333 : 1"
       inkscape:vp_z="1 : 0.5 : 1"
       inkscape:vp_y="0 : 1000 : 0"
       inkscape:vp_x="0 : 0.5 : 1"
       sodipodi:type="inkscape:persp3d" />
    <inkscape:perspective
       sodipodi:type="inkscape:persp3d"
       inkscape:vp_x="0 : 0.5 : 1"
       inkscape:vp_y="0 : 1000 : 0"
       inkscape:vp_z="1 : 0.5 : 1"
       inkscape:persp3d-origin="0.5 : 0.33333333 : 1"
       id="perspective3634" />
    <defs
       id="defs4100">
      <g
         id="g4102">
        <symbol
           style="overflow:visible"
           overflow="visible"
           id="textext-3c7b3c27-0">
          <path
             style="stroke:none"
             d=""
             id="path4105" />
        </symbol>
        <symbol
           style="overflow:visible"
           overflow="visible"
           id="textext-3c7b3c27-1">
          <path
             style="stroke:none"
             d="m 0.875,-0.59375 c -0.03125,0.15625 -0.09375,0.390625 -0.09375,0.4375 0,0.171875 0.140625,0.265625 0.296875,0.265625 0.125,0 0.296875,-0.078125 0.375,-0.28125 0,-0.015625 0.125,-0.484375 0.1875,-0.734375 l 0.21875,-0.890625 C 1.90625,-2.03125 1.96875,-2.25 2.03125,-2.46875 c 0.03125,-0.171875 0.109375,-0.46875 0.125,-0.5 0.140625,-0.3125 0.671875,-1.21875 1.625,-1.21875 0.453125,0 0.53125,0.375 0.53125,0.703125 0,0.609375 -0.484375,1.890625 -0.640625,2.3125 C 3.578125,-0.9375 3.5625,-0.8125 3.5625,-0.703125 c 0,0.46875 0.359375,0.8125 0.828125,0.8125 0.9375,0 1.296875,-1.453125 1.296875,-1.53125 0,-0.109375 -0.078125,-0.109375 -0.109375,-0.109375 -0.109375,0 -0.109375,0.03125 -0.15625,0.1875 -0.203125,0.671875 -0.53125,1.234375 -1.015625,1.234375 -0.171875,0 -0.234375,-0.09375 -0.234375,-0.328125 0,-0.25 0.078125,-0.484375 0.171875,-0.703125 0.1875,-0.53125 0.609375,-1.625 0.609375,-2.203125 0,-0.65625 -0.421875,-1.0625 -1.140625,-1.0625 -0.90625,0 -1.390625,0.640625 -1.5625,0.875 -0.046875,-0.5625 -0.453125,-0.875 -0.921875,-0.875 -0.453125,0 -0.640625,0.390625 -0.734375,0.5625 C 0.421875,-3.5 0.296875,-2.90625 0.296875,-2.875 c 0,0.109375 0.09375,0.109375 0.109375,0.109375 0.109375,0 0.109375,-0.015625 0.171875,-0.234375 0.171875,-0.703125 0.375,-1.1875 0.734375,-1.1875 0.1875,0 0.296875,0.125 0.296875,0.453125 0,0.21875 -0.03125,0.328125 -0.15625,0.84375 L 0.875,-0.59375 z m 0,0"
             id="path4108" />
        </symbol>
        <symbol
           style="overflow:visible"
           overflow="visible"
           id="textext-3c7b3c27-2">
          <path
             style="stroke:none"
             d=""
             id="path4111" />
        </symbol>
        <symbol
           style="overflow:visible"
           overflow="visible"
           id="textext-3c7b3c27-3">
          <path
             style="stroke:none"
             d="m 6.84375,-3.265625 c 0.15625,0 0.34375,0 0.34375,-0.1875 C 7.1875,-3.65625 7,-3.65625 6.859375,-3.65625 l -5.96875,0 c -0.140625,0 -0.328125,0 -0.328125,0.203125 0,0.1875 0.1875,0.1875 0.328125,0.1875 l 5.953125,0 z m 0.015625,1.9375 c 0.140625,0 0.328125,0 0.328125,-0.203125 0,-0.1875 -0.1875,-0.1875 -0.34375,-0.1875 l -5.953125,0 c -0.140625,0 -0.328125,0 -0.328125,0.1875 0,0.203125 0.1875,0.203125 0.328125,0.203125 l 5.96875,0 z m 0,0"
             id="path4114" />
        </symbol>
        <symbol
           style="overflow:visible"
           overflow="visible"
           id="textext-3c7b3c27-4">
          <path
             style="stroke:none"
             d="m 4.578125,-3.1875 c 0,-0.796875 -0.046875,-1.59375 -0.390625,-2.328125 -0.453125,-0.96875 -1.28125,-1.125 -1.6875,-1.125 -0.609375,0 -1.328125,0.265625 -1.75,1.1875 -0.3125,0.6875 -0.359375,1.46875 -0.359375,2.265625 0,0.75 0.03125,1.640625 0.453125,2.40625 0.421875,0.796875 1.15625,1 1.640625,1 0.53125,0 1.296875,-0.203125 1.734375,-1.15625 0.3125,-0.6875 0.359375,-1.46875 0.359375,-2.25 z M 2.484375,0 C 2.09375,0 1.5,-0.25 1.328125,-1.203125 1.21875,-1.796875 1.21875,-2.71875 1.21875,-3.3125 c 0,-0.640625 0,-1.296875 0.078125,-1.828125 0.1875,-1.1875 0.9375,-1.28125 1.1875,-1.28125 0.328125,0 0.984375,0.1875 1.171875,1.171875 0.109375,0.5625 0.109375,1.3125 0.109375,1.9375 0,0.75 0,1.421875 -0.109375,2.0625 C 3.5,-0.296875 2.9375,0 2.484375,0 z m 0,0"
             id="path4117" />
        </symbol>
        <symbol
           style="overflow:visible"
           overflow="visible"
           id="textext-3c7b3c27-5">
          <path
             style="stroke:none"
             d="m 1.90625,-3.765625 c 0,-0.296875 -0.234375,-0.53125 -0.515625,-0.53125 -0.296875,0 -0.53125,0.234375 -0.53125,0.53125 0,0.28125 0.234375,0.53125 0.53125,0.53125 0.28125,0 0.515625,-0.25 0.515625,-0.53125 z m 0,3.234375 c 0,-0.28125 -0.234375,-0.53125 -0.515625,-0.53125 -0.296875,0 -0.53125,0.25 -0.53125,0.53125 C 0.859375,-0.234375 1.09375,0 1.390625,0 1.671875,0 1.90625,-0.234375 1.90625,-0.53125 z m 0,0"
             id="path4120" />
        </symbol>
        <symbol
           style="overflow:visible"
           overflow="visible"
           id="textext-3c7b3c27-6">
          <path
             style="stroke:none"
             d="m 2.9375,-6.375 c 0,-0.25 0,-0.265625 -0.234375,-0.265625 C 2.078125,-6 1.203125,-6 0.890625,-6 l 0,0.3125 c 0.203125,0 0.78125,0 1.296875,-0.265625 l 0,5.171875 c 0,0.359375 -0.03125,0.46875 -0.921875,0.46875 l -0.3125,0 0,0.3125 c 0.34375,-0.03125 1.203125,-0.03125 1.609375,-0.03125 0.390625,0 1.265625,0 1.609375,0.03125 l 0,-0.3125 -0.3125,0 c -0.90625,0 -0.921875,-0.109375 -0.921875,-0.46875 l 0,-5.59375 z m 0,0"
             id="path4123" />
        </symbol>
        <symbol
           style="overflow:visible"
           overflow="visible"
           id="textext-3c7b3c27-7">
          <path
             style="stroke:none"
             d="m 1.265625,-0.765625 1.0625,-1.03125 c 1.546875,-1.375 2.140625,-1.90625 2.140625,-2.90625 0,-1.140625 -0.890625,-1.9375 -2.109375,-1.9375 -1.125,0 -1.859375,0.921875 -1.859375,1.8125 0,0.546875 0.5,0.546875 0.53125,0.546875 0.171875,0 0.515625,-0.109375 0.515625,-0.53125 0,-0.25 -0.1875,-0.515625 -0.53125,-0.515625 -0.078125,0 -0.09375,0 -0.125,0.015625 0.21875,-0.65625 0.765625,-1.015625 1.34375,-1.015625 0.90625,0 1.328125,0.8125 1.328125,1.625 C 3.5625,-3.90625 3.078125,-3.125 2.515625,-2.5 l -1.90625,2.125 C 0.5,-0.265625 0.5,-0.234375 0.5,0 l 3.703125,0 0.265625,-1.734375 -0.234375,0 C 4.171875,-1.4375 4.109375,-1 4,-0.84375 3.9375,-0.765625 3.28125,-0.765625 3.0625,-0.765625 l -1.796875,0 z m 0,0"
             id="path4126" />
        </symbol>
        <symbol
           style="overflow:visible"
           overflow="visible"
           id="textext-3c7b3c27-8">
          <path
             style="stroke:none"
             d="m 2.890625,-3.515625 c 0.8125,-0.265625 1.390625,-0.953125 1.390625,-1.75 0,-0.8125 -0.875,-1.375 -1.828125,-1.375 -1,0 -1.765625,0.59375 -1.765625,1.359375 0,0.328125 0.21875,0.515625 0.515625,0.515625 0.296875,0 0.5,-0.21875 0.5,-0.515625 0,-0.484375 -0.46875,-0.484375 -0.609375,-0.484375 0.296875,-0.5 0.953125,-0.625 1.3125,-0.625 0.421875,0 0.96875,0.21875 0.96875,1.109375 0,0.125 -0.03125,0.703125 -0.28125,1.140625 C 2.796875,-3.65625 2.453125,-3.625 2.203125,-3.625 2.125,-3.609375 1.890625,-3.59375 1.8125,-3.59375 c -0.078125,0.015625 -0.140625,0.03125 -0.140625,0.125 0,0.109375 0.0625,0.109375 0.234375,0.109375 l 0.4375,0 c 0.8125,0 1.1875,0.671875 1.1875,1.65625 0,1.359375 -0.6875,1.640625 -1.125,1.640625 -0.4375,0 -1.1875,-0.171875 -1.53125,-0.75 0.34375,0.046875 0.65625,-0.171875 0.65625,-0.546875 0,-0.359375 -0.265625,-0.5625 -0.546875,-0.5625 -0.25,0 -0.5625,0.140625 -0.5625,0.578125 0,0.90625 0.921875,1.5625 2.015625,1.5625 1.21875,0 2.125,-0.90625 2.125,-1.921875 0,-0.8125 -0.640625,-1.59375 -1.671875,-1.8125 z m 0,0"
             id="path4129" />
        </symbol>
        <symbol
           style="overflow:visible"
           overflow="visible"
           id="textext-3c7b3c27-9">
          <path
             style="stroke:none"
             d="m 2.9375,-1.640625 0,0.859375 c 0,0.359375 -0.03125,0.46875 -0.765625,0.46875 l -0.203125,0 0,0.3125 C 2.375,-0.03125 2.890625,-0.03125 3.3125,-0.03125 c 0.421875,0 0.9375,0 1.359375,0.03125 l 0,-0.3125 -0.21875,0 c -0.734375,0 -0.75,-0.109375 -0.75,-0.46875 l 0,-0.859375 0.984375,0 0,-0.3125 -0.984375,0 0,-4.53125 c 0,-0.203125 0,-0.265625 -0.171875,-0.265625 -0.078125,0 -0.109375,0 -0.1875,0.125 l -3.0625,4.671875 0,0.3125 2.65625,0 z m 0.046875,-0.3125 -2.421875,0 2.421875,-3.71875 0,3.71875 z m 0,0"
             id="path4132" />
        </symbol>
        <symbol
           style="overflow:visible"
           overflow="visible"
           id="textext-3c7b3c27-10">
          <path
             style="stroke:none"
             d="m 1.3125,-3.265625 0,-0.25 c 0,-2.515625 1.234375,-2.875 1.75,-2.875 0.234375,0 0.65625,0.0625 0.875,0.40625 -0.15625,0 -0.546875,0 -0.546875,0.4375 0,0.3125 0.234375,0.46875 0.453125,0.46875 0.15625,0 0.46875,-0.09375 0.46875,-0.484375 0,-0.59375 -0.4375,-1.078125 -1.265625,-1.078125 -1.28125,0 -2.625,1.28125 -2.625,3.484375 0,2.671875 1.15625,3.375 2.078125,3.375 1.109375,0 2.0625,-0.9375 2.0625,-2.25 0,-1.265625 -0.890625,-2.21875 -2,-2.21875 -0.671875,0 -1.046875,0.5 -1.25,0.984375 z M 2.5,-0.0625 c -0.625,0 -0.921875,-0.59375 -0.984375,-0.75 -0.1875,-0.46875 -0.1875,-1.265625 -0.1875,-1.4375 0,-0.78125 0.328125,-1.78125 1.21875,-1.78125 0.171875,0 0.625,0 0.9375,0.625 0.171875,0.359375 0.171875,0.875 0.171875,1.359375 0,0.484375 0,0.984375 -0.171875,1.34375 C 3.1875,-0.109375 2.734375,-0.0625 2.5,-0.0625 z m 0,0"
             id="path4135" />
        </symbol>
        <symbol
           style="overflow:visible"
           overflow="visible"
           id="textext-3c7b3c27-11">
          <path
             style="stroke:none"
             d="m 4.46875,-2 c 0,-1.1875 -0.8125,-2.1875 -1.890625,-2.1875 -0.46875,0 -0.90625,0.15625 -1.265625,0.515625 l 0,-1.953125 c 0.203125,0.0625 0.53125,0.125 0.84375,0.125 1.234375,0 1.9375,-0.90625 1.9375,-1.03125 0,-0.0625 -0.03125,-0.109375 -0.109375,-0.109375 0,0 -0.03125,0 -0.078125,0.03125 C 3.703125,-6.515625 3.21875,-6.3125 2.546875,-6.3125 2.15625,-6.3125 1.6875,-6.390625 1.21875,-6.59375 1.140625,-6.625 1.125,-6.625 1.109375,-6.625 1,-6.625 1,-6.546875 1,-6.390625 L 1,-3.4375 c 0,0.171875 0,0.25 0.140625,0.25 0.078125,0 0.09375,-0.015625 0.140625,-0.078125 C 1.390625,-3.421875 1.75,-3.96875 2.5625,-3.96875 c 0.515625,0 0.765625,0.453125 0.84375,0.640625 0.15625,0.375 0.1875,0.75 0.1875,1.25 0,0.359375 0,0.953125 -0.25,1.375 C 3.109375,-0.3125 2.734375,-0.0625 2.28125,-0.0625 c -0.71875,0 -1.296875,-0.53125 -1.46875,-1.109375 0.03125,0 0.0625,0.015625 0.171875,0.015625 0.328125,0 0.5,-0.25 0.5,-0.484375 0,-0.25 -0.171875,-0.5 -0.5,-0.5 C 0.84375,-2.140625 0.5,-2.0625 0.5,-1.609375 0.5,-0.75 1.1875,0.21875 2.296875,0.21875 3.453125,0.21875 4.46875,-0.734375 4.46875,-2 z m 0,0"
             id="path4138" />
        </symbol>
      </g>
    </defs>
    <defs
       id="defs4844">
      <g
         id="g4846">
        <symbol
           id="textext-497cf8e2-0"
           overflow="visible"
           style="overflow:visible">
          <path
             id="path4849"
             d=""
             style="stroke:none" />
        </symbol>
        <symbol
           id="textext-497cf8e2-1"
           overflow="visible"
           style="overflow:visible">
          <path
             id="path4852"
             d="m 0.875,-0.59375 c -0.03125,0.15625 -0.09375,0.390625 -0.09375,0.4375 0,0.171875 0.140625,0.265625 0.296875,0.265625 0.125,0 0.296875,-0.078125 0.375,-0.28125 0,-0.015625 0.125,-0.484375 0.1875,-0.734375 l 0.21875,-0.890625 C 1.90625,-2.03125 1.96875,-2.25 2.03125,-2.46875 c 0.03125,-0.171875 0.109375,-0.46875 0.125,-0.5 0.140625,-0.3125 0.671875,-1.21875 1.625,-1.21875 0.453125,0 0.53125,0.375 0.53125,0.703125 0,0.609375 -0.484375,1.890625 -0.640625,2.3125 C 3.578125,-0.9375 3.5625,-0.8125 3.5625,-0.703125 c 0,0.46875 0.359375,0.8125 0.828125,0.8125 0.9375,0 1.296875,-1.453125 1.296875,-1.53125 0,-0.109375 -0.078125,-0.109375 -0.109375,-0.109375 -0.109375,0 -0.109375,0.03125 -0.15625,0.1875 -0.203125,0.671875 -0.53125,1.234375 -1.015625,1.234375 -0.171875,0 -0.234375,-0.09375 -0.234375,-0.328125 0,-0.25 0.078125,-0.484375 0.171875,-0.703125 0.1875,-0.53125 0.609375,-1.625 0.609375,-2.203125 0,-0.65625 -0.421875,-1.0625 -1.140625,-1.0625 -0.90625,0 -1.390625,0.640625 -1.5625,0.875 -0.046875,-0.5625 -0.453125,-0.875 -0.921875,-0.875 -0.453125,0 -0.640625,0.390625 -0.734375,0.5625 C 0.421875,-3.5 0.296875,-2.90625 0.296875,-2.875 c 0,0.109375 0.09375,0.109375 0.109375,0.109375 0.109375,0 0.109375,-0.015625 0.171875,-0.234375 0.171875,-0.703125 0.375,-1.1875 0.734375,-1.1875 0.1875,0 0.296875,0.125 0.296875,0.453125 0,0.21875 -0.03125,0.328125 -0.15625,0.84375 L 0.875,-0.59375 z m 0,0"
             style="stroke:none" />
        </symbol>
        <symbol
           id="textext-497cf8e2-2"
           overflow="visible"
           style="overflow:visible">
          <path
             id="path4855"
             d=""
             style="stroke:none" />
        </symbol>
        <symbol
           id="textext-497cf8e2-3"
           overflow="visible"
           style="overflow:visible">
          <path
             id="path4858"
             d="m 6.84375,-3.265625 c 0.15625,0 0.34375,0 0.34375,-0.1875 C 7.1875,-3.65625 7,-3.65625 6.859375,-3.65625 l -5.96875,0 c -0.140625,0 -0.328125,0 -0.328125,0.203125 0,0.1875 0.1875,0.1875 0.328125,0.1875 l 5.953125,0 z m 0.015625,1.9375 c 0.140625,0 0.328125,0 0.328125,-0.203125 0,-0.1875 -0.1875,-0.1875 -0.34375,-0.1875 l -5.953125,0 c -0.140625,0 -0.328125,0 -0.328125,0.1875 0,0.203125 0.1875,0.203125 0.328125,0.203125 l 5.96875,0 z m 0,0"
             style="stroke:none" />
        </symbol>
        <symbol
           id="textext-497cf8e2-4"
           overflow="visible"
           style="overflow:visible">
          <path
             id="path4861"
             d="m 4.578125,-3.1875 c 0,-0.796875 -0.046875,-1.59375 -0.390625,-2.328125 -0.453125,-0.96875 -1.28125,-1.125 -1.6875,-1.125 -0.609375,0 -1.328125,0.265625 -1.75,1.1875 -0.3125,0.6875 -0.359375,1.46875 -0.359375,2.265625 0,0.75 0.03125,1.640625 0.453125,2.40625 0.421875,0.796875 1.15625,1 1.640625,1 0.53125,0 1.296875,-0.203125 1.734375,-1.15625 0.3125,-0.6875 0.359375,-1.46875 0.359375,-2.25 z M 2.484375,0 C 2.09375,0 1.5,-0.25 1.328125,-1.203125 1.21875,-1.796875 1.21875,-2.71875 1.21875,-3.3125 c 0,-0.640625 0,-1.296875 0.078125,-1.828125 0.1875,-1.1875 0.9375,-1.28125 1.1875,-1.28125 0.328125,0 0.984375,0.1875 1.171875,1.171875 0.109375,0.5625 0.109375,1.3125 0.109375,1.9375 0,0.75 0,1.421875 -0.109375,2.0625 C 3.5,-0.296875 2.9375,0 2.484375,0 z m 0,0"
             style="stroke:none" />
        </symbol>
        <symbol
           id="textext-497cf8e2-5"
           overflow="visible"
           style="overflow:visible">
          <path
             id="path4864"
             d="m 1.90625,-3.765625 c 0,-0.296875 -0.234375,-0.53125 -0.515625,-0.53125 -0.296875,0 -0.53125,0.234375 -0.53125,0.53125 0,0.28125 0.234375,0.53125 0.53125,0.53125 0.28125,0 0.515625,-0.25 0.515625,-0.53125 z m 0,3.234375 c 0,-0.28125 -0.234375,-0.53125 -0.515625,-0.53125 -0.296875,0 -0.53125,0.25 -0.53125,0.53125 C 0.859375,-0.234375 1.09375,0 1.390625,0 1.671875,0 1.90625,-0.234375 1.90625,-0.53125 z m 0,0"
             style="stroke:none" />
        </symbol>
        <symbol
           id="textext-497cf8e2-6"
           overflow="visible"
           style="overflow:visible">
          <path
             id="path4867"
             d="m 2.9375,-6.375 c 0,-0.25 0,-0.265625 -0.234375,-0.265625 C 2.078125,-6 1.203125,-6 0.890625,-6 l 0,0.3125 c 0.203125,0 0.78125,0 1.296875,-0.265625 l 0,5.171875 c 0,0.359375 -0.03125,0.46875 -0.921875,0.46875 l -0.3125,0 0,0.3125 c 0.34375,-0.03125 1.203125,-0.03125 1.609375,-0.03125 0.390625,0 1.265625,0 1.609375,0.03125 l 0,-0.3125 -0.3125,0 c -0.90625,0 -0.921875,-0.109375 -0.921875,-0.46875 l 0,-5.59375 z m 0,0"
             style="stroke:none" />
        </symbol>
        <symbol
           id="textext-497cf8e2-7"
           overflow="visible"
           style="overflow:visible">
          <path
             id="path4870"
             d="m 1.265625,-0.765625 1.0625,-1.03125 c 1.546875,-1.375 2.140625,-1.90625 2.140625,-2.90625 0,-1.140625 -0.890625,-1.9375 -2.109375,-1.9375 -1.125,0 -1.859375,0.921875 -1.859375,1.8125 0,0.546875 0.5,0.546875 0.53125,0.546875 0.171875,0 0.515625,-0.109375 0.515625,-0.53125 0,-0.25 -0.1875,-0.515625 -0.53125,-0.515625 -0.078125,0 -0.09375,0 -0.125,0.015625 0.21875,-0.65625 0.765625,-1.015625 1.34375,-1.015625 0.90625,0 1.328125,0.8125 1.328125,1.625 C 3.5625,-3.90625 3.078125,-3.125 2.515625,-2.5 l -1.90625,2.125 C 0.5,-0.265625 0.5,-0.234375 0.5,0 l 3.703125,0 0.265625,-1.734375 -0.234375,0 C 4.171875,-1.4375 4.109375,-1 4,-0.84375 3.9375,-0.765625 3.28125,-0.765625 3.0625,-0.765625 l -1.796875,0 z m 0,0"
             style="stroke:none" />
        </symbol>
        <symbol
           id="textext-497cf8e2-8"
           overflow="visible"
           style="overflow:visible">
          <path
             id="path4873"
             d="m 2.890625,-3.515625 c 0.8125,-0.265625 1.390625,-0.953125 1.390625,-1.75 0,-0.8125 -0.875,-1.375 -1.828125,-1.375 -1,0 -1.765625,0.59375 -1.765625,1.359375 0,0.328125 0.21875,0.515625 0.515625,0.515625 0.296875,0 0.5,-0.21875 0.5,-0.515625 0,-0.484375 -0.46875,-0.484375 -0.609375,-0.484375 0.296875,-0.5 0.953125,-0.625 1.3125,-0.625 0.421875,0 0.96875,0.21875 0.96875,1.109375 0,0.125 -0.03125,0.703125 -0.28125,1.140625 C 2.796875,-3.65625 2.453125,-3.625 2.203125,-3.625 2.125,-3.609375 1.890625,-3.59375 1.8125,-3.59375 c -0.078125,0.015625 -0.140625,0.03125 -0.140625,0.125 0,0.109375 0.0625,0.109375 0.234375,0.109375 l 0.4375,0 c 0.8125,0 1.1875,0.671875 1.1875,1.65625 0,1.359375 -0.6875,1.640625 -1.125,1.640625 -0.4375,0 -1.1875,-0.171875 -1.53125,-0.75 0.34375,0.046875 0.65625,-0.171875 0.65625,-0.546875 0,-0.359375 -0.265625,-0.5625 -0.546875,-0.5625 -0.25,0 -0.5625,0.140625 -0.5625,0.578125 0,0.90625 0.921875,1.5625 2.015625,1.5625 1.21875,0 2.125,-0.90625 2.125,-1.921875 0,-0.8125 -0.640625,-1.59375 -1.671875,-1.8125 z m 0,0"
             style="stroke:none" />
        </symbol>
        <symbol
           id="textext-497cf8e2-9"
           overflow="visible"
           style="overflow:visible">
          <path
             id="path4876"
             d="m 2.9375,-1.640625 0,0.859375 c 0,0.359375 -0.03125,0.46875 -0.765625,0.46875 l -0.203125,0 0,0.3125 C 2.375,-0.03125 2.890625,-0.03125 3.3125,-0.03125 c 0.421875,0 0.9375,0 1.359375,0.03125 l 0,-0.3125 -0.21875,0 c -0.734375,0 -0.75,-0.109375 -0.75,-0.46875 l 0,-0.859375 0.984375,0 0,-0.3125 -0.984375,0 0,-4.53125 c 0,-0.203125 0,-0.265625 -0.171875,-0.265625 -0.078125,0 -0.109375,0 -0.1875,0.125 l -3.0625,4.671875 0,0.3125 2.65625,0 z m 0.046875,-0.3125 -2.421875,0 2.421875,-3.71875 0,3.71875 z m 0,0"
             style="stroke:none" />
        </symbol>
        <symbol
           id="textext-497cf8e2-10"
           overflow="visible"
           style="overflow:visible">
          <path
             id="path4879"
             d="m 1.3125,-3.265625 0,-0.25 c 0,-2.515625 1.234375,-2.875 1.75,-2.875 0.234375,0 0.65625,0.0625 0.875,0.40625 -0.15625,0 -0.546875,0 -0.546875,0.4375 0,0.3125 0.234375,0.46875 0.453125,0.46875 0.15625,0 0.46875,-0.09375 0.46875,-0.484375 0,-0.59375 -0.4375,-1.078125 -1.265625,-1.078125 -1.28125,0 -2.625,1.28125 -2.625,3.484375 0,2.671875 1.15625,3.375 2.078125,3.375 1.109375,0 2.0625,-0.9375 2.0625,-2.25 0,-1.265625 -0.890625,-2.21875 -2,-2.21875 -0.671875,0 -1.046875,0.5 -1.25,0.984375 z M 2.5,-0.0625 c -0.625,0 -0.921875,-0.59375 -0.984375,-0.75 -0.1875,-0.46875 -0.1875,-1.265625 -0.1875,-1.4375 0,-0.78125 0.328125,-1.78125 1.21875,-1.78125 0.171875,0 0.625,0 0.9375,0.625 0.171875,0.359375 0.171875,0.875 0.171875,1.359375 0,0.484375 0,0.984375 -0.171875,1.34375 C 3.1875,-0.109375 2.734375,-0.0625 2.5,-0.0625 z m 0,0"
             style="stroke:none" />
        </symbol>
        <symbol
           id="textext-497cf8e2-11"
           overflow="visible"
           style="overflow:visible">
          <path
             id="path4882"
             d="m 4.46875,-2 c 0,-1.1875 -0.8125,-2.1875 -1.890625,-2.1875 -0.46875,0 -0.90625,0.15625 -1.265625,0.515625 l 0,-1.953125 c 0.203125,0.0625 0.53125,0.125 0.84375,0.125 1.234375,0 1.9375,-0.90625 1.9375,-1.03125 0,-0.0625 -0.03125,-0.109375 -0.109375,-0.109375 0,0 -0.03125,0 -0.078125,0.03125 C 3.703125,-6.515625 3.21875,-6.3125 2.546875,-6.3125 2.15625,-6.3125 1.6875,-6.390625 1.21875,-6.59375 1.140625,-6.625 1.125,-6.625 1.109375,-6.625 1,-6.625 1,-6.546875 1,-6.390625 L 1,-3.4375 c 0,0.171875 0,0.25 0.140625,0.25 0.078125,0 0.09375,-0.015625 0.140625,-0.078125 C 1.390625,-3.421875 1.75,-3.96875 2.5625,-3.96875 c 0.515625,0 0.765625,0.453125 0.84375,0.640625 0.15625,0.375 0.1875,0.75 0.1875,1.25 0,0.359375 0,0.953125 -0.25,1.375 C 3.109375,-0.3125 2.734375,-0.0625 2.28125,-0.0625 c -0.71875,0 -1.296875,-0.53125 -1.46875,-1.109375 0.03125,0 0.0625,0.015625 0.171875,0.015625 0.328125,0 0.5,-0.25 0.5,-0.484375 0,-0.25 -0.171875,-0.5 -0.5,-0.5 C 0.84375,-2.140625 0.5,-2.0625 0.5,-1.609375 0.5,-0.75 1.1875,0.21875 2.296875,0.21875 3.453125,0.21875 4.46875,-0.734375 4.46875,-2 z m 0,0"
             style="stroke:none" />
        </symbol>
      </g>
    </defs>
    <defs
       id="defs6822">
      <g
         id="g6824">
        <symbol
           style="overflow:visible"
           overflow="visible"
           id="textext-e2305e3f-0">
          <path
             style="stroke:none"
             d=""
             id="path6827" />
        </symbol>
        <symbol
           style="overflow:visible"
           overflow="visible"
           id="textext-e2305e3f-1">
          <path
             style="stroke:none"
             d="m 0.875,-0.59375 c -0.03125,0.15625 -0.09375,0.390625 -0.09375,0.4375 0,0.171875 0.140625,0.265625 0.296875,0.265625 0.125,0 0.296875,-0.078125 0.375,-0.28125 0,-0.015625 0.125,-0.484375 0.1875,-0.734375 l 0.21875,-0.890625 C 1.90625,-2.03125 1.96875,-2.25 2.03125,-2.46875 c 0.03125,-0.171875 0.109375,-0.46875 0.125,-0.5 0.140625,-0.3125 0.671875,-1.21875 1.625,-1.21875 0.453125,0 0.53125,0.375 0.53125,0.703125 0,0.609375 -0.484375,1.890625 -0.640625,2.3125 C 3.578125,-0.9375 3.5625,-0.8125 3.5625,-0.703125 c 0,0.46875 0.359375,0.8125 0.828125,0.8125 0.9375,0 1.296875,-1.453125 1.296875,-1.53125 0,-0.109375 -0.078125,-0.109375 -0.109375,-0.109375 -0.109375,0 -0.109375,0.03125 -0.15625,0.1875 -0.203125,0.671875 -0.53125,1.234375 -1.015625,1.234375 -0.171875,0 -0.234375,-0.09375 -0.234375,-0.328125 0,-0.25 0.078125,-0.484375 0.171875,-0.703125 0.1875,-0.53125 0.609375,-1.625 0.609375,-2.203125 0,-0.65625 -0.421875,-1.0625 -1.140625,-1.0625 -0.90625,0 -1.390625,0.640625 -1.5625,0.875 -0.046875,-0.5625 -0.453125,-0.875 -0.921875,-0.875 -0.453125,0 -0.640625,0.390625 -0.734375,0.5625 C 0.421875,-3.5 0.296875,-2.90625 0.296875,-2.875 c 0,0.109375 0.09375,0.109375 0.109375,0.109375 0.109375,0 0.109375,-0.015625 0.171875,-0.234375 0.171875,-0.703125 0.375,-1.1875 0.734375,-1.1875 0.1875,0 0.296875,0.125 0.296875,0.453125 0,0.21875 -0.03125,0.328125 -0.15625,0.84375 L 0.875,-0.59375 z m 0,0"
             id="path6830" />
        </symbol>
        <symbol
           style="overflow:visible"
           overflow="visible"
           id="textext-e2305e3f-2">
          <path
             style="stroke:none"
             d=""
             id="path6833" />
        </symbol>
        <symbol
           style="overflow:visible"
           overflow="visible"
           id="textext-e2305e3f-3">
          <path
             style="stroke:none"
             d="m 6.84375,-3.265625 c 0.15625,0 0.34375,0 0.34375,-0.1875 C 7.1875,-3.65625 7,-3.65625 6.859375,-3.65625 l -5.96875,0 c -0.140625,0 -0.328125,0 -0.328125,0.203125 0,0.1875 0.1875,0.1875 0.328125,0.1875 l 5.953125,0 z m 0.015625,1.9375 c 0.140625,0 0.328125,0 0.328125,-0.203125 0,-0.1875 -0.1875,-0.1875 -0.34375,-0.1875 l -5.953125,0 c -0.140625,0 -0.328125,0 -0.328125,0.1875 0,0.203125 0.1875,0.203125 0.328125,0.203125 l 5.96875,0 z m 0,0"
             id="path6836" />
        </symbol>
        <symbol
           style="overflow:visible"
           overflow="visible"
           id="textext-e2305e3f-4">
          <path
             style="stroke:none"
             d="m 4.578125,-3.1875 c 0,-0.796875 -0.046875,-1.59375 -0.390625,-2.328125 -0.453125,-0.96875 -1.28125,-1.125 -1.6875,-1.125 -0.609375,0 -1.328125,0.265625 -1.75,1.1875 -0.3125,0.6875 -0.359375,1.46875 -0.359375,2.265625 0,0.75 0.03125,1.640625 0.453125,2.40625 0.421875,0.796875 1.15625,1 1.640625,1 0.53125,0 1.296875,-0.203125 1.734375,-1.15625 0.3125,-0.6875 0.359375,-1.46875 0.359375,-2.25 z M 2.484375,0 C 2.09375,0 1.5,-0.25 1.328125,-1.203125 1.21875,-1.796875 1.21875,-2.71875 1.21875,-3.3125 c 0,-0.640625 0,-1.296875 0.078125,-1.828125 0.1875,-1.1875 0.9375,-1.28125 1.1875,-1.28125 0.328125,0 0.984375,0.1875 1.171875,1.171875 0.109375,0.5625 0.109375,1.3125 0.109375,1.9375 0,0.75 0,1.421875 -0.109375,2.0625 C 3.5,-0.296875 2.9375,0 2.484375,0 z m 0,0"
             id="path6839" />
        </symbol>
        <symbol
           style="overflow:visible"
           overflow="visible"
           id="textext-e2305e3f-5">
          <path
             style="stroke:none"
             d="m 1.90625,-3.765625 c 0,-0.296875 -0.234375,-0.53125 -0.515625,-0.53125 -0.296875,0 -0.53125,0.234375 -0.53125,0.53125 0,0.28125 0.234375,0.53125 0.53125,0.53125 0.28125,0 0.515625,-0.25 0.515625,-0.53125 z m 0,3.234375 c 0,-0.28125 -0.234375,-0.53125 -0.515625,-0.53125 -0.296875,0 -0.53125,0.25 -0.53125,0.53125 C 0.859375,-0.234375 1.09375,0 1.390625,0 1.671875,0 1.90625,-0.234375 1.90625,-0.53125 z m 0,0"
             id="path6842" />
        </symbol>
        <symbol
           style="overflow:visible"
           overflow="visible"
           id="textext-e2305e3f-6">
          <path
             style="stroke:none"
             d="m 2.9375,-6.375 c 0,-0.25 0,-0.265625 -0.234375,-0.265625 C 2.078125,-6 1.203125,-6 0.890625,-6 l 0,0.3125 c 0.203125,0 0.78125,0 1.296875,-0.265625 l 0,5.171875 c 0,0.359375 -0.03125,0.46875 -0.921875,0.46875 l -0.3125,0 0,0.3125 c 0.34375,-0.03125 1.203125,-0.03125 1.609375,-0.03125 0.390625,0 1.265625,0 1.609375,0.03125 l 0,-0.3125 -0.3125,0 c -0.90625,0 -0.921875,-0.109375 -0.921875,-0.46875 l 0,-5.59375 z m 0,0"
             id="path6845" />
        </symbol>
        <symbol
           style="overflow:visible"
           overflow="visible"
           id="textext-e2305e3f-7">
          <path
             style="stroke:none"
             d="m 1.265625,-0.765625 1.0625,-1.03125 c 1.546875,-1.375 2.140625,-1.90625 2.140625,-2.90625 0,-1.140625 -0.890625,-1.9375 -2.109375,-1.9375 -1.125,0 -1.859375,0.921875 -1.859375,1.8125 0,0.546875 0.5,0.546875 0.53125,0.546875 0.171875,0 0.515625,-0.109375 0.515625,-0.53125 0,-0.25 -0.1875,-0.515625 -0.53125,-0.515625 -0.078125,0 -0.09375,0 -0.125,0.015625 0.21875,-0.65625 0.765625,-1.015625 1.34375,-1.015625 0.90625,0 1.328125,0.8125 1.328125,1.625 C 3.5625,-3.90625 3.078125,-3.125 2.515625,-2.5 l -1.90625,2.125 C 0.5,-0.265625 0.5,-0.234375 0.5,0 l 3.703125,0 0.265625,-1.734375 -0.234375,0 C 4.171875,-1.4375 4.109375,-1 4,-0.84375 3.9375,-0.765625 3.28125,-0.765625 3.0625,-0.765625 l -1.796875,0 z m 0,0"
             id="path6848" />
        </symbol>
        <symbol
           style="overflow:visible"
           overflow="visible"
           id="textext-e2305e3f-8">
          <path
             style="stroke:none"
             d="m 2.890625,-3.515625 c 0.8125,-0.265625 1.390625,-0.953125 1.390625,-1.75 0,-0.8125 -0.875,-1.375 -1.828125,-1.375 -1,0 -1.765625,0.59375 -1.765625,1.359375 0,0.328125 0.21875,0.515625 0.515625,0.515625 0.296875,0 0.5,-0.21875 0.5,-0.515625 0,-0.484375 -0.46875,-0.484375 -0.609375,-0.484375 0.296875,-0.5 0.953125,-0.625 1.3125,-0.625 0.421875,0 0.96875,0.21875 0.96875,1.109375 0,0.125 -0.03125,0.703125 -0.28125,1.140625 C 2.796875,-3.65625 2.453125,-3.625 2.203125,-3.625 2.125,-3.609375 1.890625,-3.59375 1.8125,-3.59375 c -0.078125,0.015625 -0.140625,0.03125 -0.140625,0.125 0,0.109375 0.0625,0.109375 0.234375,0.109375 l 0.4375,0 c 0.8125,0 1.1875,0.671875 1.1875,1.65625 0,1.359375 -0.6875,1.640625 -1.125,1.640625 -0.4375,0 -1.1875,-0.171875 -1.53125,-0.75 0.34375,0.046875 0.65625,-0.171875 0.65625,-0.546875 0,-0.359375 -0.265625,-0.5625 -0.546875,-0.5625 -0.25,0 -0.5625,0.140625 -0.5625,0.578125 0,0.90625 0.921875,1.5625 2.015625,1.5625 1.21875,0 2.125,-0.90625 2.125,-1.921875 0,-0.8125 -0.640625,-1.59375 -1.671875,-1.8125 z m 0,0"
             id="path6851" />
        </symbol>
        <symbol
           style="overflow:visible"
           overflow="visible"
           id="textext-e2305e3f-9">
          <path
             style="stroke:none"
             d="m 2.9375,-1.640625 0,0.859375 c 0,0.359375 -0.03125,0.46875 -0.765625,0.46875 l -0.203125,0 0,0.3125 C 2.375,-0.03125 2.890625,-0.03125 3.3125,-0.03125 c 0.421875,0 0.9375,0 1.359375,0.03125 l 0,-0.3125 -0.21875,0 c -0.734375,0 -0.75,-0.109375 -0.75,-0.46875 l 0,-0.859375 0.984375,0 0,-0.3125 -0.984375,0 0,-4.53125 c 0,-0.203125 0,-0.265625 -0.171875,-0.265625 -0.078125,0 -0.109375,0 -0.1875,0.125 l -3.0625,4.671875 0,0.3125 2.65625,0 z m 0.046875,-0.3125 -2.421875,0 2.421875,-3.71875 0,3.71875 z m 0,0"
             id="path6854" />
        </symbol>
        <symbol
           style="overflow:visible"
           overflow="visible"
           id="textext-e2305e3f-10">
          <path
             style="stroke:none"
             d="m 1.3125,-3.265625 0,-0.25 c 0,-2.515625 1.234375,-2.875 1.75,-2.875 0.234375,0 0.65625,0.0625 0.875,0.40625 -0.15625,0 -0.546875,0 -0.546875,0.4375 0,0.3125 0.234375,0.46875 0.453125,0.46875 0.15625,0 0.46875,-0.09375 0.46875,-0.484375 0,-0.59375 -0.4375,-1.078125 -1.265625,-1.078125 -1.28125,0 -2.625,1.28125 -2.625,3.484375 0,2.671875 1.15625,3.375 2.078125,3.375 1.109375,0 2.0625,-0.9375 2.0625,-2.25 0,-1.265625 -0.890625,-2.21875 -2,-2.21875 -0.671875,0 -1.046875,0.5 -1.25,0.984375 z M 2.5,-0.0625 c -0.625,0 -0.921875,-0.59375 -0.984375,-0.75 -0.1875,-0.46875 -0.1875,-1.265625 -0.1875,-1.4375 0,-0.78125 0.328125,-1.78125 1.21875,-1.78125 0.171875,0 0.625,0 0.9375,0.625 0.171875,0.359375 0.171875,0.875 0.171875,1.359375 0,0.484375 0,0.984375 -0.171875,1.34375 C 3.1875,-0.109375 2.734375,-0.0625 2.5,-0.0625 z m 0,0"
             id="path6857" />
        </symbol>
        <symbol
           style="overflow:visible"
           overflow="visible"
           id="textext-e2305e3f-11">
          <path
             style="stroke:none"
             d="m 4.46875,-2 c 0,-1.1875 -0.8125,-2.1875 -1.890625,-2.1875 -0.46875,0 -0.90625,0.15625 -1.265625,0.515625 l 0,-1.953125 c 0.203125,0.0625 0.53125,0.125 0.84375,0.125 1.234375,0 1.9375,-0.90625 1.9375,-1.03125 0,-0.0625 -0.03125,-0.109375 -0.109375,-0.109375 0,0 -0.03125,0 -0.078125,0.03125 C 3.703125,-6.515625 3.21875,-6.3125 2.546875,-6.3125 2.15625,-6.3125 1.6875,-6.390625 1.21875,-6.59375 1.140625,-6.625 1.125,-6.625 1.109375,-6.625 1,-6.625 1,-6.546875 1,-6.390625 L 1,-3.4375 c 0,0.171875 0,0.25 0.140625,0.25 0.078125,0 0.09375,-0.015625 0.140625,-0.078125 C 1.390625,-3.421875 1.75,-3.96875 2.5625,-3.96875 c 0.515625,0 0.765625,0.453125 0.84375,0.640625 0.15625,0.375 0.1875,0.75 0.1875,1.25 0,0.359375 0,0.953125 -0.25,1.375 C 3.109375,-0.3125 2.734375,-0.0625 2.28125,-0.0625 c -0.71875,0 -1.296875,-0.53125 -1.46875,-1.109375 0.03125,0 0.0625,0.015625 0.171875,0.015625 0.328125,0 0.5,-0.25 0.5,-0.484375 0,-0.25 -0.171875,-0.5 -0.5,-0.5 C 0.84375,-2.140625 0.5,-2.0625 0.5,-1.609375 0.5,-0.75 1.1875,0.21875 2.296875,0.21875 3.453125,0.21875 4.46875,-0.734375 4.46875,-2 z m 0,0"
             id="path6860" />
        </symbol>
      </g>
    </defs>
    <defs
       id="defs3284">
      <g
         id="g3286">
        <symbol
           id="textext-21a9117b-0"
           overflow="visible"
           style="overflow:visible">
          <path
             id="path3289"
             d=""
             style="stroke:none" />
        </symbol>
        <symbol
           id="textext-21a9117b-1"
           overflow="visible"
           style="overflow:visible">
          <path
             id="path3292"
             d="M 2.46875,-3.5 C 2.484375,-3.578125 2.78125,-4.171875 3.234375,-4.546875 3.53125,-4.84375 3.9375,-5.03125 4.40625,-5.03125 c 0.484375,0 0.65625,0.359375 0.65625,0.828125 0,0.6875 -0.5,2.046875 -0.734375,2.703125 -0.109375,0.28125 -0.171875,0.4375 -0.171875,0.65625 0,0.53125 0.375,0.96875 0.953125,0.96875 1.109375,0 1.53125,-1.765625 1.53125,-1.828125 0,-0.0625 -0.046875,-0.109375 -0.125,-0.109375 -0.109375,0 -0.125,0.03125 -0.1875,0.234375 C 6.0625,-0.59375 5.609375,-0.125 5.140625,-0.125 c -0.125,0 -0.3125,0 -0.3125,-0.390625 0,-0.296875 0.125,-0.65625 0.203125,-0.828125 C 5.265625,-2 5.765625,-3.328125 5.765625,-4.015625 c 0,-0.71875 -0.40625,-1.25 -1.3125,-1.25 -1.078125,0 -1.625,0.75 -1.84375,1.046875 -0.046875,-0.6875 -0.53125,-1.046875 -1.0625,-1.046875 -0.375,0 -0.640625,0.21875 -0.84375,0.625 -0.21875,0.4375 -0.375,1.15625 -0.375,1.203125 0,0.046875 0.046875,0.109375 0.125,0.109375 0.09375,0 0.109375,-0.015625 0.1875,-0.296875 0.1875,-0.71875 0.40625,-1.40625 0.875,-1.40625 0.28125,0 0.375,0.1875 0.375,0.546875 0,0.265625 -0.125,0.734375 -0.203125,1.109375 l -0.34375,1.28125 c -0.046875,0.234375 -0.171875,0.765625 -0.234375,0.984375 -0.078125,0.3125 -0.21875,0.875 -0.21875,0.9375 0,0.15625 0.140625,0.296875 0.3125,0.296875 0.140625,0 0.3125,-0.078125 0.40625,-0.25 C 1.640625,-0.1875 1.75,-0.609375 1.8125,-0.84375 L 2.0625,-1.921875 2.46875,-3.5 z m 0,0"
             style="stroke:none" />
        </symbol>
        <symbol
           id="textext-21a9117b-2"
           overflow="visible"
           style="overflow:visible">
          <path
             id="path3295"
             d=""
             style="stroke:none" />
        </symbol>
        <symbol
           id="textext-21a9117b-3"
           overflow="visible"
           style="overflow:visible">
          <path
             id="path3298"
             d="m 8.0625,-3.875 c 0.171875,0 0.390625,0 0.390625,-0.21875 C 8.453125,-4.3125 8.25,-4.3125 8.0625,-4.3125 l -7.03125,0 c -0.171875,0 -0.390625,0 -0.390625,0.21875 0,0.21875 0.203125,0.21875 0.390625,0.21875 l 7.03125,0 z m 0,2.21875 c 0.171875,0 0.390625,0 0.390625,-0.203125 C 8.453125,-2.09375 8.25,-2.09375 8.0625,-2.09375 l -7.03125,0 c -0.171875,0 -0.390625,0 -0.390625,0.21875 0,0.21875 0.203125,0.21875 0.390625,0.21875 l 7.03125,0 z m 0,0"
             style="stroke:none" />
        </symbol>
        <symbol
           id="textext-21a9117b-4"
           overflow="visible"
           style="overflow:visible">
          <path
             id="path3301"
             d="m 5.359375,-3.828125 c 0,-0.984375 -0.0625,-1.953125 -0.5,-2.859375 -0.484375,-1 -1.34375,-1.265625 -1.9375,-1.265625 -0.6875,0 -1.53125,0.34375 -1.984375,1.34375 -0.328125,0.75 -0.453125,1.5 -0.453125,2.78125 0,1.15625 0.09375,2.03125 0.515625,2.890625 0.46875,0.90625 1.296875,1.1875 1.921875,1.1875 1.03125,0 1.625,-0.625 1.984375,-1.3125 0.421875,-0.890625 0.453125,-2.0625 0.453125,-2.765625 z m -2.4375,3.84375 C 2.53125,0.015625 1.75,-0.203125 1.53125,-1.5 c -0.125,-0.71875 -0.125,-1.625 -0.125,-2.46875 0,-0.984375 0,-1.859375 0.1875,-2.5625 0.203125,-0.8125 0.8125,-1.171875 1.328125,-1.171875 0.453125,0 1.140625,0.265625 1.375,1.296875 0.15625,0.6875 0.15625,1.625 0.15625,2.4375 0,0.796875 0,1.703125 -0.140625,2.4375 -0.21875,1.3125 -0.984375,1.546875 -1.390625,1.546875 z m 0,0"
             style="stroke:none" />
        </symbol>
        <symbol
           id="textext-21a9117b-5"
           overflow="visible"
           style="overflow:visible">
          <path
             id="path3304"
             d="m 2.203125,-4.578125 c 0,-0.328125 -0.28125,-0.578125 -0.578125,-0.578125 -0.34375,0 -0.578125,0.28125 -0.578125,0.578125 C 1.046875,-4.21875 1.34375,-4 1.609375,-4 1.9375,-4 2.203125,-4.25 2.203125,-4.578125 z m 0,4 c 0,-0.328125 -0.28125,-0.578125 -0.578125,-0.578125 -0.34375,0 -0.578125,0.265625 -0.578125,0.578125 C 1.046875,-0.234375 1.34375,0 1.609375,0 1.9375,0 2.203125,-0.25 2.203125,-0.578125 z m 0,0"
             style="stroke:none" />
        </symbol>
        <symbol
           id="textext-21a9117b-6"
           overflow="visible"
           style="overflow:visible">
          <path
             id="path3307"
             d="m 3.4375,-7.65625 c 0,-0.28125 0,-0.296875 -0.234375,-0.296875 C 2.921875,-7.625 2.3125,-7.1875 1.09375,-7.1875 l 0,0.34375 c 0.265625,0 0.859375,0 1.53125,-0.296875 l 0,6.21875 c 0,0.4375 -0.046875,0.578125 -1.09375,0.578125 l -0.375,0 0,0.34375 c 0.328125,-0.03125 1.484375,-0.03125 1.875,-0.03125 0.40625,0 1.546875,0 1.875,0.03125 l 0,-0.34375 -0.375,0 c -1.046875,0 -1.09375,-0.140625 -1.09375,-0.578125 l 0,-6.734375 z m 0,0"
             style="stroke:none" />
        </symbol>
        <symbol
           id="textext-21a9117b-7"
           overflow="visible"
           style="overflow:visible">
          <path
             id="path3310"
             d="m 5.265625,-2.015625 -0.265625,0 c -0.046875,0.203125 -0.140625,0.875 -0.25,1.0625 C 4.65625,-0.84375 3.984375,-0.84375 3.625,-0.84375 l -2.21875,0 c 0.328125,-0.28125 1.0625,-1.046875 1.359375,-1.328125 1.828125,-1.671875 2.5,-2.296875 2.5,-3.484375 0,-1.375 -1.09375,-2.296875 -2.484375,-2.296875 -1.375,0 -2.203125,1.1875 -2.203125,2.21875 0,0.609375 0.53125,0.609375 0.5625,0.609375 0.265625,0 0.5625,-0.1875 0.5625,-0.5625 0,-0.34375 -0.21875,-0.5625 -0.5625,-0.5625 -0.09375,0 -0.125,0 -0.15625,0.015625 0.21875,-0.8125 0.875,-1.375 1.640625,-1.375 1.015625,0 1.640625,0.859375 1.640625,1.953125 C 4.265625,-4.640625 3.6875,-3.75 3,-2.984375 l -2.421875,2.703125 0,0.28125 4.375,0 0.3125,-2.015625 z m 0,0"
             style="stroke:none" />
        </symbol>
        <symbol
           id="textext-21a9117b-8"
           overflow="visible"
           style="overflow:visible">
          <path
             id="path3313"
             d="m 2.203125,-4.296875 c -0.203125,0.015625 -0.25,0.03125 -0.25,0.140625 0,0.109375 0.0625,0.109375 0.265625,0.109375 l 0.546875,0 c 1.03125,0 1.484375,0.84375 1.484375,1.984375 0,1.578125 -0.8125,1.984375 -1.40625,1.984375 -0.578125,0 -1.546875,-0.265625 -1.90625,-1.0625 0.390625,0.0625 0.734375,-0.15625 0.734375,-0.578125 0,-0.34375 -0.25,-0.59375 -0.578125,-0.59375 -0.296875,0 -0.609375,0.171875 -0.609375,0.625 0,1.0625 1.0625,1.9375 2.390625,1.9375 1.421875,0 2.484375,-1.09375 2.484375,-2.296875 C 5.359375,-3.140625 4.46875,-4 3.328125,-4.203125 4.359375,-4.5 5.03125,-5.375 5.03125,-6.3125 c 0,-0.9375 -0.984375,-1.640625 -2.140625,-1.640625 -1.1875,0 -2.078125,0.734375 -2.078125,1.609375 0,0.46875 0.375,0.578125 0.546875,0.578125 0.25,0 0.546875,-0.1875 0.546875,-0.546875 0,-0.375 -0.296875,-0.546875 -0.5625,-0.546875 -0.0625,0 -0.09375,0 -0.125,0.015625 0.453125,-0.8125 1.578125,-0.8125 1.640625,-0.8125 0.390625,0 1.171875,0.171875 1.171875,1.34375 0,0.234375 -0.03125,0.890625 -0.390625,1.40625 C 3.28125,-4.375 2.875,-4.34375 2.5625,-4.328125 l -0.359375,0.03125 z m 0,0"
             style="stroke:none" />
        </symbol>
        <symbol
           id="textext-21a9117b-9"
           overflow="visible"
           style="overflow:visible">
          <path
             id="path3316"
             d="m 4.3125,-7.78125 c 0,-0.234375 0,-0.28125 -0.171875,-0.28125 -0.09375,0 -0.125,0 -0.21875,0.140625 l -3.59375,5.578125 0,0.34375 3.140625,0 0,1.09375 c 0,0.4375 -0.03125,0.5625 -0.90625,0.5625 l -0.234375,0 0,0.34375 c 0.28125,-0.03125 1.21875,-0.03125 1.5625,-0.03125 0.328125,0 1.28125,0 1.5625,0.03125 l 0,-0.34375 -0.234375,0 c -0.875,0 -0.90625,-0.125 -0.90625,-0.5625 l 0,-1.09375 1.203125,0 0,-0.34375 -1.203125,0 0,-5.4375 z m -0.78125,0.9375 0,4.5 -2.90625,0 2.90625,-4.5 z m 0,0"
             style="stroke:none" />
        </symbol>
        <symbol
           id="textext-21a9117b-10"
           overflow="visible"
           style="overflow:visible">
          <path
             id="path3319"
             d="m 1.46875,-4.15625 c 0,-3.03125 1.46875,-3.5 2.109375,-3.5 0.4375,0 0.875,0.125 1.09375,0.484375 -0.140625,0 -0.59375,0 -0.59375,0.484375 0,0.265625 0.171875,0.5 0.484375,0.5 0.296875,0 0.5,-0.1875 0.5,-0.53125 0,-0.625 -0.453125,-1.234375 -1.484375,-1.234375 -1.515625,0 -3.09375,1.546875 -3.09375,4.171875 0,3.296875 1.4375,4.03125 2.453125,4.03125 1.3125,0 2.421875,-1.140625 2.421875,-2.6875 0,-1.59375 -1.109375,-2.65625 -2.3125,-2.65625 -1.0625,0 -1.453125,0.921875 -1.578125,1.25 l 0,-0.3125 z m 1.46875,4.078125 c -0.75,0 -1.109375,-0.65625 -1.21875,-0.90625 C 1.609375,-1.296875 1.5,-1.890625 1.5,-2.71875 c 0,-0.953125 0.421875,-2.140625 1.5,-2.140625 0.65625,0 1,0.453125 1.1875,0.859375 0.1875,0.4375 0.1875,1.03125 0.1875,1.546875 0,0.609375 0,1.15625 -0.234375,1.609375 -0.296875,0.5625 -0.71875,0.765625 -1.203125,0.765625 z m 0,0"
             style="stroke:none" />
        </symbol>
        <symbol
           id="textext-21a9117b-11"
           overflow="visible"
           style="overflow:visible">
          <path
             id="path3322"
             d="m 1.53125,-6.84375 c 0.515625,0.15625 0.9375,0.171875 1.0625,0.171875 1.34375,0 2.21875,-0.984375 2.21875,-1.15625 0,-0.046875 -0.03125,-0.109375 -0.109375,-0.109375 -0.015625,0 -0.046875,0 -0.15625,0.046875 C 3.890625,-7.609375 3.3125,-7.5625 3,-7.5625 c -0.78125,0 -1.34375,-0.25 -1.578125,-0.34375 C 1.34375,-7.9375 1.3125,-7.9375 1.296875,-7.9375 c -0.09375,0 -0.09375,0.078125 -0.09375,0.265625 l 0,3.546875 c 0,0.21875 0,0.28125 0.140625,0.28125 0.0625,0 0.078125,0 0.203125,-0.15625 C 1.875,-4.484375 2.4375,-4.765625 3.03125,-4.765625 c 0.640625,0 0.953125,0.578125 1.046875,0.78125 0.203125,0.46875 0.21875,1.0625 0.21875,1.515625 0,0.453125 0,1.125 -0.34375,1.671875 -0.265625,0.421875 -0.71875,0.71875 -1.25,0.71875 -0.796875,0 -1.5625,-0.53125 -1.78125,-1.40625 0.0625,0.03125 0.125,0.03125 0.1875,0.03125 0.203125,0 0.53125,-0.109375 0.53125,-0.515625 0,-0.34375 -0.234375,-0.53125 -0.53125,-0.53125 -0.21875,0 -0.53125,0.109375 -0.53125,0.578125 0,1.015625 0.828125,2.171875 2.140625,2.171875 1.359375,0 2.546875,-1.140625 2.546875,-2.65625 0,-1.421875 -0.96875,-2.609375 -2.21875,-2.609375 -0.6875,0 -1.203125,0.3125 -1.515625,0.640625 l 0,-2.46875 z m 0,0"
             style="stroke:none" />
        </symbol>
      </g>
    </defs>
    <defs
       id="defs4471">
      <g
         id="g4473">
        <symbol
           style="overflow:visible"
           overflow="visible"
           id="textext-f86c3b07-0">
          <path
             style="stroke:none"
             d=""
             id="path4476" />
        </symbol>
        <symbol
           style="overflow:visible"
           overflow="visible"
           id="textext-f86c3b07-1">
          <path
             style="stroke:none"
             d="m 3.359375,-8 c 0.015625,-0.046875 0.03125,-0.109375 0.03125,-0.171875 0,-0.125 -0.109375,-0.125 -0.140625,-0.125 -0.015625,0 -0.4375,0.03125 -0.65625,0.0625 C 2.390625,-8.21875 2.21875,-8.203125 2,-8.1875 c -0.296875,0.03125 -0.375,0.03125 -0.375,0.25 0,0.125 0.125,0.125 0.234375,0.125 0.609375,0 0.609375,0.109375 0.609375,0.21875 0,0.046875 0,0.078125 -0.046875,0.296875 L 0.703125,-0.46875 C 0.65625,-0.28125 0.65625,-0.265625 0.65625,-0.1875 c 0,0.265625 0.203125,0.3125 0.328125,0.3125 0.328125,0 0.40625,-0.265625 0.5,-0.640625 L 2.046875,-2.75 c 0.859375,0.09375 1.375,0.453125 1.375,1.03125 0,0.0625 0,0.109375 -0.046875,0.296875 -0.046875,0.171875 -0.046875,0.328125 -0.046875,0.375 0,0.703125 0.46875,1.171875 1.078125,1.171875 0.546875,0 0.828125,-0.5 0.921875,-0.671875 0.25,-0.4375 0.40625,-1.109375 0.40625,-1.15625 0,-0.0625 -0.046875,-0.109375 -0.109375,-0.109375 -0.109375,0 -0.125,0.046875 -0.171875,0.234375 C 5.28125,-0.953125 5.03125,-0.125 4.421875,-0.125 4.1875,-0.125 4.03125,-0.234375 4.03125,-0.6875 c 0,-0.234375 0.046875,-0.5 0.09375,-0.671875 0.046875,-0.21875 0.046875,-0.234375 0.046875,-0.375 0,-0.703125 -0.640625,-1.09375 -1.734375,-1.234375 0.4375,-0.265625 0.859375,-0.734375 1.03125,-0.921875 0.671875,-0.765625 1.140625,-1.140625 1.6875,-1.140625 0.28125,0 0.359375,0.078125 0.4375,0.140625 -0.4375,0.046875 -0.609375,0.359375 -0.609375,0.59375 0,0.296875 0.234375,0.390625 0.390625,0.390625 0.328125,0 0.609375,-0.28125 0.609375,-0.65625 0,-0.34375 -0.265625,-0.703125 -0.8125,-0.703125 -0.65625,0 -1.1875,0.453125 -2.046875,1.421875 -0.109375,0.140625 -0.5625,0.59375 -1,0.765625 L 3.359375,-8 z m 0,0"
             id="path4479" />
        </symbol>
        <symbol
           style="overflow:visible"
           overflow="visible"
           id="textext-f86c3b07-2">
          <path
             style="stroke:none"
             d=""
             id="path4482" />
        </symbol>
        <symbol
           style="overflow:visible"
           overflow="visible"
           id="textext-f86c3b07-3">
          <path
             style="stroke:none"
             d="m 8.0625,-3.875 c 0.171875,0 0.390625,0 0.390625,-0.21875 C 8.453125,-4.3125 8.25,-4.3125 8.0625,-4.3125 l -7.03125,0 c -0.171875,0 -0.390625,0 -0.390625,0.21875 0,0.21875 0.203125,0.21875 0.390625,0.21875 l 7.03125,0 z m 0,2.21875 c 0.171875,0 0.390625,0 0.390625,-0.203125 C 8.453125,-2.09375 8.25,-2.09375 8.0625,-2.09375 l -7.03125,0 c -0.171875,0 -0.390625,0 -0.390625,0.21875 0,0.21875 0.203125,0.21875 0.390625,0.21875 l 7.03125,0 z m 0,0"
             id="path4485" />
        </symbol>
        <symbol
           style="overflow:visible"
           overflow="visible"
           id="textext-f86c3b07-4">
          <path
             style="stroke:none"
             d="m 5.359375,-3.828125 c 0,-0.984375 -0.0625,-1.953125 -0.5,-2.859375 -0.484375,-1 -1.34375,-1.265625 -1.9375,-1.265625 -0.6875,0 -1.53125,0.34375 -1.984375,1.34375 -0.328125,0.75 -0.453125,1.5 -0.453125,2.78125 0,1.15625 0.09375,2.03125 0.515625,2.890625 0.46875,0.90625 1.296875,1.1875 1.921875,1.1875 1.03125,0 1.625,-0.625 1.984375,-1.3125 0.421875,-0.890625 0.453125,-2.0625 0.453125,-2.765625 z m -2.4375,3.84375 C 2.53125,0.015625 1.75,-0.203125 1.53125,-1.5 c -0.125,-0.71875 -0.125,-1.625 -0.125,-2.46875 0,-0.984375 0,-1.859375 0.1875,-2.5625 0.203125,-0.8125 0.8125,-1.171875 1.328125,-1.171875 0.453125,0 1.140625,0.265625 1.375,1.296875 0.15625,0.6875 0.15625,1.625 0.15625,2.4375 0,0.796875 0,1.703125 -0.140625,2.4375 -0.21875,1.3125 -0.984375,1.546875 -1.390625,1.546875 z m 0,0"
             id="path4488" />
        </symbol>
        <symbol
           style="overflow:visible"
           overflow="visible"
           id="textext-f86c3b07-5">
          <path
             style="stroke:none"
             d="m 3.4375,-7.65625 c 0,-0.28125 0,-0.296875 -0.234375,-0.296875 C 2.921875,-7.625 2.3125,-7.1875 1.09375,-7.1875 l 0,0.34375 c 0.265625,0 0.859375,0 1.53125,-0.296875 l 0,6.21875 c 0,0.4375 -0.046875,0.578125 -1.09375,0.578125 l -0.375,0 0,0.34375 c 0.328125,-0.03125 1.484375,-0.03125 1.875,-0.03125 0.40625,0 1.546875,0 1.875,0.03125 l 0,-0.34375 -0.375,0 c -1.046875,0 -1.09375,-0.140625 -1.09375,-0.578125 l 0,-6.734375 z m 0,0"
             id="path4491" />
        </symbol>
        <symbol
           style="overflow:visible"
           overflow="visible"
           id="textext-f86c3b07-6">
          <path
             style="stroke:none"
             d="m 5.265625,-2.015625 -0.265625,0 c -0.046875,0.203125 -0.140625,0.875 -0.25,1.0625 C 4.65625,-0.84375 3.984375,-0.84375 3.625,-0.84375 l -2.21875,0 c 0.328125,-0.28125 1.0625,-1.046875 1.359375,-1.328125 1.828125,-1.671875 2.5,-2.296875 2.5,-3.484375 0,-1.375 -1.09375,-2.296875 -2.484375,-2.296875 -1.375,0 -2.203125,1.1875 -2.203125,2.21875 0,0.609375 0.53125,0.609375 0.5625,0.609375 0.265625,0 0.5625,-0.1875 0.5625,-0.5625 0,-0.34375 -0.21875,-0.5625 -0.5625,-0.5625 -0.09375,0 -0.125,0 -0.15625,0.015625 0.21875,-0.8125 0.875,-1.375 1.640625,-1.375 1.015625,0 1.640625,0.859375 1.640625,1.953125 C 4.265625,-4.640625 3.6875,-3.75 3,-2.984375 l -2.421875,2.703125 0,0.28125 4.375,0 0.3125,-2.015625 z m 0,0"
             id="path4494" />
        </symbol>
        <symbol
           style="overflow:visible"
           overflow="visible"
           id="textext-f86c3b07-7">
          <path
             style="stroke:none"
             d="m 2.203125,-4.296875 c -0.203125,0.015625 -0.25,0.03125 -0.25,0.140625 0,0.109375 0.0625,0.109375 0.265625,0.109375 l 0.546875,0 c 1.03125,0 1.484375,0.84375 1.484375,1.984375 0,1.578125 -0.8125,1.984375 -1.40625,1.984375 -0.578125,0 -1.546875,-0.265625 -1.90625,-1.0625 0.390625,0.0625 0.734375,-0.15625 0.734375,-0.578125 0,-0.34375 -0.25,-0.59375 -0.578125,-0.59375 -0.296875,0 -0.609375,0.171875 -0.609375,0.625 0,1.0625 1.0625,1.9375 2.390625,1.9375 1.421875,0 2.484375,-1.09375 2.484375,-2.296875 C 5.359375,-3.140625 4.46875,-4 3.328125,-4.203125 4.359375,-4.5 5.03125,-5.375 5.03125,-6.3125 c 0,-0.9375 -0.984375,-1.640625 -2.140625,-1.640625 -1.1875,0 -2.078125,0.734375 -2.078125,1.609375 0,0.46875 0.375,0.578125 0.546875,0.578125 0.25,0 0.546875,-0.1875 0.546875,-0.546875 0,-0.375 -0.296875,-0.546875 -0.5625,-0.546875 -0.0625,0 -0.09375,0 -0.125,0.015625 0.453125,-0.8125 1.578125,-0.8125 1.640625,-0.8125 0.390625,0 1.171875,0.171875 1.171875,1.34375 0,0.234375 -0.03125,0.890625 -0.390625,1.40625 C 3.28125,-4.375 2.875,-4.34375 2.5625,-4.328125 l -0.359375,0.03125 z m 0,0"
             id="path4497" />
        </symbol>
        <symbol
           style="overflow:visible"
           overflow="visible"
           id="textext-f86c3b07-8">
          <path
             style="stroke:none"
             d="m 4.3125,-7.78125 c 0,-0.234375 0,-0.28125 -0.171875,-0.28125 -0.09375,0 -0.125,0 -0.21875,0.140625 l -3.59375,5.578125 0,0.34375 3.140625,0 0,1.09375 c 0,0.4375 -0.03125,0.5625 -0.90625,0.5625 l -0.234375,0 0,0.34375 c 0.28125,-0.03125 1.21875,-0.03125 1.5625,-0.03125 0.328125,0 1.28125,0 1.5625,0.03125 l 0,-0.34375 -0.234375,0 c -0.875,0 -0.90625,-0.125 -0.90625,-0.5625 l 0,-1.09375 1.203125,0 0,-0.34375 -1.203125,0 0,-5.4375 z m -0.78125,0.9375 0,4.5 -2.90625,0 2.90625,-4.5 z m 0,0"
             id="path4500" />
        </symbol>
        <symbol
           style="overflow:visible"
           overflow="visible"
           id="textext-f86c3b07-9">
          <path
             style="stroke:none"
             d="m 1.53125,-6.84375 c 0.515625,0.15625 0.9375,0.171875 1.0625,0.171875 1.34375,0 2.21875,-0.984375 2.21875,-1.15625 0,-0.046875 -0.03125,-0.109375 -0.109375,-0.109375 -0.015625,0 -0.046875,0 -0.15625,0.046875 C 3.890625,-7.609375 3.3125,-7.5625 3,-7.5625 c -0.78125,0 -1.34375,-0.25 -1.578125,-0.34375 C 1.34375,-7.9375 1.3125,-7.9375 1.296875,-7.9375 c -0.09375,0 -0.09375,0.078125 -0.09375,0.265625 l 0,3.546875 c 0,0.21875 0,0.28125 0.140625,0.28125 0.0625,0 0.078125,0 0.203125,-0.15625 C 1.875,-4.484375 2.4375,-4.765625 3.03125,-4.765625 c 0.640625,0 0.953125,0.578125 1.046875,0.78125 0.203125,0.46875 0.21875,1.0625 0.21875,1.515625 0,0.453125 0,1.125 -0.34375,1.671875 -0.265625,0.421875 -0.71875,0.71875 -1.25,0.71875 -0.796875,0 -1.5625,-0.53125 -1.78125,-1.40625 0.0625,0.03125 0.125,0.03125 0.1875,0.03125 0.203125,0 0.53125,-0.109375 0.53125,-0.515625 0,-0.34375 -0.234375,-0.53125 -0.53125,-0.53125 -0.21875,0 -0.53125,0.109375 -0.53125,0.578125 0,1.015625 0.828125,2.171875 2.140625,2.171875 1.359375,0 2.546875,-1.140625 2.546875,-2.65625 0,-1.421875 -0.96875,-2.609375 -2.21875,-2.609375 -0.6875,0 -1.203125,0.3125 -1.515625,0.640625 l 0,-2.46875 z m 0,0"
             id="path4503" />
        </symbol>
        <symbol
           style="overflow:visible"
           overflow="visible"
           id="textext-f86c3b07-10">
          <path
             style="stroke:none"
             d="m 1.46875,-4.15625 c 0,-3.03125 1.46875,-3.5 2.109375,-3.5 0.4375,0 0.875,0.125 1.09375,0.484375 -0.140625,0 -0.59375,0 -0.59375,0.484375 0,0.265625 0.171875,0.5 0.484375,0.5 0.296875,0 0.5,-0.1875 0.5,-0.53125 0,-0.625 -0.453125,-1.234375 -1.484375,-1.234375 -1.515625,0 -3.09375,1.546875 -3.09375,4.171875 0,3.296875 1.4375,4.03125 2.453125,4.03125 1.3125,0 2.421875,-1.140625 2.421875,-2.6875 0,-1.59375 -1.109375,-2.65625 -2.3125,-2.65625 -1.0625,0 -1.453125,0.921875 -1.578125,1.25 l 0,-0.3125 z m 1.46875,4.078125 c -0.75,0 -1.109375,-0.65625 -1.21875,-0.90625 C 1.609375,-1.296875 1.5,-1.890625 1.5,-2.71875 c 0,-0.953125 0.421875,-2.140625 1.5,-2.140625 0.65625,0 1,0.453125 1.1875,0.859375 0.1875,0.4375 0.1875,1.03125 0.1875,1.546875 0,0.609375 0,1.15625 -0.234375,1.609375 -0.296875,0.5625 -0.71875,0.765625 -1.203125,0.765625 z m 0,0"
             id="path4506" />
        </symbol>
      </g>
    </defs>
  </defs>
  <metadata
     id="metadata7">
    <rdf:RDF>
      <cc:Work
         rdf:about="">
        <dc:format>image/svg+xml</dc:format>
        <dc:type
           rdf:resource="http://purl.org/dc/dcmitype/StillImage" />
        <dc:title></dc:title>
      </cc:Work>
    </rdf:RDF>
  </metadata>
  <g
     inkscape:label="Layer 1"
     inkscape:groupmode="layer"
     id="layer1"
     transform="translate(0,-62.361281)">
    <path
       sodipodi:nodetypes="cc"
       id="path4153"
       d="m 380.90551,1039.0739 48.72047,-48.72049"
       style="fill:none;stroke:#000000;stroke-width:0.35433072;stroke-linecap:butt;stroke-linejoin:miter;stroke-miterlimit:4;stroke-opacity:1;stroke-dasharray:none" />
    <path
       style="fill:none;stroke:#000000;stroke-width:0.35433072;stroke-linecap:butt;stroke-linejoin:miter;stroke-miterlimit:4;stroke-opacity:1;stroke-dasharray:none"
       d="m 345.47244,1039.0739 66.43701,-66.43703"
       id="path4151"
       sodipodi:nodetypes="cc" />
    <text
       style="font-size:8px;font-style:normal;font-variant:normal;font-weight:normal;font-stretch:normal;fill:#000000;fill-opacity:1;stroke:none;font-family:Serif;-inkscape-font-specification:Serif"
       xml:space="preserve"
       id="text5136"
       y="319.17773"
       x="162.93506"><tspan
         style="font-size:6px"
         id="tspan5138"
         y="319.17773"
         x="162.93506" /></text>
    <text
       style="font-size:10px;font-style:normal;font-variant:normal;font-weight:normal;font-stretch:normal;fill:#000000;fill-opacity:1;stroke:none;font-family:Serif;-inkscape-font-specification:Serif"
       xml:space="preserve"
       id="text5140"
       y="341.32339"
       x="162.93506"><tspan
         style="font-size:6px"
         id="tspan5142"
         y="341.32339"
         x="162.93506" /></text>
    <text
       style="font-size:6px;font-style:normal;font-variant:normal;font-weight:normal;font-stretch:normal;fill:#000000;fill-opacity:1;stroke:none;font-family:Serif;-inkscape-font-specification:Serif"
       xml:space="preserve"
       id="text5144"
       y="369.46436"
       x="166.60896"><tspan
         id="tspan5146"
         y="369.46436"
         x="166.60896" /></text>
    <path
       style="fill:none;stroke:#000000;stroke-width:0.35433072;stroke-linecap:butt;stroke-linejoin:miter;stroke-miterlimit:4;stroke-opacity:1;stroke-dasharray:none"
       d="M 274.6063,1039.0739 376.47638,937.2038"
       id="path8394"
       sodipodi:nodetypes="cc" />
    <g
       transform="translate(-102.57444,798.08466)"
       style="fill:#000000;fill-opacity:1"
       id="g3325">
      <use
         height="990"
         width="765"
         xlink:href="#textext-21a9117b-1"
         x="323.703"
         y="134.565"
         id="use3327" />
    </g>
    <g
       transform="translate(-102.57444,798.08466)"
       style="fill:#000000;fill-opacity:1"
       id="g3329">
      <use
         height="990"
         width="765"
         xlink:href="#textext-21a9117b-3"
         x="334.01099"
         y="134.565"
         id="use3331" />
    </g>
    <g
       transform="translate(-102.57444,798.08466)"
       style="fill:#000000;fill-opacity:1"
       id="g3333">
      <use
         height="990"
         width="765"
         xlink:href="#textext-21a9117b-4"
         x="346.43964"
         y="134.565"
         id="use3335" />
      <use
         height="990"
         width="765"
         xlink:href="#textext-21a9117b-5"
         x="352.29288"
         y="134.565"
         id="use3337" />
    </g>
    <g
       transform="translate(-45.675355,798.20966)"
       style="fill:#000000;fill-opacity:1"
       id="g3339">
      <use
         height="990"
         width="765"
         xlink:href="#textext-21a9117b-6"
         x="417.24548"
         y="134.565"
         id="use3341" />
    </g>
    <g
       transform="translate(-102.57444,801.8532)"
       style="fill:#000000;fill-opacity:1"
       id="g3343">
      <use
         height="990"
         width="765"
         xlink:href="#textext-21a9117b-1"
         x="323.703"
         y="148.513"
         id="use3345" />
    </g>
    <g
       transform="translate(-102.57444,801.8532)"
       style="fill:#000000;fill-opacity:1"
       id="g3347">
      <use
         height="990"
         width="765"
         xlink:href="#textext-21a9117b-3"
         x="334.01099"
         y="148.513"
         id="use3349" />
    </g>
    <g
       transform="translate(-102.57444,801.8532)"
       style="fill:#000000;fill-opacity:1"
       id="g3351">
      <use
         height="990"
         width="765"
         xlink:href="#textext-21a9117b-6"
         x="346.43964"
         y="148.513"
         id="use3353" />
      <use
         height="990"
         width="765"
         xlink:href="#textext-21a9117b-5"
         x="352.29288"
         y="148.513"
         id="use3355" />
    </g>
    <g
       transform="translate(-51.687759,801.9782)"
       style="fill:#000000;fill-opacity:1"
       id="g3357">
      <use
         height="990"
         width="765"
         xlink:href="#textext-21a9117b-6"
         x="405.54135"
         y="148.513"
         id="use3359" />
    </g>
    <g
       transform="translate(-39.670154,801.9782)"
       style="fill:#000000;fill-opacity:1"
       id="g3361">
      <use
         height="990"
         width="765"
         xlink:href="#textext-21a9117b-6"
         x="428.95682"
         y="148.513"
         id="use3363" />
    </g>
    <g
       transform="translate(-102.57444,805.62174)"
       style="fill:#000000;fill-opacity:1"
       id="g3365">
      <use
         height="990"
         width="765"
         xlink:href="#textext-21a9117b-1"
         x="323.703"
         y="162.461"
         id="use3367" />
    </g>
    <g
       transform="translate(-102.57444,805.62174)"
       style="fill:#000000;fill-opacity:1"
       id="g3369">
      <use
         height="990"
         width="765"
         xlink:href="#textext-21a9117b-3"
         x="334.01099"
         y="162.461"
         id="use3371" />
    </g>
    <g
       transform="translate(-102.57444,805.62174)"
       style="fill:#000000;fill-opacity:1"
       id="g3373">
      <use
         height="990"
         width="765"
         xlink:href="#textext-21a9117b-7"
         x="346.43964"
         y="162.461"
         id="use3375" />
      <use
         height="990"
         width="765"
         xlink:href="#textext-21a9117b-5"
         x="352.29288"
         y="162.461"
         id="use3377" />
    </g>
    <g
       transform="translate(-57.700162,805.74674)"
       style="fill:#000000;fill-opacity:1"
       id="g3379">
      <use
         height="990"
         width="765"
         xlink:href="#textext-21a9117b-6"
         x="393.83722"
         y="162.461"
         id="use3381" />
    </g>
    <g
       transform="translate(-46.041902,805.74674)"
       style="fill:#000000;fill-opacity:1"
       id="g3383">
      <use
         height="990"
         width="765"
         xlink:href="#textext-21a9117b-7"
         x="417.25266"
         y="162.461"
         id="use3385" />
    </g>
    <g
       transform="translate(-33.65296,805.74674)"
       style="fill:#000000;fill-opacity:1"
       id="g3387">
      <use
         height="990"
         width="765"
         xlink:href="#textext-21a9117b-6"
         x="440.65616"
         y="162.461"
         id="use3389" />
    </g>
    <g
       transform="translate(-102.57444,809.39127)"
       style="fill:#000000;fill-opacity:1"
       id="g3391">
      <use
         height="990"
         width="765"
         xlink:href="#textext-21a9117b-1"
         x="323.703"
         y="176.408"
         id="use3393" />
    </g>
    <g
       transform="translate(-102.57444,809.39127)"
       style="fill:#000000;fill-opacity:1"
       id="g3395">
      <use
         height="990"
         width="765"
         xlink:href="#textext-21a9117b-3"
         x="334.01099"
         y="176.408"
         id="use3397" />
    </g>
    <g
       transform="translate(-102.57444,809.39127)"
       style="fill:#000000;fill-opacity:1"
       id="g3399">
      <use
         height="990"
         width="765"
         xlink:href="#textext-21a9117b-8"
         x="346.43964"
         y="176.408"
         id="use3401" />
      <use
         height="990"
         width="765"
         xlink:href="#textext-21a9117b-5"
         x="352.29288"
         y="176.408"
         id="use3403" />
    </g>
    <g
       transform="translate(-66.629619,809.51627)"
       style="fill:#000000;fill-opacity:1"
       id="g3405">
      <use
         height="990"
         width="765"
         xlink:href="#textext-21a9117b-6"
         x="385.05014"
         y="176.408"
         id="use3407" />
    </g>
    <g
       transform="translate(-52.136093,809.26627)"
       style="fill:#000000;fill-opacity:1"
       id="g3409">
      <use
         height="990"
         width="765"
         xlink:href="#textext-21a9117b-8"
         x="405.53656"
         y="176.408"
         id="use3411" />
    </g>
    <g
       transform="translate(-40.118488,809.26627)"
       style="fill:#000000;fill-opacity:1"
       id="g3413">
      <use
         height="990"
         width="765"
         xlink:href="#textext-21a9117b-8"
         x="428.95203"
         y="176.408"
         id="use3415" />
    </g>
    <g
       transform="translate(-24.718712,809.51627)"
       style="fill:#000000;fill-opacity:1"
       id="g3417">
      <use
         height="990"
         width="765"
         xlink:href="#textext-21a9117b-6"
         x="449.43845"
         y="176.408"
         id="use3419" />
    </g>
    <g
       transform="translate(-102.57444,813.15981)"
       style="fill:#000000;fill-opacity:1"
       id="g3421">
      <use
         height="990"
         width="765"
         xlink:href="#textext-21a9117b-1"
         x="323.703"
         y="190.356"
         id="use3423" />
    </g>
    <g
       transform="translate(-102.57444,813.15981)"
       style="fill:#000000;fill-opacity:1"
       id="g3425">
      <use
         height="990"
         width="765"
         xlink:href="#textext-21a9117b-3"
         x="334.01099"
         y="190.356"
         id="use3427" />
    </g>
    <g
       transform="translate(-102.57444,813.15981)"
       style="fill:#000000;fill-opacity:1"
       id="g3429">
      <use
         height="990"
         width="765"
         xlink:href="#textext-21a9117b-9"
         x="346.43964"
         y="190.356"
         id="use3431" />
      <use
         height="990"
         width="765"
         xlink:href="#textext-21a9117b-5"
         x="352.29288"
         y="190.356"
         id="use3433" />
    </g>
    <g
       transform="translate(-78.500054,813.28481)"
       style="fill:#000000;fill-opacity:1"
       id="g3435">
      <use
         height="990"
         width="765"
         xlink:href="#textext-21a9117b-6"
         x="379.20404"
         y="190.356"
         id="use3437" />
    </g>
    <g
       transform="translate(-58.304746,813.28481)"
       style="fill:#000000;fill-opacity:1"
       id="g3439">
      <use
         height="990"
         width="765"
         xlink:href="#textext-21a9117b-9"
         x="393.83243"
         y="190.356"
         id="use3441" />
    </g>
    <g
       transform="translate(-46.130891,813.03481)"
       style="fill:#000000;fill-opacity:1"
       id="g3443">
      <use
         height="990"
         width="765"
         xlink:href="#textext-21a9117b-10"
         x="417.24789"
         y="190.356"
         id="use3445" />
    </g>
    <g
       transform="translate(-34.269506,813.28481)"
       style="fill:#000000;fill-opacity:1"
       id="g3447">
      <use
         height="990"
         width="765"
         xlink:href="#textext-21a9117b-9"
         x="440.66333"
         y="190.356"
         id="use3449" />
    </g>
    <g
       transform="translate(-12.855448,813.28481)"
       style="fill:#000000;fill-opacity:1"
       id="g3451">
      <use
         height="990"
         width="765"
         xlink:href="#textext-21a9117b-6"
         x="455.29172"
         y="190.356"
         id="use3453" />
    </g>
    <g
       transform="translate(-102.57444,816.80334)"
       style="fill:#000000;fill-opacity:1"
       id="g3455">
      <use
         height="990"
         width="765"
         xlink:href="#textext-21a9117b-1"
         x="323.703"
         y="204.304"
         id="use3457" />
    </g>
    <g
       transform="translate(-102.57444,816.80334)"
       style="fill:#000000;fill-opacity:1"
       id="g3459">
      <use
         height="990"
         width="765"
         xlink:href="#textext-21a9117b-3"
         x="334.01099"
         y="204.304"
         id="use3461" />
    </g>
    <g
       transform="translate(-102.57444,816.80334)"
       style="fill:#000000;fill-opacity:1"
       id="g3463">
      <use
         height="990"
         width="765"
         xlink:href="#textext-21a9117b-11"
         x="346.43964"
         y="204.304"
         id="use3465" />
      <use
         height="990"
         width="765"
         xlink:href="#textext-21a9117b-5"
         x="352.29288"
         y="204.304"
         id="use3467" />
    </g>
    <g
       transform="translate(-90.358558,817.05334)"
       style="fill:#000000;fill-opacity:1"
       id="g3469">
      <use
         height="990"
         width="765"
         xlink:href="#textext-21a9117b-6"
         x="373.34601"
         y="204.304"
         id="use3471" />
    </g>
    <g
       transform="translate(-66.996165,816.80334)"
       style="fill:#000000;fill-opacity:1"
       id="g3473">
      <use
         height="990"
         width="765"
         xlink:href="#textext-21a9117b-11"
         x="385.05731"
         y="204.304"
         id="use3475" />
    </g>
    <g
       transform="translate(-55.06752,816.80334)"
       style="fill:#000000;fill-opacity:1"
       id="g3477">
      <use
         height="990"
         width="765"
         xlink:href="#textext-21a9117b-6"
         x="402.61472"
         y="204.304"
         id="use3479" />
      <use
         height="990"
         width="765"
         xlink:href="#textext-21a9117b-4"
         x="408.46799"
         y="204.304"
         id="use3481" />
    </g>
    <g
       transform="translate(-43.045124,816.80334)"
       style="fill:#000000;fill-opacity:1"
       id="g3483">
      <use
         height="990"
         width="765"
         xlink:href="#textext-21a9117b-6"
         x="426.02539"
         y="204.304"
         id="use3485" />
      <use
         height="990"
         width="765"
         xlink:href="#textext-21a9117b-4"
         x="431.87866"
         y="204.304"
         id="use3487" />
    </g>
    <g
       transform="translate(-25.075706,816.80334)"
       style="fill:#000000;fill-opacity:1"
       id="g3489">
      <use
         height="990"
         width="765"
         xlink:href="#textext-21a9117b-11"
         x="449.43607"
         y="204.304"
         id="use3491" />
    </g>
    <g
       transform="translate(-0.99456427,817.05334)"
       style="fill:#000000;fill-opacity:1"
       id="g3493">
      <use
         height="990"
         width="765"
         xlink:href="#textext-21a9117b-6"
         x="461.14737"
         y="204.304"
         id="use3495" />
    </g>
    <g
       transform="translate(-102.57444,820.57188)"
       style="fill:#000000;fill-opacity:1"
       id="g3497">
      <use
         height="990"
         width="765"
         xlink:href="#textext-21a9117b-1"
         x="323.703"
         y="218.252"
         id="use3499" />
    </g>
    <g
       transform="translate(-102.57444,820.57188)"
       style="fill:#000000;fill-opacity:1"
       id="g3501">
      <use
         height="990"
         width="765"
         xlink:href="#textext-21a9117b-3"
         x="334.01099"
         y="218.252"
         id="use3503" />
    </g>
    <g
       transform="translate(-102.57444,820.57188)"
       style="fill:#000000;fill-opacity:1"
       id="g3505">
      <use
         height="990"
         width="765"
         xlink:href="#textext-21a9117b-10"
         x="346.43964"
         y="218.252"
         id="use3507" />
      <use
         height="990"
         width="765"
         xlink:href="#textext-21a9117b-5"
         x="352.29288"
         y="218.252"
         id="use3509" />
    </g>
    <g
       transform="translate(-102.22899,820.82188)"
       style="fill:#000000;fill-opacity:1"
       id="g3511">
      <use
         height="990"
         width="765"
         xlink:href="#textext-21a9117b-6"
         x="367.49991"
         y="218.252"
         id="use3513" />
    </g>
    <g
       transform="translate(-78.948419,820.57188)"
       style="fill:#000000;fill-opacity:1"
       id="g3515">
      <use
         height="990"
         width="765"
         xlink:href="#textext-21a9117b-10"
         x="379.19928"
         y="218.252"
         id="use3517" />
    </g>
    <g
       transform="translate(-60.986173,820.57188)"
       style="fill:#000000;fill-opacity:1"
       id="g3519">
      <use
         height="990"
         width="765"
         xlink:href="#textext-21a9117b-6"
         x="390.91058"
         y="218.252"
         id="use3521" />
      <use
         height="990"
         width="765"
         xlink:href="#textext-21a9117b-11"
         x="396.76385"
         y="218.252"
         id="use3523" />
    </g>
    <g
       transform="translate(-49.057527,820.57188)"
       style="fill:#000000;fill-opacity:1"
       id="g3525">
      <use
         height="990"
         width="765"
         xlink:href="#textext-21a9117b-7"
         x="414.32126"
         y="218.252"
         id="use3527" />
      <use
         height="990"
         width="765"
         xlink:href="#textext-21a9117b-4"
         x="420.17453"
         y="218.252"
         id="use3529" />
    </g>
    <g
       transform="translate(-36.941381,820.57188)"
       style="fill:#000000;fill-opacity:1"
       id="g3531">
      <use
         height="990"
         width="765"
         xlink:href="#textext-21a9117b-6"
         x="437.73193"
         y="218.252"
         id="use3533" />
      <use
         height="990"
         width="765"
         xlink:href="#textext-21a9117b-11"
         x="443.58521"
         y="218.252"
         id="use3535" />
    </g>
    <g
       transform="translate(-13.313364,820.57188)"
       style="fill:#000000;fill-opacity:1"
       id="g3537">
      <use
         height="990"
         width="765"
         xlink:href="#textext-21a9117b-10"
         x="455.29651"
         y="218.252"
         id="use3539" />
    </g>
    <g
       transform="translate(10.873491,820.82188)"
       style="fill:#000000;fill-opacity:1"
       id="g3541">
      <use
         height="990"
         width="765"
         xlink:href="#textext-21a9117b-6"
         x="466.99585"
         y="218.252"
         id="use3543" />
    </g>
    <path
       sodipodi:nodetypes="cc"
       id="path4149"
       d="m 310.03937,1039.0739 84.15354,-84.15356"
       style="fill:none;stroke:#000000;stroke-width:0.35433072;stroke-linecap:butt;stroke-linejoin:miter;stroke-miterlimit:4;stroke-opacity:1;stroke-dasharray:none" />
    <path
       style="fill:none;stroke:#000000;stroke-width:0.35433072;stroke-linecap:butt;stroke-linejoin:miter;stroke-miterlimit:4;stroke-opacity:1;stroke-dasharray:none"
       d="m 416.33858,1039.0739 31.00394,-31.004"
       id="path4176"
       sodipodi:nodetypes="cc" />
    <path
       sodipodi:nodetypes="cc"
       id="path4178"
       d="m 451.77165,1039.0739 13.28741,-13.2874"
       style="fill:none;stroke:#000000;stroke-width:0.35433072;stroke-linecap:butt;stroke-linejoin:miter;stroke-miterlimit:4;stroke-opacity:1;stroke-dasharray:none" />
    <g
       id="g4509"
       style="fill:#000000;fill-opacity:1"
       transform="translate(131.88027,798.08466)">
      <use
         id="use4511"
         y="134.565"
         x="381.24301"
         xlink:href="#textext-f86c3b07-1"
         width="765"
         height="990" />
    </g>
    <g
       id="g4513"
       style="fill:#000000;fill-opacity:1"
       transform="translate(131.88027,798.08466)">
      <use
         id="use4515"
         y="134.565"
         x="391.05399"
         xlink:href="#textext-f86c3b07-3"
         width="765"
         height="990" />
    </g>
    <g
       id="g4517"
       style="fill:#000000;fill-opacity:1"
       transform="translate(131.88027,798.08466)">
      <use
         id="use4519"
         y="134.565"
         x="403.48264"
         xlink:href="#textext-f86c3b07-4"
         width="765"
         height="990" />
    </g>
    <g
       id="g4521"
       style="fill:#000000;fill-opacity:1"
       transform="translate(131.88027,801.8532)">
      <use
         id="use4523"
         y="148.513"
         x="381.24301"
         xlink:href="#textext-f86c3b07-1"
         width="765"
         height="990" />
    </g>
    <g
       id="g4525"
       style="fill:#000000;fill-opacity:1"
       transform="translate(131.88027,801.8532)">
      <use
         id="use4527"
         y="148.513"
         x="391.05399"
         xlink:href="#textext-f86c3b07-3"
         width="765"
         height="990" />
    </g>
    <g
       id="g4529"
       style="fill:#000000;fill-opacity:1"
       transform="translate(131.88027,801.8532)">
      <use
         id="use4531"
         y="148.513"
         x="403.48264"
         xlink:href="#textext-f86c3b07-5"
         width="765"
         height="990" />
    </g>
    <g
       id="g4533"
       style="fill:#000000;fill-opacity:1"
       transform="translate(131.88027,805.62174)">
      <use
         id="use4535"
         y="162.461"
         x="381.24301"
         xlink:href="#textext-f86c3b07-1"
         width="765"
         height="990" />
    </g>
    <g
       id="g4537"
       style="fill:#000000;fill-opacity:1"
       transform="translate(131.88027,805.62174)">
      <use
         id="use4539"
         y="162.461"
         x="391.05399"
         xlink:href="#textext-f86c3b07-3"
         width="765"
         height="990" />
    </g>
    <g
       id="g4541"
       style="fill:#000000;fill-opacity:1"
       transform="translate(131.88027,805.62174)">
      <use
         id="use4543"
         y="162.461"
         x="403.48264"
         xlink:href="#textext-f86c3b07-6"
         width="765"
         height="990" />
    </g>
    <g
       id="g4545"
       style="fill:#000000;fill-opacity:1"
       transform="translate(131.88027,809.39127)">
      <use
         id="use4547"
         y="176.408"
         x="381.24301"
         xlink:href="#textext-f86c3b07-1"
         width="765"
         height="990" />
    </g>
    <g
       id="g4549"
       style="fill:#000000;fill-opacity:1"
       transform="translate(131.88027,809.39127)">
      <use
         id="use4551"
         y="176.408"
         x="391.05399"
         xlink:href="#textext-f86c3b07-3"
         width="765"
         height="990" />
    </g>
    <g
       id="g4553"
       style="fill:#000000;fill-opacity:1"
       transform="translate(131.88027,809.39127)">
      <use
         id="use4555"
         y="176.408"
         x="403.48264"
         xlink:href="#textext-f86c3b07-7"
         width="765"
         height="990" />
    </g>
    <g
       id="g4557"
       style="fill:#000000;fill-opacity:1"
       transform="translate(131.88027,813.15981)">
      <use
         id="use4559"
         y="190.356"
         x="381.24301"
         xlink:href="#textext-f86c3b07-1"
         width="765"
         height="990" />
    </g>
    <g
       id="g4561"
       style="fill:#000000;fill-opacity:1"
       transform="translate(131.88027,813.15981)">
      <use
         id="use4563"
         y="190.356"
         x="391.05399"
         xlink:href="#textext-f86c3b07-3"
         width="765"
         height="990" />
    </g>
    <g
       id="g4565"
       style="fill:#000000;fill-opacity:1"
       transform="translate(131.88027,813.15981)">
      <use
         id="use4567"
         y="190.356"
         x="403.48264"
         xlink:href="#textext-f86c3b07-8"
         width="765"
         height="990" />
    </g>
    <g
       id="g4569"
       style="fill:#000000;fill-opacity:1"
       transform="translate(131.88027,816.92834)">
      <use
         id="use4571"
         y="204.304"
         x="381.24301"
         xlink:href="#textext-f86c3b07-1"
         width="765"
         height="990" />
    </g>
    <g
       id="g4573"
       style="fill:#000000;fill-opacity:1"
       transform="translate(131.88027,816.92834)">
      <use
         id="use4575"
         y="204.304"
         x="391.05399"
         xlink:href="#textext-f86c3b07-3"
         width="765"
         height="990" />
    </g>
    <g
       id="g4577"
       style="fill:#000000;fill-opacity:1"
       transform="translate(131.88027,816.92834)">
      <use
         id="use4579"
         y="204.304"
         x="403.48264"
         xlink:href="#textext-f86c3b07-9"
         width="765"
         height="990" />
    </g>
    <g
       id="g4581"
       style="fill:#000000;fill-opacity:1"
       transform="translate(131.88027,820.69688)">
      <use
         id="use4583"
         y="218.252"
         x="381.24301"
         xlink:href="#textext-f86c3b07-1"
         width="765"
         height="990" />
    </g>
    <g
       id="g4585"
       style="fill:#000000;fill-opacity:1"
       transform="translate(131.88027,820.69688)">
      <use
         id="use4587"
         y="218.252"
         x="391.05399"
         xlink:href="#textext-f86c3b07-3"
         width="765"
         height="990" />
    </g>
    <g
       id="g4589"
       style="fill:#000000;fill-opacity:1"
       transform="translate(131.88027,820.69688)">
      <use
         id="use4591"
         y="218.252"
         x="403.48264"
         xlink:href="#textext-f86c3b07-10"
         width="765"
         height="990" />
    </g>
    <path
       style="fill:none;stroke:#000000;stroke-width:0.35433072;stroke-linecap:butt;stroke-linejoin:miter;stroke-miterlimit:4;stroke-opacity:1;stroke-dasharray:none"
       d="m 376.47638,937.2038 168.30708,0"
       id="path5059"
       sodipodi:nodetypes="cc" />
    <path
       sodipodi:nodetypes="cc"
       id="path5918"
       d="m 394.19291,954.92034 150.59055,0"
       style="fill:none;stroke:#000000;stroke-width:0.35433072;stroke-linecap:butt;stroke-linejoin:miter;stroke-miterlimit:4;stroke-opacity:1;stroke-dasharray:none" />
    <path
       style="fill:none;stroke:#000000;stroke-width:0.35433072;stroke-linecap:butt;stroke-linejoin:miter;stroke-miterlimit:4;stroke-opacity:1;stroke-dasharray:none"
       d="m 411.90945,972.63687 132.87401,0"
       id="path5920"
       sodipodi:nodetypes="cc" />
    <path
       sodipodi:nodetypes="cc"
       id="path5922"
       d="m 429.62598,990.35341 115.15748,0"
       style="fill:none;stroke:#000000;stroke-width:0.35433072;stroke-linecap:butt;stroke-linejoin:miter;stroke-miterlimit:4;stroke-opacity:1;stroke-dasharray:none" />
    <path
       style="fill:none;stroke:#000000;stroke-width:0.35433072;stroke-linecap:butt;stroke-linejoin:miter;stroke-miterlimit:4;stroke-opacity:1;stroke-dasharray:none"
       d="m 447.34252,1008.0699 97.44094,0"
       id="path5924"
       sodipodi:nodetypes="cc" />
    <path
       sodipodi:nodetypes="cc"
       id="path5926"
       d="m 465.05906,1025.7865 79.7244,0"
       style="fill:none;stroke:#000000;stroke-width:0.35433072;stroke-linecap:butt;stroke-linejoin:miter;stroke-miterlimit:4;stroke-opacity:1;stroke-dasharray:none" />
  </g>
</svg>
