<?xml version="1.0" encoding="UTF-8" standalone="no"?>
<!-- Created with Inkscape (http://www.inkscape.org/) -->

<svg
   xmlns:ns0="http://www.iki.fi/pav/software/textext/"
   xmlns:dc="http://purl.org/dc/elements/1.1/"
   xmlns:cc="http://creativecommons.org/ns#"
   xmlns:rdf="http://www.w3.org/1999/02/22-rdf-syntax-ns#"
   xmlns:svg="http://www.w3.org/2000/svg"
   xmlns="http://www.w3.org/2000/svg"
   xmlns:xlink="http://www.w3.org/1999/xlink"
   xmlns:sodipodi="http://sodipodi.sourceforge.net/DTD/sodipodi-0.dtd"
   xmlns:inkscape="http://www.inkscape.org/namespaces/inkscape"
   sodipodi:docname="treeDia.svg"
   inkscape:version="0.47 r22583"
   version="1.1"
   id="svg2"
   height="990"
   width="765">
  <sodipodi:namedview
     id="base"
     pagecolor="#ffffff"
     bordercolor="#666666"
     borderopacity="1.0"
     inkscape:pageopacity="0.0"
     inkscape:pageshadow="2"
     inkscape:zoom="3.2721558"
     inkscape:cx="152.05699"
     inkscape:cy="137.72774"
     inkscape:document-units="cm"
     inkscape:current-layer="layer1"
     showgrid="true"
     gridtolerance="10000"
     guidetolerance="10000"
     objecttolerance="10"
     inkscape:snap-grids="true"
     inkscape:snap-to-guides="true"
     inkscape:snap-object-midpoints="true"
     inkscape:snap-bbox="false"
     inkscape:snap-nodes="true"
     inkscape:object-nodes="true"
     inkscape:window-width="1280"
     inkscape:window-height="744"
     inkscape:window-x="0"
     inkscape:window-y="0"
     inkscape:window-maximized="1"
     showguides="true"
     inkscape:guide-bbox="true"
     inkscape:snap-global="true"
     inkscape:snap-center="true"
     inkscape:bbox-paths="false"
     inkscape:bbox-nodes="false"
     inkscape:snap-bbox-edge-midpoints="false"
     inkscape:snap-bbox-midpoints="false"
     inkscape:snap-midpoints="true"
     units="cm"
     inkscape:snap-page="true"
     inkscape:object-paths="true"
     inkscape:snap-intersection-paths="true"
     inkscape:snap-smooth-nodes="true">
    <inkscape:grid
       spacingy="0.025cm"
       spacingx="0.025cm"
       units="cm"
       snapvisiblegridlinesonly="true"
       enabled="true"
       visible="true"
       empspacing="5"
       id="grid2816"
       type="xygrid" />
  </sodipodi:namedview>
  <defs
     id="defs4">
    <inkscape:path-effect
       effect="spiro"
       id="path-effect2954"
       is_visible="true" />
    <inkscape:path-effect
       effect="spiro"
       id="path-effect2950"
       is_visible="true" />
    <inkscape:path-effect
       effect="spiro"
       id="path-effect2946"
       is_visible="true" />
    <linearGradient
       id="linearGradient3829">
      <stop
         id="stop3831"
         offset="0"
         style="stop-color:#000000;stop-opacity:1;" />
      <stop
         id="stop3833"
         offset="1"
         style="stop-color:#000000;stop-opacity:0;" />
    </linearGradient>
    <inkscape:path-effect
       is_visible="true"
       id="path-effect3171"
       effect="spiro" />
    <inkscape:perspective
       id="perspective10"
       inkscape:persp3d-origin="372.04724 : 350.78739 : 1"
       inkscape:vp_z="744.09448 : 526.18109 : 1"
       inkscape:vp_y="0 : 1000 : 0"
       inkscape:vp_x="0 : 526.18109 : 1"
       sodipodi:type="inkscape:persp3d" />
    <inkscape:perspective
       sodipodi:type="inkscape:persp3d"
       inkscape:vp_x="0 : 0.5 : 1"
       inkscape:vp_y="0 : 1000 : 0"
       inkscape:vp_z="1 : 0.5 : 1"
       inkscape:persp3d-origin="0.5 : 0.33333333 : 1"
       id="perspective3006" />
    <marker
       style="overflow:visible"
       id="Arrow2Mend"
       orient="auto"
       refY="0"
       refX="0">
      <path
         style="font-size:12px;fill-rule:evenodd;stroke-width:0.625;stroke-linejoin:round"
         id="path3761"
         transform="scale(-0.6,-0.6)"
         d="M 8.7185878,4.0337352 -2.2072895,0.01601326 8.7185884,-4.0017078 c -1.7454984,2.3720609 -1.7354408,5.6174519 -6e-7,8.035443 z" />
    </marker>
    <marker
       style="overflow:visible"
       id="marker3012"
       orient="auto"
       refY="0"
       refX="0">
      <path
         style="font-size:12px;fill-rule:evenodd;stroke-width:0.625;stroke-linejoin:round"
         id="path3014"
         transform="scale(-0.6,-0.6)"
         d="M 8.7185878,4.0337352 -2.2072895,0.01601326 8.7185884,-4.0017078 c -1.7454984,2.3720609 -1.7354408,5.6174519 -6e-7,8.035443 z" />
    </marker>
    <inkscape:perspective
       sodipodi:type="inkscape:persp3d"
       inkscape:vp_x="0 : 0.5 : 1"
       inkscape:vp_y="0 : 1000 : 0"
       inkscape:vp_z="1 : 0.5 : 1"
       inkscape:persp3d-origin="0.5 : 0.33333333 : 1"
       id="perspective4778" />
    <inkscape:perspective
       id="perspective3634"
       inkscape:persp3d-origin="0.5 : 0.33333333 : 1"
       inkscape:vp_z="1 : 0.5 : 1"
       inkscape:vp_y="0 : 1000 : 0"
       inkscape:vp_x="0 : 0.5 : 1"
       sodipodi:type="inkscape:persp3d" />
    <defs
       id="defs4100">
      <g
         id="g4102">
        <symbol
           id="textext-3c7b3c27-0"
           overflow="visible"
           style="overflow:visible">
          <path
             id="path4105"
             d=""
             style="stroke:none" />
        </symbol>
        <symbol
           id="textext-3c7b3c27-1"
           overflow="visible"
           style="overflow:visible">
          <path
             id="path4108"
             d="m 0.875,-0.59375 c -0.03125,0.15625 -0.09375,0.390625 -0.09375,0.4375 0,0.171875 0.140625,0.265625 0.296875,0.265625 0.125,0 0.296875,-0.078125 0.375,-0.28125 0,-0.015625 0.125,-0.484375 0.1875,-0.734375 l 0.21875,-0.890625 C 1.90625,-2.03125 1.96875,-2.25 2.03125,-2.46875 c 0.03125,-0.171875 0.109375,-0.46875 0.125,-0.5 0.140625,-0.3125 0.671875,-1.21875 1.625,-1.21875 0.453125,0 0.53125,0.375 0.53125,0.703125 0,0.609375 -0.484375,1.890625 -0.640625,2.3125 C 3.578125,-0.9375 3.5625,-0.8125 3.5625,-0.703125 c 0,0.46875 0.359375,0.8125 0.828125,0.8125 0.9375,0 1.296875,-1.453125 1.296875,-1.53125 0,-0.109375 -0.078125,-0.109375 -0.109375,-0.109375 -0.109375,0 -0.109375,0.03125 -0.15625,0.1875 -0.203125,0.671875 -0.53125,1.234375 -1.015625,1.234375 -0.171875,0 -0.234375,-0.09375 -0.234375,-0.328125 0,-0.25 0.078125,-0.484375 0.171875,-0.703125 0.1875,-0.53125 0.609375,-1.625 0.609375,-2.203125 0,-0.65625 -0.421875,-1.0625 -1.140625,-1.0625 -0.90625,0 -1.390625,0.640625 -1.5625,0.875 -0.046875,-0.5625 -0.453125,-0.875 -0.921875,-0.875 -0.453125,0 -0.640625,0.390625 -0.734375,0.5625 C 0.421875,-3.5 0.296875,-2.90625 0.296875,-2.875 c 0,0.109375 0.09375,0.109375 0.109375,0.109375 0.109375,0 0.109375,-0.015625 0.171875,-0.234375 0.171875,-0.703125 0.375,-1.1875 0.734375,-1.1875 0.1875,0 0.296875,0.125 0.296875,0.453125 0,0.21875 -0.03125,0.328125 -0.15625,0.84375 L 0.875,-0.59375 z m 0,0"
             style="stroke:none" />
        </symbol>
        <symbol
           id="textext-3c7b3c27-2"
           overflow="visible"
           style="overflow:visible">
          <path
             id="path4111"
             d=""
             style="stroke:none" />
        </symbol>
        <symbol
           id="textext-3c7b3c27-3"
           overflow="visible"
           style="overflow:visible">
          <path
             id="path4114"
             d="m 6.84375,-3.265625 c 0.15625,0 0.34375,0 0.34375,-0.1875 C 7.1875,-3.65625 7,-3.65625 6.859375,-3.65625 l -5.96875,0 c -0.140625,0 -0.328125,0 -0.328125,0.203125 0,0.1875 0.1875,0.1875 0.328125,0.1875 l 5.953125,0 z m 0.015625,1.9375 c 0.140625,0 0.328125,0 0.328125,-0.203125 0,-0.1875 -0.1875,-0.1875 -0.34375,-0.1875 l -5.953125,0 c -0.140625,0 -0.328125,0 -0.328125,0.1875 0,0.203125 0.1875,0.203125 0.328125,0.203125 l 5.96875,0 z m 0,0"
             style="stroke:none" />
        </symbol>
        <symbol
           id="textext-3c7b3c27-4"
           overflow="visible"
           style="overflow:visible">
          <path
             id="path4117"
             d="m 4.578125,-3.1875 c 0,-0.796875 -0.046875,-1.59375 -0.390625,-2.328125 -0.453125,-0.96875 -1.28125,-1.125 -1.6875,-1.125 -0.609375,0 -1.328125,0.265625 -1.75,1.1875 -0.3125,0.6875 -0.359375,1.46875 -0.359375,2.265625 0,0.75 0.03125,1.640625 0.453125,2.40625 0.421875,0.796875 1.15625,1 1.640625,1 0.53125,0 1.296875,-0.203125 1.734375,-1.15625 0.3125,-0.6875 0.359375,-1.46875 0.359375,-2.25 z M 2.484375,0 C 2.09375,0 1.5,-0.25 1.328125,-1.203125 1.21875,-1.796875 1.21875,-2.71875 1.21875,-3.3125 c 0,-0.640625 0,-1.296875 0.078125,-1.828125 0.1875,-1.1875 0.9375,-1.28125 1.1875,-1.28125 0.328125,0 0.984375,0.1875 1.171875,1.171875 0.109375,0.5625 0.109375,1.3125 0.109375,1.9375 0,0.75 0,1.421875 -0.109375,2.0625 C 3.5,-0.296875 2.9375,0 2.484375,0 z m 0,0"
             style="stroke:none" />
        </symbol>
        <symbol
           id="textext-3c7b3c27-5"
           overflow="visible"
           style="overflow:visible">
          <path
             id="path4120"
             d="m 1.90625,-3.765625 c 0,-0.296875 -0.234375,-0.53125 -0.515625,-0.53125 -0.296875,0 -0.53125,0.234375 -0.53125,0.53125 0,0.28125 0.234375,0.53125 0.53125,0.53125 0.28125,0 0.515625,-0.25 0.515625,-0.53125 z m 0,3.234375 c 0,-0.28125 -0.234375,-0.53125 -0.515625,-0.53125 -0.296875,0 -0.53125,0.25 -0.53125,0.53125 C 0.859375,-0.234375 1.09375,0 1.390625,0 1.671875,0 1.90625,-0.234375 1.90625,-0.53125 z m 0,0"
             style="stroke:none" />
        </symbol>
        <symbol
           id="textext-3c7b3c27-6"
           overflow="visible"
           style="overflow:visible">
          <path
             id="path4123"
             d="m 2.9375,-6.375 c 0,-0.25 0,-0.265625 -0.234375,-0.265625 C 2.078125,-6 1.203125,-6 0.890625,-6 l 0,0.3125 c 0.203125,0 0.78125,0 1.296875,-0.265625 l 0,5.171875 c 0,0.359375 -0.03125,0.46875 -0.921875,0.46875 l -0.3125,0 0,0.3125 c 0.34375,-0.03125 1.203125,-0.03125 1.609375,-0.03125 0.390625,0 1.265625,0 1.609375,0.03125 l 0,-0.3125 -0.3125,0 c -0.90625,0 -0.921875,-0.109375 -0.921875,-0.46875 l 0,-5.59375 z m 0,0"
             style="stroke:none" />
        </symbol>
        <symbol
           id="textext-3c7b3c27-7"
           overflow="visible"
           style="overflow:visible">
          <path
             id="path4126"
             d="m 1.265625,-0.765625 1.0625,-1.03125 c 1.546875,-1.375 2.140625,-1.90625 2.140625,-2.90625 0,-1.140625 -0.890625,-1.9375 -2.109375,-1.9375 -1.125,0 -1.859375,0.921875 -1.859375,1.8125 0,0.546875 0.5,0.546875 0.53125,0.546875 0.171875,0 0.515625,-0.109375 0.515625,-0.53125 0,-0.25 -0.1875,-0.515625 -0.53125,-0.515625 -0.078125,0 -0.09375,0 -0.125,0.015625 0.21875,-0.65625 0.765625,-1.015625 1.34375,-1.015625 0.90625,0 1.328125,0.8125 1.328125,1.625 C 3.5625,-3.90625 3.078125,-3.125 2.515625,-2.5 l -1.90625,2.125 C 0.5,-0.265625 0.5,-0.234375 0.5,0 l 3.703125,0 0.265625,-1.734375 -0.234375,0 C 4.171875,-1.4375 4.109375,-1 4,-0.84375 3.9375,-0.765625 3.28125,-0.765625 3.0625,-0.765625 l -1.796875,0 z m 0,0"
             style="stroke:none" />
        </symbol>
        <symbol
           id="textext-3c7b3c27-8"
           overflow="visible"
           style="overflow:visible">
          <path
             id="path4129"
             d="m 2.890625,-3.515625 c 0.8125,-0.265625 1.390625,-0.953125 1.390625,-1.75 0,-0.8125 -0.875,-1.375 -1.828125,-1.375 -1,0 -1.765625,0.59375 -1.765625,1.359375 0,0.328125 0.21875,0.515625 0.515625,0.515625 0.296875,0 0.5,-0.21875 0.5,-0.515625 0,-0.484375 -0.46875,-0.484375 -0.609375,-0.484375 0.296875,-0.5 0.953125,-0.625 1.3125,-0.625 0.421875,0 0.96875,0.21875 0.96875,1.109375 0,0.125 -0.03125,0.703125 -0.28125,1.140625 C 2.796875,-3.65625 2.453125,-3.625 2.203125,-3.625 2.125,-3.609375 1.890625,-3.59375 1.8125,-3.59375 c -0.078125,0.015625 -0.140625,0.03125 -0.140625,0.125 0,0.109375 0.0625,0.109375 0.234375,0.109375 l 0.4375,0 c 0.8125,0 1.1875,0.671875 1.1875,1.65625 0,1.359375 -0.6875,1.640625 -1.125,1.640625 -0.4375,0 -1.1875,-0.171875 -1.53125,-0.75 0.34375,0.046875 0.65625,-0.171875 0.65625,-0.546875 0,-0.359375 -0.265625,-0.5625 -0.546875,-0.5625 -0.25,0 -0.5625,0.140625 -0.5625,0.578125 0,0.90625 0.921875,1.5625 2.015625,1.5625 1.21875,0 2.125,-0.90625 2.125,-1.921875 0,-0.8125 -0.640625,-1.59375 -1.671875,-1.8125 z m 0,0"
             style="stroke:none" />
        </symbol>
        <symbol
           id="textext-3c7b3c27-9"
           overflow="visible"
           style="overflow:visible">
          <path
             id="path4132"
             d="m 2.9375,-1.640625 0,0.859375 c 0,0.359375 -0.03125,0.46875 -0.765625,0.46875 l -0.203125,0 0,0.3125 C 2.375,-0.03125 2.890625,-0.03125 3.3125,-0.03125 c 0.421875,0 0.9375,0 1.359375,0.03125 l 0,-0.3125 -0.21875,0 c -0.734375,0 -0.75,-0.109375 -0.75,-0.46875 l 0,-0.859375 0.984375,0 0,-0.3125 -0.984375,0 0,-4.53125 c 0,-0.203125 0,-0.265625 -0.171875,-0.265625 -0.078125,0 -0.109375,0 -0.1875,0.125 l -3.0625,4.671875 0,0.3125 2.65625,0 z m 0.046875,-0.3125 -2.421875,0 2.421875,-3.71875 0,3.71875 z m 0,0"
             style="stroke:none" />
        </symbol>
        <symbol
           id="textext-3c7b3c27-10"
           overflow="visible"
           style="overflow:visible">
          <path
             id="path4135"
             d="m 1.3125,-3.265625 0,-0.25 c 0,-2.515625 1.234375,-2.875 1.75,-2.875 0.234375,0 0.65625,0.0625 0.875,0.40625 -0.15625,0 -0.546875,0 -0.546875,0.4375 0,0.3125 0.234375,0.46875 0.453125,0.46875 0.15625,0 0.46875,-0.09375 0.46875,-0.484375 0,-0.59375 -0.4375,-1.078125 -1.265625,-1.078125 -1.28125,0 -2.625,1.28125 -2.625,3.484375 0,2.671875 1.15625,3.375 2.078125,3.375 1.109375,0 2.0625,-0.9375 2.0625,-2.25 0,-1.265625 -0.890625,-2.21875 -2,-2.21875 -0.671875,0 -1.046875,0.5 -1.25,0.984375 z M 2.5,-0.0625 c -0.625,0 -0.921875,-0.59375 -0.984375,-0.75 -0.1875,-0.46875 -0.1875,-1.265625 -0.1875,-1.4375 0,-0.78125 0.328125,-1.78125 1.21875,-1.78125 0.171875,0 0.625,0 0.9375,0.625 0.171875,0.359375 0.171875,0.875 0.171875,1.359375 0,0.484375 0,0.984375 -0.171875,1.34375 C 3.1875,-0.109375 2.734375,-0.0625 2.5,-0.0625 z m 0,0"
             style="stroke:none" />
        </symbol>
        <symbol
           id="textext-3c7b3c27-11"
           overflow="visible"
           style="overflow:visible">
          <path
             id="path4138"
             d="m 4.46875,-2 c 0,-1.1875 -0.8125,-2.1875 -1.890625,-2.1875 -0.46875,0 -0.90625,0.15625 -1.265625,0.515625 l 0,-1.953125 c 0.203125,0.0625 0.53125,0.125 0.84375,0.125 1.234375,0 1.9375,-0.90625 1.9375,-1.03125 0,-0.0625 -0.03125,-0.109375 -0.109375,-0.109375 0,0 -0.03125,0 -0.078125,0.03125 C 3.703125,-6.515625 3.21875,-6.3125 2.546875,-6.3125 2.15625,-6.3125 1.6875,-6.390625 1.21875,-6.59375 1.140625,-6.625 1.125,-6.625 1.109375,-6.625 1,-6.625 1,-6.546875 1,-6.390625 L 1,-3.4375 c 0,0.171875 0,0.25 0.140625,0.25 0.078125,0 0.09375,-0.015625 0.140625,-0.078125 C 1.390625,-3.421875 1.75,-3.96875 2.5625,-3.96875 c 0.515625,0 0.765625,0.453125 0.84375,0.640625 0.15625,0.375 0.1875,0.75 0.1875,1.25 0,0.359375 0,0.953125 -0.25,1.375 C 3.109375,-0.3125 2.734375,-0.0625 2.28125,-0.0625 c -0.71875,0 -1.296875,-0.53125 -1.46875,-1.109375 0.03125,0 0.0625,0.015625 0.171875,0.015625 0.328125,0 0.5,-0.25 0.5,-0.484375 0,-0.25 -0.171875,-0.5 -0.5,-0.5 C 0.84375,-2.140625 0.5,-2.0625 0.5,-1.609375 0.5,-0.75 1.1875,0.21875 2.296875,0.21875 3.453125,0.21875 4.46875,-0.734375 4.46875,-2 z m 0,0"
             style="stroke:none" />
        </symbol>
      </g>
    </defs>
    <defs
       id="defs4844">
      <g
         id="g4846">
        <symbol
           style="overflow:visible"
           overflow="visible"
           id="textext-497cf8e2-0">
          <path
             style="stroke:none"
             d=""
             id="path4849" />
        </symbol>
        <symbol
           style="overflow:visible"
           overflow="visible"
           id="textext-497cf8e2-1">
          <path
             style="stroke:none"
             d="m 0.875,-0.59375 c -0.03125,0.15625 -0.09375,0.390625 -0.09375,0.4375 0,0.171875 0.140625,0.265625 0.296875,0.265625 0.125,0 0.296875,-0.078125 0.375,-0.28125 0,-0.015625 0.125,-0.484375 0.1875,-0.734375 l 0.21875,-0.890625 C 1.90625,-2.03125 1.96875,-2.25 2.03125,-2.46875 c 0.03125,-0.171875 0.109375,-0.46875 0.125,-0.5 0.140625,-0.3125 0.671875,-1.21875 1.625,-1.21875 0.453125,0 0.53125,0.375 0.53125,0.703125 0,0.609375 -0.484375,1.890625 -0.640625,2.3125 C 3.578125,-0.9375 3.5625,-0.8125 3.5625,-0.703125 c 0,0.46875 0.359375,0.8125 0.828125,0.8125 0.9375,0 1.296875,-1.453125 1.296875,-1.53125 0,-0.109375 -0.078125,-0.109375 -0.109375,-0.109375 -0.109375,0 -0.109375,0.03125 -0.15625,0.1875 -0.203125,0.671875 -0.53125,1.234375 -1.015625,1.234375 -0.171875,0 -0.234375,-0.09375 -0.234375,-0.328125 0,-0.25 0.078125,-0.484375 0.171875,-0.703125 0.1875,-0.53125 0.609375,-1.625 0.609375,-2.203125 0,-0.65625 -0.421875,-1.0625 -1.140625,-1.0625 -0.90625,0 -1.390625,0.640625 -1.5625,0.875 -0.046875,-0.5625 -0.453125,-0.875 -0.921875,-0.875 -0.453125,0 -0.640625,0.390625 -0.734375,0.5625 C 0.421875,-3.5 0.296875,-2.90625 0.296875,-2.875 c 0,0.109375 0.09375,0.109375 0.109375,0.109375 0.109375,0 0.109375,-0.015625 0.171875,-0.234375 0.171875,-0.703125 0.375,-1.1875 0.734375,-1.1875 0.1875,0 0.296875,0.125 0.296875,0.453125 0,0.21875 -0.03125,0.328125 -0.15625,0.84375 L 0.875,-0.59375 z m 0,0"
             id="path4852" />
        </symbol>
        <symbol
           style="overflow:visible"
           overflow="visible"
           id="textext-497cf8e2-2">
          <path
             style="stroke:none"
             d=""
             id="path4855" />
        </symbol>
        <symbol
           style="overflow:visible"
           overflow="visible"
           id="textext-497cf8e2-3">
          <path
             style="stroke:none"
             d="m 6.84375,-3.265625 c 0.15625,0 0.34375,0 0.34375,-0.1875 C 7.1875,-3.65625 7,-3.65625 6.859375,-3.65625 l -5.96875,0 c -0.140625,0 -0.328125,0 -0.328125,0.203125 0,0.1875 0.1875,0.1875 0.328125,0.1875 l 5.953125,0 z m 0.015625,1.9375 c 0.140625,0 0.328125,0 0.328125,-0.203125 0,-0.1875 -0.1875,-0.1875 -0.34375,-0.1875 l -5.953125,0 c -0.140625,0 -0.328125,0 -0.328125,0.1875 0,0.203125 0.1875,0.203125 0.328125,0.203125 l 5.96875,0 z m 0,0"
             id="path4858" />
        </symbol>
        <symbol
           style="overflow:visible"
           overflow="visible"
           id="textext-497cf8e2-4">
          <path
             style="stroke:none"
             d="m 4.578125,-3.1875 c 0,-0.796875 -0.046875,-1.59375 -0.390625,-2.328125 -0.453125,-0.96875 -1.28125,-1.125 -1.6875,-1.125 -0.609375,0 -1.328125,0.265625 -1.75,1.1875 -0.3125,0.6875 -0.359375,1.46875 -0.359375,2.265625 0,0.75 0.03125,1.640625 0.453125,2.40625 0.421875,0.796875 1.15625,1 1.640625,1 0.53125,0 1.296875,-0.203125 1.734375,-1.15625 0.3125,-0.6875 0.359375,-1.46875 0.359375,-2.25 z M 2.484375,0 C 2.09375,0 1.5,-0.25 1.328125,-1.203125 1.21875,-1.796875 1.21875,-2.71875 1.21875,-3.3125 c 0,-0.640625 0,-1.296875 0.078125,-1.828125 0.1875,-1.1875 0.9375,-1.28125 1.1875,-1.28125 0.328125,0 0.984375,0.1875 1.171875,1.171875 0.109375,0.5625 0.109375,1.3125 0.109375,1.9375 0,0.75 0,1.421875 -0.109375,2.0625 C 3.5,-0.296875 2.9375,0 2.484375,0 z m 0,0"
             id="path4861" />
        </symbol>
        <symbol
           style="overflow:visible"
           overflow="visible"
           id="textext-497cf8e2-5">
          <path
             style="stroke:none"
             d="m 1.90625,-3.765625 c 0,-0.296875 -0.234375,-0.53125 -0.515625,-0.53125 -0.296875,0 -0.53125,0.234375 -0.53125,0.53125 0,0.28125 0.234375,0.53125 0.53125,0.53125 0.28125,0 0.515625,-0.25 0.515625,-0.53125 z m 0,3.234375 c 0,-0.28125 -0.234375,-0.53125 -0.515625,-0.53125 -0.296875,0 -0.53125,0.25 -0.53125,0.53125 C 0.859375,-0.234375 1.09375,0 1.390625,0 1.671875,0 1.90625,-0.234375 1.90625,-0.53125 z m 0,0"
             id="path4864" />
        </symbol>
        <symbol
           style="overflow:visible"
           overflow="visible"
           id="textext-497cf8e2-6">
          <path
             style="stroke:none"
             d="m 2.9375,-6.375 c 0,-0.25 0,-0.265625 -0.234375,-0.265625 C 2.078125,-6 1.203125,-6 0.890625,-6 l 0,0.3125 c 0.203125,0 0.78125,0 1.296875,-0.265625 l 0,5.171875 c 0,0.359375 -0.03125,0.46875 -0.921875,0.46875 l -0.3125,0 0,0.3125 c 0.34375,-0.03125 1.203125,-0.03125 1.609375,-0.03125 0.390625,0 1.265625,0 1.609375,0.03125 l 0,-0.3125 -0.3125,0 c -0.90625,0 -0.921875,-0.109375 -0.921875,-0.46875 l 0,-5.59375 z m 0,0"
             id="path4867" />
        </symbol>
        <symbol
           style="overflow:visible"
           overflow="visible"
           id="textext-497cf8e2-7">
          <path
             style="stroke:none"
             d="m 1.265625,-0.765625 1.0625,-1.03125 c 1.546875,-1.375 2.140625,-1.90625 2.140625,-2.90625 0,-1.140625 -0.890625,-1.9375 -2.109375,-1.9375 -1.125,0 -1.859375,0.921875 -1.859375,1.8125 0,0.546875 0.5,0.546875 0.53125,0.546875 0.171875,0 0.515625,-0.109375 0.515625,-0.53125 0,-0.25 -0.1875,-0.515625 -0.53125,-0.515625 -0.078125,0 -0.09375,0 -0.125,0.015625 0.21875,-0.65625 0.765625,-1.015625 1.34375,-1.015625 0.90625,0 1.328125,0.8125 1.328125,1.625 C 3.5625,-3.90625 3.078125,-3.125 2.515625,-2.5 l -1.90625,2.125 C 0.5,-0.265625 0.5,-0.234375 0.5,0 l 3.703125,0 0.265625,-1.734375 -0.234375,0 C 4.171875,-1.4375 4.109375,-1 4,-0.84375 3.9375,-0.765625 3.28125,-0.765625 3.0625,-0.765625 l -1.796875,0 z m 0,0"
             id="path4870" />
        </symbol>
        <symbol
           style="overflow:visible"
           overflow="visible"
           id="textext-497cf8e2-8">
          <path
             style="stroke:none"
             d="m 2.890625,-3.515625 c 0.8125,-0.265625 1.390625,-0.953125 1.390625,-1.75 0,-0.8125 -0.875,-1.375 -1.828125,-1.375 -1,0 -1.765625,0.59375 -1.765625,1.359375 0,0.328125 0.21875,0.515625 0.515625,0.515625 0.296875,0 0.5,-0.21875 0.5,-0.515625 0,-0.484375 -0.46875,-0.484375 -0.609375,-0.484375 0.296875,-0.5 0.953125,-0.625 1.3125,-0.625 0.421875,0 0.96875,0.21875 0.96875,1.109375 0,0.125 -0.03125,0.703125 -0.28125,1.140625 C 2.796875,-3.65625 2.453125,-3.625 2.203125,-3.625 2.125,-3.609375 1.890625,-3.59375 1.8125,-3.59375 c -0.078125,0.015625 -0.140625,0.03125 -0.140625,0.125 0,0.109375 0.0625,0.109375 0.234375,0.109375 l 0.4375,0 c 0.8125,0 1.1875,0.671875 1.1875,1.65625 0,1.359375 -0.6875,1.640625 -1.125,1.640625 -0.4375,0 -1.1875,-0.171875 -1.53125,-0.75 0.34375,0.046875 0.65625,-0.171875 0.65625,-0.546875 0,-0.359375 -0.265625,-0.5625 -0.546875,-0.5625 -0.25,0 -0.5625,0.140625 -0.5625,0.578125 0,0.90625 0.921875,1.5625 2.015625,1.5625 1.21875,0 2.125,-0.90625 2.125,-1.921875 0,-0.8125 -0.640625,-1.59375 -1.671875,-1.8125 z m 0,0"
             id="path4873" />
        </symbol>
        <symbol
           style="overflow:visible"
           overflow="visible"
           id="textext-497cf8e2-9">
          <path
             style="stroke:none"
             d="m 2.9375,-1.640625 0,0.859375 c 0,0.359375 -0.03125,0.46875 -0.765625,0.46875 l -0.203125,0 0,0.3125 C 2.375,-0.03125 2.890625,-0.03125 3.3125,-0.03125 c 0.421875,0 0.9375,0 1.359375,0.03125 l 0,-0.3125 -0.21875,0 c -0.734375,0 -0.75,-0.109375 -0.75,-0.46875 l 0,-0.859375 0.984375,0 0,-0.3125 -0.984375,0 0,-4.53125 c 0,-0.203125 0,-0.265625 -0.171875,-0.265625 -0.078125,0 -0.109375,0 -0.1875,0.125 l -3.0625,4.671875 0,0.3125 2.65625,0 z m 0.046875,-0.3125 -2.421875,0 2.421875,-3.71875 0,3.71875 z m 0,0"
             id="path4876" />
        </symbol>
        <symbol
           style="overflow:visible"
           overflow="visible"
           id="textext-497cf8e2-10">
          <path
             style="stroke:none"
             d="m 1.3125,-3.265625 0,-0.25 c 0,-2.515625 1.234375,-2.875 1.75,-2.875 0.234375,0 0.65625,0.0625 0.875,0.40625 -0.15625,0 -0.546875,0 -0.546875,0.4375 0,0.3125 0.234375,0.46875 0.453125,0.46875 0.15625,0 0.46875,-0.09375 0.46875,-0.484375 0,-0.59375 -0.4375,-1.078125 -1.265625,-1.078125 -1.28125,0 -2.625,1.28125 -2.625,3.484375 0,2.671875 1.15625,3.375 2.078125,3.375 1.109375,0 2.0625,-0.9375 2.0625,-2.25 0,-1.265625 -0.890625,-2.21875 -2,-2.21875 -0.671875,0 -1.046875,0.5 -1.25,0.984375 z M 2.5,-0.0625 c -0.625,0 -0.921875,-0.59375 -0.984375,-0.75 -0.1875,-0.46875 -0.1875,-1.265625 -0.1875,-1.4375 0,-0.78125 0.328125,-1.78125 1.21875,-1.78125 0.171875,0 0.625,0 0.9375,0.625 0.171875,0.359375 0.171875,0.875 0.171875,1.359375 0,0.484375 0,0.984375 -0.171875,1.34375 C 3.1875,-0.109375 2.734375,-0.0625 2.5,-0.0625 z m 0,0"
             id="path4879" />
        </symbol>
        <symbol
           style="overflow:visible"
           overflow="visible"
           id="textext-497cf8e2-11">
          <path
             style="stroke:none"
             d="m 4.46875,-2 c 0,-1.1875 -0.8125,-2.1875 -1.890625,-2.1875 -0.46875,0 -0.90625,0.15625 -1.265625,0.515625 l 0,-1.953125 c 0.203125,0.0625 0.53125,0.125 0.84375,0.125 1.234375,0 1.9375,-0.90625 1.9375,-1.03125 0,-0.0625 -0.03125,-0.109375 -0.109375,-0.109375 0,0 -0.03125,0 -0.078125,0.03125 C 3.703125,-6.515625 3.21875,-6.3125 2.546875,-6.3125 2.15625,-6.3125 1.6875,-6.390625 1.21875,-6.59375 1.140625,-6.625 1.125,-6.625 1.109375,-6.625 1,-6.625 1,-6.546875 1,-6.390625 L 1,-3.4375 c 0,0.171875 0,0.25 0.140625,0.25 0.078125,0 0.09375,-0.015625 0.140625,-0.078125 C 1.390625,-3.421875 1.75,-3.96875 2.5625,-3.96875 c 0.515625,0 0.765625,0.453125 0.84375,0.640625 0.15625,0.375 0.1875,0.75 0.1875,1.25 0,0.359375 0,0.953125 -0.25,1.375 C 3.109375,-0.3125 2.734375,-0.0625 2.28125,-0.0625 c -0.71875,0 -1.296875,-0.53125 -1.46875,-1.109375 0.03125,0 0.0625,0.015625 0.171875,0.015625 0.328125,0 0.5,-0.25 0.5,-0.484375 0,-0.25 -0.171875,-0.5 -0.5,-0.5 C 0.84375,-2.140625 0.5,-2.0625 0.5,-1.609375 0.5,-0.75 1.1875,0.21875 2.296875,0.21875 3.453125,0.21875 4.46875,-0.734375 4.46875,-2 z m 0,0"
             id="path4882" />
        </symbol>
      </g>
    </defs>
    <defs
       id="defs6822">
      <g
         id="g6824">
        <symbol
           id="textext-e2305e3f-0"
           overflow="visible"
           style="overflow:visible">
          <path
             id="path6827"
             d=""
             style="stroke:none" />
        </symbol>
        <symbol
           id="textext-e2305e3f-1"
           overflow="visible"
           style="overflow:visible">
          <path
             id="path6830"
             d="m 0.875,-0.59375 c -0.03125,0.15625 -0.09375,0.390625 -0.09375,0.4375 0,0.171875 0.140625,0.265625 0.296875,0.265625 0.125,0 0.296875,-0.078125 0.375,-0.28125 0,-0.015625 0.125,-0.484375 0.1875,-0.734375 l 0.21875,-0.890625 C 1.90625,-2.03125 1.96875,-2.25 2.03125,-2.46875 c 0.03125,-0.171875 0.109375,-0.46875 0.125,-0.5 0.140625,-0.3125 0.671875,-1.21875 1.625,-1.21875 0.453125,0 0.53125,0.375 0.53125,0.703125 0,0.609375 -0.484375,1.890625 -0.640625,2.3125 C 3.578125,-0.9375 3.5625,-0.8125 3.5625,-0.703125 c 0,0.46875 0.359375,0.8125 0.828125,0.8125 0.9375,0 1.296875,-1.453125 1.296875,-1.53125 0,-0.109375 -0.078125,-0.109375 -0.109375,-0.109375 -0.109375,0 -0.109375,0.03125 -0.15625,0.1875 -0.203125,0.671875 -0.53125,1.234375 -1.015625,1.234375 -0.171875,0 -0.234375,-0.09375 -0.234375,-0.328125 0,-0.25 0.078125,-0.484375 0.171875,-0.703125 0.1875,-0.53125 0.609375,-1.625 0.609375,-2.203125 0,-0.65625 -0.421875,-1.0625 -1.140625,-1.0625 -0.90625,0 -1.390625,0.640625 -1.5625,0.875 -0.046875,-0.5625 -0.453125,-0.875 -0.921875,-0.875 -0.453125,0 -0.640625,0.390625 -0.734375,0.5625 C 0.421875,-3.5 0.296875,-2.90625 0.296875,-2.875 c 0,0.109375 0.09375,0.109375 0.109375,0.109375 0.109375,0 0.109375,-0.015625 0.171875,-0.234375 0.171875,-0.703125 0.375,-1.1875 0.734375,-1.1875 0.1875,0 0.296875,0.125 0.296875,0.453125 0,0.21875 -0.03125,0.328125 -0.15625,0.84375 L 0.875,-0.59375 z m 0,0"
             style="stroke:none" />
        </symbol>
        <symbol
           id="textext-e2305e3f-2"
           overflow="visible"
           style="overflow:visible">
          <path
             id="path6833"
             d=""
             style="stroke:none" />
        </symbol>
        <symbol
           id="textext-e2305e3f-3"
           overflow="visible"
           style="overflow:visible">
          <path
             id="path6836"
             d="m 6.84375,-3.265625 c 0.15625,0 0.34375,0 0.34375,-0.1875 C 7.1875,-3.65625 7,-3.65625 6.859375,-3.65625 l -5.96875,0 c -0.140625,0 -0.328125,0 -0.328125,0.203125 0,0.1875 0.1875,0.1875 0.328125,0.1875 l 5.953125,0 z m 0.015625,1.9375 c 0.140625,0 0.328125,0 0.328125,-0.203125 0,-0.1875 -0.1875,-0.1875 -0.34375,-0.1875 l -5.953125,0 c -0.140625,0 -0.328125,0 -0.328125,0.1875 0,0.203125 0.1875,0.203125 0.328125,0.203125 l 5.96875,0 z m 0,0"
             style="stroke:none" />
        </symbol>
        <symbol
           id="textext-e2305e3f-4"
           overflow="visible"
           style="overflow:visible">
          <path
             id="path6839"
             d="m 4.578125,-3.1875 c 0,-0.796875 -0.046875,-1.59375 -0.390625,-2.328125 -0.453125,-0.96875 -1.28125,-1.125 -1.6875,-1.125 -0.609375,0 -1.328125,0.265625 -1.75,1.1875 -0.3125,0.6875 -0.359375,1.46875 -0.359375,2.265625 0,0.75 0.03125,1.640625 0.453125,2.40625 0.421875,0.796875 1.15625,1 1.640625,1 0.53125,0 1.296875,-0.203125 1.734375,-1.15625 0.3125,-0.6875 0.359375,-1.46875 0.359375,-2.25 z M 2.484375,0 C 2.09375,0 1.5,-0.25 1.328125,-1.203125 1.21875,-1.796875 1.21875,-2.71875 1.21875,-3.3125 c 0,-0.640625 0,-1.296875 0.078125,-1.828125 0.1875,-1.1875 0.9375,-1.28125 1.1875,-1.28125 0.328125,0 0.984375,0.1875 1.171875,1.171875 0.109375,0.5625 0.109375,1.3125 0.109375,1.9375 0,0.75 0,1.421875 -0.109375,2.0625 C 3.5,-0.296875 2.9375,0 2.484375,0 z m 0,0"
             style="stroke:none" />
        </symbol>
        <symbol
           id="textext-e2305e3f-5"
           overflow="visible"
           style="overflow:visible">
          <path
             id="path6842"
             d="m 1.90625,-3.765625 c 0,-0.296875 -0.234375,-0.53125 -0.515625,-0.53125 -0.296875,0 -0.53125,0.234375 -0.53125,0.53125 0,0.28125 0.234375,0.53125 0.53125,0.53125 0.28125,0 0.515625,-0.25 0.515625,-0.53125 z m 0,3.234375 c 0,-0.28125 -0.234375,-0.53125 -0.515625,-0.53125 -0.296875,0 -0.53125,0.25 -0.53125,0.53125 C 0.859375,-0.234375 1.09375,0 1.390625,0 1.671875,0 1.90625,-0.234375 1.90625,-0.53125 z m 0,0"
             style="stroke:none" />
        </symbol>
        <symbol
           id="textext-e2305e3f-6"
           overflow="visible"
           style="overflow:visible">
          <path
             id="path6845"
             d="m 2.9375,-6.375 c 0,-0.25 0,-0.265625 -0.234375,-0.265625 C 2.078125,-6 1.203125,-6 0.890625,-6 l 0,0.3125 c 0.203125,0 0.78125,0 1.296875,-0.265625 l 0,5.171875 c 0,0.359375 -0.03125,0.46875 -0.921875,0.46875 l -0.3125,0 0,0.3125 c 0.34375,-0.03125 1.203125,-0.03125 1.609375,-0.03125 0.390625,0 1.265625,0 1.609375,0.03125 l 0,-0.3125 -0.3125,0 c -0.90625,0 -0.921875,-0.109375 -0.921875,-0.46875 l 0,-5.59375 z m 0,0"
             style="stroke:none" />
        </symbol>
        <symbol
           id="textext-e2305e3f-7"
           overflow="visible"
           style="overflow:visible">
          <path
             id="path6848"
             d="m 1.265625,-0.765625 1.0625,-1.03125 c 1.546875,-1.375 2.140625,-1.90625 2.140625,-2.90625 0,-1.140625 -0.890625,-1.9375 -2.109375,-1.9375 -1.125,0 -1.859375,0.921875 -1.859375,1.8125 0,0.546875 0.5,0.546875 0.53125,0.546875 0.171875,0 0.515625,-0.109375 0.515625,-0.53125 0,-0.25 -0.1875,-0.515625 -0.53125,-0.515625 -0.078125,0 -0.09375,0 -0.125,0.015625 0.21875,-0.65625 0.765625,-1.015625 1.34375,-1.015625 0.90625,0 1.328125,0.8125 1.328125,1.625 C 3.5625,-3.90625 3.078125,-3.125 2.515625,-2.5 l -1.90625,2.125 C 0.5,-0.265625 0.5,-0.234375 0.5,0 l 3.703125,0 0.265625,-1.734375 -0.234375,0 C 4.171875,-1.4375 4.109375,-1 4,-0.84375 3.9375,-0.765625 3.28125,-0.765625 3.0625,-0.765625 l -1.796875,0 z m 0,0"
             style="stroke:none" />
        </symbol>
        <symbol
           id="textext-e2305e3f-8"
           overflow="visible"
           style="overflow:visible">
          <path
             id="path6851"
             d="m 2.890625,-3.515625 c 0.8125,-0.265625 1.390625,-0.953125 1.390625,-1.75 0,-0.8125 -0.875,-1.375 -1.828125,-1.375 -1,0 -1.765625,0.59375 -1.765625,1.359375 0,0.328125 0.21875,0.515625 0.515625,0.515625 0.296875,0 0.5,-0.21875 0.5,-0.515625 0,-0.484375 -0.46875,-0.484375 -0.609375,-0.484375 0.296875,-0.5 0.953125,-0.625 1.3125,-0.625 0.421875,0 0.96875,0.21875 0.96875,1.109375 0,0.125 -0.03125,0.703125 -0.28125,1.140625 C 2.796875,-3.65625 2.453125,-3.625 2.203125,-3.625 2.125,-3.609375 1.890625,-3.59375 1.8125,-3.59375 c -0.078125,0.015625 -0.140625,0.03125 -0.140625,0.125 0,0.109375 0.0625,0.109375 0.234375,0.109375 l 0.4375,0 c 0.8125,0 1.1875,0.671875 1.1875,1.65625 0,1.359375 -0.6875,1.640625 -1.125,1.640625 -0.4375,0 -1.1875,-0.171875 -1.53125,-0.75 0.34375,0.046875 0.65625,-0.171875 0.65625,-0.546875 0,-0.359375 -0.265625,-0.5625 -0.546875,-0.5625 -0.25,0 -0.5625,0.140625 -0.5625,0.578125 0,0.90625 0.921875,1.5625 2.015625,1.5625 1.21875,0 2.125,-0.90625 2.125,-1.921875 0,-0.8125 -0.640625,-1.59375 -1.671875,-1.8125 z m 0,0"
             style="stroke:none" />
        </symbol>
        <symbol
           id="textext-e2305e3f-9"
           overflow="visible"
           style="overflow:visible">
          <path
             id="path6854"
             d="m 2.9375,-1.640625 0,0.859375 c 0,0.359375 -0.03125,0.46875 -0.765625,0.46875 l -0.203125,0 0,0.3125 C 2.375,-0.03125 2.890625,-0.03125 3.3125,-0.03125 c 0.421875,0 0.9375,0 1.359375,0.03125 l 0,-0.3125 -0.21875,0 c -0.734375,0 -0.75,-0.109375 -0.75,-0.46875 l 0,-0.859375 0.984375,0 0,-0.3125 -0.984375,0 0,-4.53125 c 0,-0.203125 0,-0.265625 -0.171875,-0.265625 -0.078125,0 -0.109375,0 -0.1875,0.125 l -3.0625,4.671875 0,0.3125 2.65625,0 z m 0.046875,-0.3125 -2.421875,0 2.421875,-3.71875 0,3.71875 z m 0,0"
             style="stroke:none" />
        </symbol>
        <symbol
           id="textext-e2305e3f-10"
           overflow="visible"
           style="overflow:visible">
          <path
             id="path6857"
             d="m 1.3125,-3.265625 0,-0.25 c 0,-2.515625 1.234375,-2.875 1.75,-2.875 0.234375,0 0.65625,0.0625 0.875,0.40625 -0.15625,0 -0.546875,0 -0.546875,0.4375 0,0.3125 0.234375,0.46875 0.453125,0.46875 0.15625,0 0.46875,-0.09375 0.46875,-0.484375 0,-0.59375 -0.4375,-1.078125 -1.265625,-1.078125 -1.28125,0 -2.625,1.28125 -2.625,3.484375 0,2.671875 1.15625,3.375 2.078125,3.375 1.109375,0 2.0625,-0.9375 2.0625,-2.25 0,-1.265625 -0.890625,-2.21875 -2,-2.21875 -0.671875,0 -1.046875,0.5 -1.25,0.984375 z M 2.5,-0.0625 c -0.625,0 -0.921875,-0.59375 -0.984375,-0.75 -0.1875,-0.46875 -0.1875,-1.265625 -0.1875,-1.4375 0,-0.78125 0.328125,-1.78125 1.21875,-1.78125 0.171875,0 0.625,0 0.9375,0.625 0.171875,0.359375 0.171875,0.875 0.171875,1.359375 0,0.484375 0,0.984375 -0.171875,1.34375 C 3.1875,-0.109375 2.734375,-0.0625 2.5,-0.0625 z m 0,0"
             style="stroke:none" />
        </symbol>
        <symbol
           id="textext-e2305e3f-11"
           overflow="visible"
           style="overflow:visible">
          <path
             id="path6860"
             d="m 4.46875,-2 c 0,-1.1875 -0.8125,-2.1875 -1.890625,-2.1875 -0.46875,0 -0.90625,0.15625 -1.265625,0.515625 l 0,-1.953125 c 0.203125,0.0625 0.53125,0.125 0.84375,0.125 1.234375,0 1.9375,-0.90625 1.9375,-1.03125 0,-0.0625 -0.03125,-0.109375 -0.109375,-0.109375 0,0 -0.03125,0 -0.078125,0.03125 C 3.703125,-6.515625 3.21875,-6.3125 2.546875,-6.3125 2.15625,-6.3125 1.6875,-6.390625 1.21875,-6.59375 1.140625,-6.625 1.125,-6.625 1.109375,-6.625 1,-6.625 1,-6.546875 1,-6.390625 L 1,-3.4375 c 0,0.171875 0,0.25 0.140625,0.25 0.078125,0 0.09375,-0.015625 0.140625,-0.078125 C 1.390625,-3.421875 1.75,-3.96875 2.5625,-3.96875 c 0.515625,0 0.765625,0.453125 0.84375,0.640625 0.15625,0.375 0.1875,0.75 0.1875,1.25 0,0.359375 0,0.953125 -0.25,1.375 C 3.109375,-0.3125 2.734375,-0.0625 2.28125,-0.0625 c -0.71875,0 -1.296875,-0.53125 -1.46875,-1.109375 0.03125,0 0.0625,0.015625 0.171875,0.015625 0.328125,0 0.5,-0.25 0.5,-0.484375 0,-0.25 -0.171875,-0.5 -0.5,-0.5 C 0.84375,-2.140625 0.5,-2.0625 0.5,-1.609375 0.5,-0.75 1.1875,0.21875 2.296875,0.21875 3.453125,0.21875 4.46875,-0.734375 4.46875,-2 z m 0,0"
             style="stroke:none" />
        </symbol>
      </g>
    </defs>
    <defs
       id="defs3284">
      <g
         id="g3286">
        <symbol
           style="overflow:visible"
           overflow="visible"
           id="textext-21a9117b-0">
          <path
             style="stroke:none"
             d=""
             id="path3289" />
        </symbol>
        <symbol
           style="overflow:visible"
           overflow="visible"
           id="textext-21a9117b-1">
          <path
             style="stroke:none"
             d="M 2.46875,-3.5 C 2.484375,-3.578125 2.78125,-4.171875 3.234375,-4.546875 3.53125,-4.84375 3.9375,-5.03125 4.40625,-5.03125 c 0.484375,0 0.65625,0.359375 0.65625,0.828125 0,0.6875 -0.5,2.046875 -0.734375,2.703125 -0.109375,0.28125 -0.171875,0.4375 -0.171875,0.65625 0,0.53125 0.375,0.96875 0.953125,0.96875 1.109375,0 1.53125,-1.765625 1.53125,-1.828125 0,-0.0625 -0.046875,-0.109375 -0.125,-0.109375 -0.109375,0 -0.125,0.03125 -0.1875,0.234375 C 6.0625,-0.59375 5.609375,-0.125 5.140625,-0.125 c -0.125,0 -0.3125,0 -0.3125,-0.390625 0,-0.296875 0.125,-0.65625 0.203125,-0.828125 C 5.265625,-2 5.765625,-3.328125 5.765625,-4.015625 c 0,-0.71875 -0.40625,-1.25 -1.3125,-1.25 -1.078125,0 -1.625,0.75 -1.84375,1.046875 -0.046875,-0.6875 -0.53125,-1.046875 -1.0625,-1.046875 -0.375,0 -0.640625,0.21875 -0.84375,0.625 -0.21875,0.4375 -0.375,1.15625 -0.375,1.203125 0,0.046875 0.046875,0.109375 0.125,0.109375 0.09375,0 0.109375,-0.015625 0.1875,-0.296875 0.1875,-0.71875 0.40625,-1.40625 0.875,-1.40625 0.28125,0 0.375,0.1875 0.375,0.546875 0,0.265625 -0.125,0.734375 -0.203125,1.109375 l -0.34375,1.28125 c -0.046875,0.234375 -0.171875,0.765625 -0.234375,0.984375 -0.078125,0.3125 -0.21875,0.875 -0.21875,0.9375 0,0.15625 0.140625,0.296875 0.3125,0.296875 0.140625,0 0.3125,-0.078125 0.40625,-0.25 C 1.640625,-0.1875 1.75,-0.609375 1.8125,-0.84375 L 2.0625,-1.921875 2.46875,-3.5 z m 0,0"
             id="path3292" />
        </symbol>
        <symbol
           style="overflow:visible"
           overflow="visible"
           id="textext-21a9117b-2">
          <path
             style="stroke:none"
             d=""
             id="path3295" />
        </symbol>
        <symbol
           style="overflow:visible"
           overflow="visible"
           id="textext-21a9117b-3">
          <path
             style="stroke:none"
             d="m 8.0625,-3.875 c 0.171875,0 0.390625,0 0.390625,-0.21875 C 8.453125,-4.3125 8.25,-4.3125 8.0625,-4.3125 l -7.03125,0 c -0.171875,0 -0.390625,0 -0.390625,0.21875 0,0.21875 0.203125,0.21875 0.390625,0.21875 l 7.03125,0 z m 0,2.21875 c 0.171875,0 0.390625,0 0.390625,-0.203125 C 8.453125,-2.09375 8.25,-2.09375 8.0625,-2.09375 l -7.03125,0 c -0.171875,0 -0.390625,0 -0.390625,0.21875 0,0.21875 0.203125,0.21875 0.390625,0.21875 l 7.03125,0 z m 0,0"
             id="path3298" />
        </symbol>
        <symbol
           style="overflow:visible"
           overflow="visible"
           id="textext-21a9117b-4">
          <path
             style="stroke:none"
             d="m 5.359375,-3.828125 c 0,-0.984375 -0.0625,-1.953125 -0.5,-2.859375 -0.484375,-1 -1.34375,-1.265625 -1.9375,-1.265625 -0.6875,0 -1.53125,0.34375 -1.984375,1.34375 -0.328125,0.75 -0.453125,1.5 -0.453125,2.78125 0,1.15625 0.09375,2.03125 0.515625,2.890625 0.46875,0.90625 1.296875,1.1875 1.921875,1.1875 1.03125,0 1.625,-0.625 1.984375,-1.3125 0.421875,-0.890625 0.453125,-2.0625 0.453125,-2.765625 z m -2.4375,3.84375 C 2.53125,0.015625 1.75,-0.203125 1.53125,-1.5 c -0.125,-0.71875 -0.125,-1.625 -0.125,-2.46875 0,-0.984375 0,-1.859375 0.1875,-2.5625 0.203125,-0.8125 0.8125,-1.171875 1.328125,-1.171875 0.453125,0 1.140625,0.265625 1.375,1.296875 0.15625,0.6875 0.15625,1.625 0.15625,2.4375 0,0.796875 0,1.703125 -0.140625,2.4375 -0.21875,1.3125 -0.984375,1.546875 -1.390625,1.546875 z m 0,0"
             id="path3301" />
        </symbol>
        <symbol
           style="overflow:visible"
           overflow="visible"
           id="textext-21a9117b-5">
          <path
             style="stroke:none"
             d="m 2.203125,-4.578125 c 0,-0.328125 -0.28125,-0.578125 -0.578125,-0.578125 -0.34375,0 -0.578125,0.28125 -0.578125,0.578125 C 1.046875,-4.21875 1.34375,-4 1.609375,-4 1.9375,-4 2.203125,-4.25 2.203125,-4.578125 z m 0,4 c 0,-0.328125 -0.28125,-0.578125 -0.578125,-0.578125 -0.34375,0 -0.578125,0.265625 -0.578125,0.578125 C 1.046875,-0.234375 1.34375,0 1.609375,0 1.9375,0 2.203125,-0.25 2.203125,-0.578125 z m 0,0"
             id="path3304" />
        </symbol>
        <symbol
           style="overflow:visible"
           overflow="visible"
           id="textext-21a9117b-6">
          <path
             style="stroke:none"
             d="m 3.4375,-7.65625 c 0,-0.28125 0,-0.296875 -0.234375,-0.296875 C 2.921875,-7.625 2.3125,-7.1875 1.09375,-7.1875 l 0,0.34375 c 0.265625,0 0.859375,0 1.53125,-0.296875 l 0,6.21875 c 0,0.4375 -0.046875,0.578125 -1.09375,0.578125 l -0.375,0 0,0.34375 c 0.328125,-0.03125 1.484375,-0.03125 1.875,-0.03125 0.40625,0 1.546875,0 1.875,0.03125 l 0,-0.34375 -0.375,0 c -1.046875,0 -1.09375,-0.140625 -1.09375,-0.578125 l 0,-6.734375 z m 0,0"
             id="path3307" />
        </symbol>
        <symbol
           style="overflow:visible"
           overflow="visible"
           id="textext-21a9117b-7">
          <path
             style="stroke:none"
             d="m 5.265625,-2.015625 -0.265625,0 c -0.046875,0.203125 -0.140625,0.875 -0.25,1.0625 C 4.65625,-0.84375 3.984375,-0.84375 3.625,-0.84375 l -2.21875,0 c 0.328125,-0.28125 1.0625,-1.046875 1.359375,-1.328125 1.828125,-1.671875 2.5,-2.296875 2.5,-3.484375 0,-1.375 -1.09375,-2.296875 -2.484375,-2.296875 -1.375,0 -2.203125,1.1875 -2.203125,2.21875 0,0.609375 0.53125,0.609375 0.5625,0.609375 0.265625,0 0.5625,-0.1875 0.5625,-0.5625 0,-0.34375 -0.21875,-0.5625 -0.5625,-0.5625 -0.09375,0 -0.125,0 -0.15625,0.015625 0.21875,-0.8125 0.875,-1.375 1.640625,-1.375 1.015625,0 1.640625,0.859375 1.640625,1.953125 C 4.265625,-4.640625 3.6875,-3.75 3,-2.984375 l -2.421875,2.703125 0,0.28125 4.375,0 0.3125,-2.015625 z m 0,0"
             id="path3310" />
        </symbol>
        <symbol
           style="overflow:visible"
           overflow="visible"
           id="textext-21a9117b-8">
          <path
             style="stroke:none"
             d="m 2.203125,-4.296875 c -0.203125,0.015625 -0.25,0.03125 -0.25,0.140625 0,0.109375 0.0625,0.109375 0.265625,0.109375 l 0.546875,0 c 1.03125,0 1.484375,0.84375 1.484375,1.984375 0,1.578125 -0.8125,1.984375 -1.40625,1.984375 -0.578125,0 -1.546875,-0.265625 -1.90625,-1.0625 0.390625,0.0625 0.734375,-0.15625 0.734375,-0.578125 0,-0.34375 -0.25,-0.59375 -0.578125,-0.59375 -0.296875,0 -0.609375,0.171875 -0.609375,0.625 0,1.0625 1.0625,1.9375 2.390625,1.9375 1.421875,0 2.484375,-1.09375 2.484375,-2.296875 C 5.359375,-3.140625 4.46875,-4 3.328125,-4.203125 4.359375,-4.5 5.03125,-5.375 5.03125,-6.3125 c 0,-0.9375 -0.984375,-1.640625 -2.140625,-1.640625 -1.1875,0 -2.078125,0.734375 -2.078125,1.609375 0,0.46875 0.375,0.578125 0.546875,0.578125 0.25,0 0.546875,-0.1875 0.546875,-0.546875 0,-0.375 -0.296875,-0.546875 -0.5625,-0.546875 -0.0625,0 -0.09375,0 -0.125,0.015625 0.453125,-0.8125 1.578125,-0.8125 1.640625,-0.8125 0.390625,0 1.171875,0.171875 1.171875,1.34375 0,0.234375 -0.03125,0.890625 -0.390625,1.40625 C 3.28125,-4.375 2.875,-4.34375 2.5625,-4.328125 l -0.359375,0.03125 z m 0,0"
             id="path3313" />
        </symbol>
        <symbol
           style="overflow:visible"
           overflow="visible"
           id="textext-21a9117b-9">
          <path
             style="stroke:none"
             d="m 4.3125,-7.78125 c 0,-0.234375 0,-0.28125 -0.171875,-0.28125 -0.09375,0 -0.125,0 -0.21875,0.140625 l -3.59375,5.578125 0,0.34375 3.140625,0 0,1.09375 c 0,0.4375 -0.03125,0.5625 -0.90625,0.5625 l -0.234375,0 0,0.34375 c 0.28125,-0.03125 1.21875,-0.03125 1.5625,-0.03125 0.328125,0 1.28125,0 1.5625,0.03125 l 0,-0.34375 -0.234375,0 c -0.875,0 -0.90625,-0.125 -0.90625,-0.5625 l 0,-1.09375 1.203125,0 0,-0.34375 -1.203125,0 0,-5.4375 z m -0.78125,0.9375 0,4.5 -2.90625,0 2.90625,-4.5 z m 0,0"
             id="path3316" />
        </symbol>
        <symbol
           style="overflow:visible"
           overflow="visible"
           id="textext-21a9117b-10">
          <path
             style="stroke:none"
             d="m 1.46875,-4.15625 c 0,-3.03125 1.46875,-3.5 2.109375,-3.5 0.4375,0 0.875,0.125 1.09375,0.484375 -0.140625,0 -0.59375,0 -0.59375,0.484375 0,0.265625 0.171875,0.5 0.484375,0.5 0.296875,0 0.5,-0.1875 0.5,-0.53125 0,-0.625 -0.453125,-1.234375 -1.484375,-1.234375 -1.515625,0 -3.09375,1.546875 -3.09375,4.171875 0,3.296875 1.4375,4.03125 2.453125,4.03125 1.3125,0 2.421875,-1.140625 2.421875,-2.6875 0,-1.59375 -1.109375,-2.65625 -2.3125,-2.65625 -1.0625,0 -1.453125,0.921875 -1.578125,1.25 l 0,-0.3125 z m 1.46875,4.078125 c -0.75,0 -1.109375,-0.65625 -1.21875,-0.90625 C 1.609375,-1.296875 1.5,-1.890625 1.5,-2.71875 c 0,-0.953125 0.421875,-2.140625 1.5,-2.140625 0.65625,0 1,0.453125 1.1875,0.859375 0.1875,0.4375 0.1875,1.03125 0.1875,1.546875 0,0.609375 0,1.15625 -0.234375,1.609375 -0.296875,0.5625 -0.71875,0.765625 -1.203125,0.765625 z m 0,0"
             id="path3319" />
        </symbol>
        <symbol
           style="overflow:visible"
           overflow="visible"
           id="textext-21a9117b-11">
          <path
             style="stroke:none"
             d="m 1.53125,-6.84375 c 0.515625,0.15625 0.9375,0.171875 1.0625,0.171875 1.34375,0 2.21875,-0.984375 2.21875,-1.15625 0,-0.046875 -0.03125,-0.109375 -0.109375,-0.109375 -0.015625,0 -0.046875,0 -0.15625,0.046875 C 3.890625,-7.609375 3.3125,-7.5625 3,-7.5625 c -0.78125,0 -1.34375,-0.25 -1.578125,-0.34375 C 1.34375,-7.9375 1.3125,-7.9375 1.296875,-7.9375 c -0.09375,0 -0.09375,0.078125 -0.09375,0.265625 l 0,3.546875 c 0,0.21875 0,0.28125 0.140625,0.28125 0.0625,0 0.078125,0 0.203125,-0.15625 C 1.875,-4.484375 2.4375,-4.765625 3.03125,-4.765625 c 0.640625,0 0.953125,0.578125 1.046875,0.78125 0.203125,0.46875 0.21875,1.0625 0.21875,1.515625 0,0.453125 0,1.125 -0.34375,1.671875 -0.265625,0.421875 -0.71875,0.71875 -1.25,0.71875 -0.796875,0 -1.5625,-0.53125 -1.78125,-1.40625 0.0625,0.03125 0.125,0.03125 0.1875,0.03125 0.203125,0 0.53125,-0.109375 0.53125,-0.515625 0,-0.34375 -0.234375,-0.53125 -0.53125,-0.53125 -0.21875,0 -0.53125,0.109375 -0.53125,0.578125 0,1.015625 0.828125,2.171875 2.140625,2.171875 1.359375,0 2.546875,-1.140625 2.546875,-2.65625 0,-1.421875 -0.96875,-2.609375 -2.21875,-2.609375 -0.6875,0 -1.203125,0.3125 -1.515625,0.640625 l 0,-2.46875 z m 0,0"
             id="path3322" />
        </symbol>
      </g>
    </defs>
    <defs
       id="defs4471">
      <g
         id="g4473">
        <symbol
           id="textext-f86c3b07-0"
           overflow="visible"
           style="overflow:visible">
          <path
             id="path4476"
             d=""
             style="stroke:none" />
        </symbol>
        <symbol
           id="textext-f86c3b07-1"
           overflow="visible"
           style="overflow:visible">
          <path
             id="path4479"
             d="m 3.359375,-8 c 0.015625,-0.046875 0.03125,-0.109375 0.03125,-0.171875 0,-0.125 -0.109375,-0.125 -0.140625,-0.125 -0.015625,0 -0.4375,0.03125 -0.65625,0.0625 C 2.390625,-8.21875 2.21875,-8.203125 2,-8.1875 c -0.296875,0.03125 -0.375,0.03125 -0.375,0.25 0,0.125 0.125,0.125 0.234375,0.125 0.609375,0 0.609375,0.109375 0.609375,0.21875 0,0.046875 0,0.078125 -0.046875,0.296875 L 0.703125,-0.46875 C 0.65625,-0.28125 0.65625,-0.265625 0.65625,-0.1875 c 0,0.265625 0.203125,0.3125 0.328125,0.3125 0.328125,0 0.40625,-0.265625 0.5,-0.640625 L 2.046875,-2.75 c 0.859375,0.09375 1.375,0.453125 1.375,1.03125 0,0.0625 0,0.109375 -0.046875,0.296875 -0.046875,0.171875 -0.046875,0.328125 -0.046875,0.375 0,0.703125 0.46875,1.171875 1.078125,1.171875 0.546875,0 0.828125,-0.5 0.921875,-0.671875 0.25,-0.4375 0.40625,-1.109375 0.40625,-1.15625 0,-0.0625 -0.046875,-0.109375 -0.109375,-0.109375 -0.109375,0 -0.125,0.046875 -0.171875,0.234375 C 5.28125,-0.953125 5.03125,-0.125 4.421875,-0.125 4.1875,-0.125 4.03125,-0.234375 4.03125,-0.6875 c 0,-0.234375 0.046875,-0.5 0.09375,-0.671875 0.046875,-0.21875 0.046875,-0.234375 0.046875,-0.375 0,-0.703125 -0.640625,-1.09375 -1.734375,-1.234375 0.4375,-0.265625 0.859375,-0.734375 1.03125,-0.921875 0.671875,-0.765625 1.140625,-1.140625 1.6875,-1.140625 0.28125,0 0.359375,0.078125 0.4375,0.140625 -0.4375,0.046875 -0.609375,0.359375 -0.609375,0.59375 0,0.296875 0.234375,0.390625 0.390625,0.390625 0.328125,0 0.609375,-0.28125 0.609375,-0.65625 0,-0.34375 -0.265625,-0.703125 -0.8125,-0.703125 -0.65625,0 -1.1875,0.453125 -2.046875,1.421875 -0.109375,0.140625 -0.5625,0.59375 -1,0.765625 L 3.359375,-8 z m 0,0"
             style="stroke:none" />
        </symbol>
        <symbol
           id="textext-f86c3b07-2"
           overflow="visible"
           style="overflow:visible">
          <path
             id="path4482"
             d=""
             style="stroke:none" />
        </symbol>
        <symbol
           id="textext-f86c3b07-3"
           overflow="visible"
           style="overflow:visible">
          <path
             id="path4485"
             d="m 8.0625,-3.875 c 0.171875,0 0.390625,0 0.390625,-0.21875 C 8.453125,-4.3125 8.25,-4.3125 8.0625,-4.3125 l -7.03125,0 c -0.171875,0 -0.390625,0 -0.390625,0.21875 0,0.21875 0.203125,0.21875 0.390625,0.21875 l 7.03125,0 z m 0,2.21875 c 0.171875,0 0.390625,0 0.390625,-0.203125 C 8.453125,-2.09375 8.25,-2.09375 8.0625,-2.09375 l -7.03125,0 c -0.171875,0 -0.390625,0 -0.390625,0.21875 0,0.21875 0.203125,0.21875 0.390625,0.21875 l 7.03125,0 z m 0,0"
             style="stroke:none" />
        </symbol>
        <symbol
           id="textext-f86c3b07-4"
           overflow="visible"
           style="overflow:visible">
          <path
             id="path4488"
             d="m 5.359375,-3.828125 c 0,-0.984375 -0.0625,-1.953125 -0.5,-2.859375 -0.484375,-1 -1.34375,-1.265625 -1.9375,-1.265625 -0.6875,0 -1.53125,0.34375 -1.984375,1.34375 -0.328125,0.75 -0.453125,1.5 -0.453125,2.78125 0,1.15625 0.09375,2.03125 0.515625,2.890625 0.46875,0.90625 1.296875,1.1875 1.921875,1.1875 1.03125,0 1.625,-0.625 1.984375,-1.3125 0.421875,-0.890625 0.453125,-2.0625 0.453125,-2.765625 z m -2.4375,3.84375 C 2.53125,0.015625 1.75,-0.203125 1.53125,-1.5 c -0.125,-0.71875 -0.125,-1.625 -0.125,-2.46875 0,-0.984375 0,-1.859375 0.1875,-2.5625 0.203125,-0.8125 0.8125,-1.171875 1.328125,-1.171875 0.453125,0 1.140625,0.265625 1.375,1.296875 0.15625,0.6875 0.15625,1.625 0.15625,2.4375 0,0.796875 0,1.703125 -0.140625,2.4375 -0.21875,1.3125 -0.984375,1.546875 -1.390625,1.546875 z m 0,0"
             style="stroke:none" />
        </symbol>
        <symbol
           id="textext-f86c3b07-5"
           overflow="visible"
           style="overflow:visible">
          <path
             id="path4491"
             d="m 3.4375,-7.65625 c 0,-0.28125 0,-0.296875 -0.234375,-0.296875 C 2.921875,-7.625 2.3125,-7.1875 1.09375,-7.1875 l 0,0.34375 c 0.265625,0 0.859375,0 1.53125,-0.296875 l 0,6.21875 c 0,0.4375 -0.046875,0.578125 -1.09375,0.578125 l -0.375,0 0,0.34375 c 0.328125,-0.03125 1.484375,-0.03125 1.875,-0.03125 0.40625,0 1.546875,0 1.875,0.03125 l 0,-0.34375 -0.375,0 c -1.046875,0 -1.09375,-0.140625 -1.09375,-0.578125 l 0,-6.734375 z m 0,0"
             style="stroke:none" />
        </symbol>
        <symbol
           id="textext-f86c3b07-6"
           overflow="visible"
           style="overflow:visible">
          <path
             id="path4494"
             d="m 5.265625,-2.015625 -0.265625,0 c -0.046875,0.203125 -0.140625,0.875 -0.25,1.0625 C 4.65625,-0.84375 3.984375,-0.84375 3.625,-0.84375 l -2.21875,0 c 0.328125,-0.28125 1.0625,-1.046875 1.359375,-1.328125 1.828125,-1.671875 2.5,-2.296875 2.5,-3.484375 0,-1.375 -1.09375,-2.296875 -2.484375,-2.296875 -1.375,0 -2.203125,1.1875 -2.203125,2.21875 0,0.609375 0.53125,0.609375 0.5625,0.609375 0.265625,0 0.5625,-0.1875 0.5625,-0.5625 0,-0.34375 -0.21875,-0.5625 -0.5625,-0.5625 -0.09375,0 -0.125,0 -0.15625,0.015625 0.21875,-0.8125 0.875,-1.375 1.640625,-1.375 1.015625,0 1.640625,0.859375 1.640625,1.953125 C 4.265625,-4.640625 3.6875,-3.75 3,-2.984375 l -2.421875,2.703125 0,0.28125 4.375,0 0.3125,-2.015625 z m 0,0"
             style="stroke:none" />
        </symbol>
        <symbol
           id="textext-f86c3b07-7"
           overflow="visible"
           style="overflow:visible">
          <path
             id="path4497"
             d="m 2.203125,-4.296875 c -0.203125,0.015625 -0.25,0.03125 -0.25,0.140625 0,0.109375 0.0625,0.109375 0.265625,0.109375 l 0.546875,0 c 1.03125,0 1.484375,0.84375 1.484375,1.984375 0,1.578125 -0.8125,1.984375 -1.40625,1.984375 -0.578125,0 -1.546875,-0.265625 -1.90625,-1.0625 0.390625,0.0625 0.734375,-0.15625 0.734375,-0.578125 0,-0.34375 -0.25,-0.59375 -0.578125,-0.59375 -0.296875,0 -0.609375,0.171875 -0.609375,0.625 0,1.0625 1.0625,1.9375 2.390625,1.9375 1.421875,0 2.484375,-1.09375 2.484375,-2.296875 C 5.359375,-3.140625 4.46875,-4 3.328125,-4.203125 4.359375,-4.5 5.03125,-5.375 5.03125,-6.3125 c 0,-0.9375 -0.984375,-1.640625 -2.140625,-1.640625 -1.1875,0 -2.078125,0.734375 -2.078125,1.609375 0,0.46875 0.375,0.578125 0.546875,0.578125 0.25,0 0.546875,-0.1875 0.546875,-0.546875 0,-0.375 -0.296875,-0.546875 -0.5625,-0.546875 -0.0625,0 -0.09375,0 -0.125,0.015625 0.453125,-0.8125 1.578125,-0.8125 1.640625,-0.8125 0.390625,0 1.171875,0.171875 1.171875,1.34375 0,0.234375 -0.03125,0.890625 -0.390625,1.40625 C 3.28125,-4.375 2.875,-4.34375 2.5625,-4.328125 l -0.359375,0.03125 z m 0,0"
             style="stroke:none" />
        </symbol>
        <symbol
           id="textext-f86c3b07-8"
           overflow="visible"
           style="overflow:visible">
          <path
             id="path4500"
             d="m 4.3125,-7.78125 c 0,-0.234375 0,-0.28125 -0.171875,-0.28125 -0.09375,0 -0.125,0 -0.21875,0.140625 l -3.59375,5.578125 0,0.34375 3.140625,0 0,1.09375 c 0,0.4375 -0.03125,0.5625 -0.90625,0.5625 l -0.234375,0 0,0.34375 c 0.28125,-0.03125 1.21875,-0.03125 1.5625,-0.03125 0.328125,0 1.28125,0 1.5625,0.03125 l 0,-0.34375 -0.234375,0 c -0.875,0 -0.90625,-0.125 -0.90625,-0.5625 l 0,-1.09375 1.203125,0 0,-0.34375 -1.203125,0 0,-5.4375 z m -0.78125,0.9375 0,4.5 -2.90625,0 2.90625,-4.5 z m 0,0"
             style="stroke:none" />
        </symbol>
        <symbol
           id="textext-f86c3b07-9"
           overflow="visible"
           style="overflow:visible">
          <path
             id="path4503"
             d="m 1.53125,-6.84375 c 0.515625,0.15625 0.9375,0.171875 1.0625,0.171875 1.34375,0 2.21875,-0.984375 2.21875,-1.15625 0,-0.046875 -0.03125,-0.109375 -0.109375,-0.109375 -0.015625,0 -0.046875,0 -0.15625,0.046875 C 3.890625,-7.609375 3.3125,-7.5625 3,-7.5625 c -0.78125,0 -1.34375,-0.25 -1.578125,-0.34375 C 1.34375,-7.9375 1.3125,-7.9375 1.296875,-7.9375 c -0.09375,0 -0.09375,0.078125 -0.09375,0.265625 l 0,3.546875 c 0,0.21875 0,0.28125 0.140625,0.28125 0.0625,0 0.078125,0 0.203125,-0.15625 C 1.875,-4.484375 2.4375,-4.765625 3.03125,-4.765625 c 0.640625,0 0.953125,0.578125 1.046875,0.78125 0.203125,0.46875 0.21875,1.0625 0.21875,1.515625 0,0.453125 0,1.125 -0.34375,1.671875 -0.265625,0.421875 -0.71875,0.71875 -1.25,0.71875 -0.796875,0 -1.5625,-0.53125 -1.78125,-1.40625 0.0625,0.03125 0.125,0.03125 0.1875,0.03125 0.203125,0 0.53125,-0.109375 0.53125,-0.515625 0,-0.34375 -0.234375,-0.53125 -0.53125,-0.53125 -0.21875,0 -0.53125,0.109375 -0.53125,0.578125 0,1.015625 0.828125,2.171875 2.140625,2.171875 1.359375,0 2.546875,-1.140625 2.546875,-2.65625 0,-1.421875 -0.96875,-2.609375 -2.21875,-2.609375 -0.6875,0 -1.203125,0.3125 -1.515625,0.640625 l 0,-2.46875 z m 0,0"
             style="stroke:none" />
        </symbol>
        <symbol
           id="textext-f86c3b07-10"
           overflow="visible"
           style="overflow:visible">
          <path
             id="path4506"
             d="m 1.46875,-4.15625 c 0,-3.03125 1.46875,-3.5 2.109375,-3.5 0.4375,0 0.875,0.125 1.09375,0.484375 -0.140625,0 -0.59375,0 -0.59375,0.484375 0,0.265625 0.171875,0.5 0.484375,0.5 0.296875,0 0.5,-0.1875 0.5,-0.53125 0,-0.625 -0.453125,-1.234375 -1.484375,-1.234375 -1.515625,0 -3.09375,1.546875 -3.09375,4.171875 0,3.296875 1.4375,4.03125 2.453125,4.03125 1.3125,0 2.421875,-1.140625 2.421875,-2.6875 0,-1.59375 -1.109375,-2.65625 -2.3125,-2.65625 -1.0625,0 -1.453125,0.921875 -1.578125,1.25 l 0,-0.3125 z m 1.46875,4.078125 c -0.75,0 -1.109375,-0.65625 -1.21875,-0.90625 C 1.609375,-1.296875 1.5,-1.890625 1.5,-2.71875 c 0,-0.953125 0.421875,-2.140625 1.5,-2.140625 0.65625,0 1,0.453125 1.1875,0.859375 0.1875,0.4375 0.1875,1.03125 0.1875,1.546875 0,0.609375 0,1.15625 -0.234375,1.609375 -0.296875,0.5625 -0.71875,0.765625 -1.203125,0.765625 z m 0,0"
             style="stroke:none" />
        </symbol>
      </g>
    </defs>
  </defs>
  <metadata
     id="metadata7">
    <rdf:RDF>
      <cc:Work
         rdf:about="">
        <dc:format>image/svg+xml</dc:format>
        <dc:type
           rdf:resource="http://purl.org/dc/dcmitype/StillImage" />
        <dc:title />
      </cc:Work>
    </rdf:RDF>
  </metadata>
  <g
     transform="translate(0,-62.361281)"
     id="layer1"
     inkscape:groupmode="layer"
     inkscape:label="Layer 1">
    <text
       x="162.93506"
       y="319.17773"
       id="text5136"
       xml:space="preserve"
       style="font-size:8px;font-style:normal;font-variant:normal;font-weight:normal;font-stretch:normal;fill:#000000;fill-opacity:1;stroke:none;font-family:Serif;-inkscape-font-specification:Serif"><tspan
         x="162.93506"
         y="319.17773"
         id="tspan5138"
         style="font-size:6px" /></text>
    <text
       x="162.93506"
       y="341.32339"
       id="text5140"
       xml:space="preserve"
       style="font-size:10px;font-style:normal;font-variant:normal;font-weight:normal;font-stretch:normal;fill:#000000;fill-opacity:1;stroke:none;font-family:Serif;-inkscape-font-specification:Serif"><tspan
         x="162.93506"
         y="341.32339"
         id="tspan5142"
         style="font-size:6px" /></text>
    <text
       x="166.60896"
       y="369.46436"
       id="text5144"
       xml:space="preserve"
       style="font-size:6px;font-style:normal;font-variant:normal;font-weight:normal;font-stretch:normal;fill:#000000;fill-opacity:1;stroke:none;font-family:Serif;-inkscape-font-specification:Serif"><tspan
         x="166.60896"
         y="369.46436"
         id="tspan5146" /></text>
    <g
       id="g3373"
       style="fill:#000000;fill-opacity:1"
       transform="translate(-315.32381,743.28629)">
      <use
         id="use3375"
         y="162.461"
         x="346.43964"
         xlink:href="#textext-21a9117b-7"
         width="765"
         height="990" />
      <use
         id="use3377"
         y="162.461"
         x="352.29288"
         xlink:href="#textext-21a9117b-5"
         width="765"
         height="990" />
    </g>
    <g
       id="g3383"
       style="fill:#000000;fill-opacity:1"
       transform="translate(-229.72177,743.28629)">
      <use
         id="use3385"
         y="162.461"
         x="417.25266"
         xlink:href="#textext-21a9117b-7"
         width="765"
         height="990" />
    </g>
    <g
       id="g3399"
       style="fill:#000000;fill-opacity:1"
       transform="translate(-315.27694,755.78909)">
      <use
         id="use3401"
         y="176.408"
         x="346.43964"
         xlink:href="#textext-21a9117b-8"
         width="765"
         height="990" />
      <use
         id="use3403"
         y="176.408"
         x="352.29288"
         xlink:href="#textext-21a9117b-5"
         width="765"
         height="990" />
    </g>
    <g
       id="g3405"
       style="fill:#000000;fill-opacity:1"
       transform="translate(-255.17612,729.33929)">
      <use
         id="use3407"
         y="176.408"
         x="385.05014"
         xlink:href="#textext-21a9117b-6"
         width="765"
         height="990" />
    </g>
    <g
       id="g3409"
       style="fill:#000000;fill-opacity:1"
       transform="translate(-160.42694,729.21429)">
      <use
         id="use3411"
         y="176.408"
         x="405.53656"
         xlink:href="#textext-21a9117b-8"
         width="765"
         height="990" />
    </g>
    <g
       id="g5337"
       transform="translate(0.69000915,0.33538526)">
      <use
         transform="translate(-316.01382,754.1247)"
         id="use3465"
         y="204.304"
         x="346.43964"
         xlink:href="#textext-21a9117b-11"
         width="765"
         height="990"
         style="fill:#000000;fill-opacity:1" />
      <use
         transform="translate(-316.01382,754.1247)"
         id="use3467"
         y="204.304"
         x="352.29288"
         xlink:href="#textext-21a9117b-5"
         width="765"
         height="990"
         style="fill:#000000;fill-opacity:1" />
    </g>
    <g
       id="g3475"
       ns0:preamble=""
       ns0:text="\\large\n$2^3\\cdot 3^2\\cdot 5$"
       transform="translate(-83.46708,745.12387)">
      <defs
         id="defs3477">
        <g
           id="g3479">
          <symbol
             id="textext-e2e58e0a-0"
             overflow="visible"
             style="overflow:visible">
            <path
               id="path3482"
               d=""
               style="stroke:none" />
          </symbol>
          <symbol
             id="textext-e2e58e0a-1"
             overflow="visible"
             style="overflow:visible">
            <path
               id="path3485"
               d="m 5.265625,-2.015625 -0.265625,0 c -0.046875,0.203125 -0.140625,0.875 -0.25,1.0625 C 4.65625,-0.84375 3.984375,-0.84375 3.625,-0.84375 l -2.21875,0 c 0.328125,-0.28125 1.0625,-1.046875 1.359375,-1.328125 1.828125,-1.671875 2.5,-2.296875 2.5,-3.484375 0,-1.375 -1.09375,-2.296875 -2.484375,-2.296875 -1.375,0 -2.203125,1.1875 -2.203125,2.21875 0,0.609375 0.53125,0.609375 0.5625,0.609375 0.265625,0 0.5625,-0.1875 0.5625,-0.5625 0,-0.34375 -0.21875,-0.5625 -0.5625,-0.5625 -0.09375,0 -0.125,0 -0.15625,0.015625 0.21875,-0.8125 0.875,-1.375 1.640625,-1.375 1.015625,0 1.640625,0.859375 1.640625,1.953125 C 4.265625,-4.640625 3.6875,-3.75 3,-2.984375 l -2.421875,2.703125 0,0.28125 4.375,0 0.3125,-2.015625 z m 0,0"
               style="stroke:none" />
          </symbol>
          <symbol
             id="textext-e2e58e0a-2"
             overflow="visible"
             style="overflow:visible">
            <path
               id="path3488"
               d="m 2.203125,-4.296875 c -0.203125,0.015625 -0.25,0.03125 -0.25,0.140625 0,0.109375 0.0625,0.109375 0.265625,0.109375 l 0.546875,0 c 1.03125,0 1.484375,0.84375 1.484375,1.984375 0,1.578125 -0.8125,1.984375 -1.40625,1.984375 -0.578125,0 -1.546875,-0.265625 -1.90625,-1.0625 0.390625,0.0625 0.734375,-0.15625 0.734375,-0.578125 0,-0.34375 -0.25,-0.59375 -0.578125,-0.59375 -0.296875,0 -0.609375,0.171875 -0.609375,0.625 0,1.0625 1.0625,1.9375 2.390625,1.9375 1.421875,0 2.484375,-1.09375 2.484375,-2.296875 C 5.359375,-3.140625 4.46875,-4 3.328125,-4.203125 4.359375,-4.5 5.03125,-5.375 5.03125,-6.3125 c 0,-0.9375 -0.984375,-1.640625 -2.140625,-1.640625 -1.1875,0 -2.078125,0.734375 -2.078125,1.609375 0,0.46875 0.375,0.578125 0.546875,0.578125 0.25,0 0.546875,-0.1875 0.546875,-0.546875 0,-0.375 -0.296875,-0.546875 -0.5625,-0.546875 -0.0625,0 -0.09375,0 -0.125,0.015625 0.453125,-0.8125 1.578125,-0.8125 1.640625,-0.8125 0.390625,0 1.171875,0.171875 1.171875,1.34375 0,0.234375 -0.03125,0.890625 -0.390625,1.40625 C 3.28125,-4.375 2.875,-4.34375 2.5625,-4.328125 l -0.359375,0.03125 z m 0,0"
               style="stroke:none" />
          </symbol>
          <symbol
             id="textext-e2e58e0a-3"
             overflow="visible"
             style="overflow:visible">
            <path
               id="path3491"
               d="m 1.53125,-6.84375 c 0.515625,0.15625 0.9375,0.171875 1.0625,0.171875 1.34375,0 2.21875,-0.984375 2.21875,-1.15625 0,-0.046875 -0.03125,-0.109375 -0.109375,-0.109375 -0.015625,0 -0.046875,0 -0.15625,0.046875 C 3.890625,-7.609375 3.3125,-7.5625 3,-7.5625 c -0.78125,0 -1.34375,-0.25 -1.578125,-0.34375 C 1.34375,-7.9375 1.3125,-7.9375 1.296875,-7.9375 c -0.09375,0 -0.09375,0.078125 -0.09375,0.265625 l 0,3.546875 c 0,0.21875 0,0.28125 0.140625,0.28125 0.0625,0 0.078125,0 0.203125,-0.15625 C 1.875,-4.484375 2.4375,-4.765625 3.03125,-4.765625 c 0.640625,0 0.953125,0.578125 1.046875,0.78125 0.203125,0.46875 0.21875,1.0625 0.21875,1.515625 0,0.453125 0,1.125 -0.34375,1.671875 -0.265625,0.421875 -0.71875,0.71875 -1.25,0.71875 -0.796875,0 -1.5625,-0.53125 -1.78125,-1.40625 0.0625,0.03125 0.125,0.03125 0.1875,0.03125 0.203125,0 0.53125,-0.109375 0.53125,-0.515625 0,-0.34375 -0.234375,-0.53125 -0.53125,-0.53125 -0.21875,0 -0.53125,0.109375 -0.53125,0.578125 0,1.015625 0.828125,2.171875 2.140625,2.171875 1.359375,0 2.546875,-1.140625 2.546875,-2.65625 0,-1.421875 -0.96875,-2.609375 -2.21875,-2.609375 -0.6875,0 -1.203125,0.3125 -1.515625,0.640625 l 0,-2.46875 z m 0,0"
               style="stroke:none" />
          </symbol>
          <symbol
             id="textext-e2e58e0a-4"
             overflow="visible"
             style="overflow:visible">
            <path
               id="path3494"
               d=""
               style="stroke:none" />
          </symbol>
          <symbol
             id="textext-e2e58e0a-5"
             overflow="visible"
             style="overflow:visible">
            <path
               id="path3497"
               d="m 2.015625,-2.65625 c 0.625,0 1.03125,0.453125 1.03125,1.296875 0,1 -0.5625,1.28125 -0.984375,1.28125 -0.4375,0 -1.046875,-0.15625 -1.328125,-0.578125 0.296875,0 0.5,-0.1875 0.5,-0.4375 0,-0.265625 -0.1875,-0.4375 -0.453125,-0.4375 -0.203125,0 -0.4375,0.125 -0.4375,0.453125 0,0.75 0.8125,1.25 1.734375,1.25 C 3.125,0.171875 3.875,-0.5625 3.875,-1.359375 3.875,-2.03125 3.34375,-2.625 2.53125,-2.8125 c 0.625,-0.21875 1.109375,-0.75 1.109375,-1.390625 0,-0.640625 -0.71875,-1.09375 -1.546875,-1.09375 -0.859375,0 -1.5,0.453125 -1.5,1.0625 0,0.296875 0.1875,0.421875 0.40625,0.421875 0.25,0 0.40625,-0.171875 0.40625,-0.40625 0,-0.296875 -0.265625,-0.40625 -0.4375,-0.40625 0.34375,-0.4375 0.953125,-0.46875 1.09375,-0.46875 0.203125,0 0.8125,0.0625 0.8125,0.890625 0,0.546875 -0.234375,0.890625 -0.34375,1.015625 -0.234375,0.25 -0.421875,0.265625 -0.90625,0.296875 -0.15625,0 -0.21875,0.015625 -0.21875,0.125 0,0.109375 0.078125,0.109375 0.21875,0.109375 l 0.390625,0 z m 0,0"
               style="stroke:none" />
          </symbol>
          <symbol
             id="textext-e2e58e0a-6"
             overflow="visible"
             style="overflow:visible">
            <path
               id="path3500"
               d="m 2.25,-1.625 c 0.125,-0.125 0.453125,-0.390625 0.59375,-0.5 0.484375,-0.453125 0.953125,-0.890625 0.953125,-1.609375 0,-0.953125 -0.796875,-1.5625 -1.78125,-1.5625 -0.96875,0 -1.59375,0.71875 -1.59375,1.4375 0,0.390625 0.3125,0.4375 0.421875,0.4375 0.171875,0 0.421875,-0.109375 0.421875,-0.421875 0,-0.40625 -0.40625,-0.40625 -0.5,-0.40625 C 1,-4.84375 1.53125,-5.03125 1.921875,-5.03125 c 0.734375,0 1.125,0.625 1.125,1.296875 0,0.828125 -0.578125,1.4375 -1.53125,2.390625 l -1,1.046875 C 0.421875,-0.21875 0.421875,-0.203125 0.421875,0 l 3.140625,0 0.234375,-1.421875 -0.25,0 C 3.53125,-1.265625 3.46875,-0.875 3.375,-0.71875 c -0.046875,0.0625 -0.65625,0.0625 -0.78125,0.0625 l -1.421875,0 L 2.25,-1.625 z m 0,0"
               style="stroke:none" />
          </symbol>
          <symbol
             id="textext-e2e58e0a-7"
             overflow="visible"
             style="overflow:visible">
            <path
               id="path3503"
               d=""
               style="stroke:none" />
          </symbol>
          <symbol
             id="textext-e2e58e0a-8"
             overflow="visible"
             style="overflow:visible">
            <path
               id="path3506"
               d="m 2.296875,-2.984375 c 0,-0.34375 -0.28125,-0.640625 -0.640625,-0.640625 -0.34375,0 -0.625,0.296875 -0.625,0.640625 0,0.34375 0.28125,0.625 0.625,0.625 0.359375,0 0.640625,-0.28125 0.640625,-0.625 z m 0,0"
               style="stroke:none" />
          </symbol>
        </g>
      </defs>
      <g
         id="textext-e2e58e0a-9">
        <g
           id="g3509"
           style="fill:#000000;fill-opacity:1">
          <use
             id="use3511"
             y="134.765"
             x="223.43201"
             xlink:href="#textext-e2e58e0a-1"
             width="765"
             height="990" />
        </g>
        <g
           id="g3513"
           style="fill:#000000;fill-opacity:1">
          <use
             id="use3515"
             y="130.42599"
             x="229.285"
             xlink:href="#textext-e2e58e0a-5"
             width="765"
             height="990" />
        </g>
        <g
           id="g3517"
           style="fill:#000000;fill-opacity:1">
          <use
             id="use3519"
             y="134.765"
             x="236.674"
             xlink:href="#textext-e2e58e0a-8"
             width="765"
             height="990" />
        </g>
        <g
           id="g3521"
           style="fill:#000000;fill-opacity:1">
          <use
             id="use3524"
             y="134.765"
             x="242.65199"
             xlink:href="#textext-e2e58e0a-2"
             width="765"
             height="990" />
        </g>
        <g
           id="g3526"
           style="fill:#000000;fill-opacity:1">
          <use
             id="use3528"
             y="130.42599"
             x="248.505"
             xlink:href="#textext-e2e58e0a-6"
             width="765"
             height="990" />
        </g>
        <g
           id="g3530"
           style="fill:#000000;fill-opacity:1">
          <use
             id="use3532"
             y="134.765"
             x="255.894"
             xlink:href="#textext-e2e58e0a-8"
             width="765"
             height="990" />
        </g>
        <g
           id="g3534"
           style="fill:#000000;fill-opacity:1">
          <use
             id="use3536"
             y="134.765"
             x="261.871"
             xlink:href="#textext-e2e58e0a-3"
             width="765"
             height="990" />
        </g>
      </g>
    </g>
    <path
       style="fill:none;stroke:#000000;stroke-width:0.35433071;stroke-linecap:butt;stroke-linejoin:miter;stroke-opacity:1;stroke-miterlimit:4;stroke-dasharray:none"
       d="M 162.1063,821.69291 75.295276,833.20866"
       id="path3895"
       transform="translate(0,62.361281)"
       sodipodi:nodetypes="cc" />
    <path
       style="fill:none;stroke:#000000;stroke-width:0.35433072;stroke-linecap:butt;stroke-linejoin:miter;stroke-miterlimit:4;stroke-opacity:1;stroke-dasharray:none"
       d="m 162.1063,884.05419 -29.23228,11.51575"
       id="path4681"
       sodipodi:nodetypes="cc" />
    <path
       style="fill:none;stroke:#000000;stroke-width:0.35433072;stroke-miterlimit:4;stroke-opacity:1;stroke-dasharray:none;stroke-dashoffset:0"
       d="m 190.45276,895.56994 -28.34646,-11.51575 85.9252,11.51575"
       id="path4685"
       sodipodi:nodetypes="ccc" />
    <g
       id="g4744">
      <use
         transform="translate(-274.06624,771.05729)"
         id="use3335"
         y="134.565"
         x="346.43964"
         xlink:href="#textext-21a9117b-4"
         width="765"
         height="990"
         style="fill:#000000;fill-opacity:1" />
    </g>
    <g
       id="g5064">
      <path
         sodipodi:nodetypes="cc"
         style="fill:none;stroke:#000000;stroke-width:0.35433072;stroke-miterlimit:4;stroke-opacity:1;stroke-dasharray:none;stroke-dashoffset:0"
         d="m 132.87402,907.97152 -17.71654,15.05905"
         id="path4777" />
      <path
         sodipodi:nodetypes="cc"
         style="fill:none;stroke:#000000;stroke-width:0.35433072;stroke-miterlimit:4;stroke-opacity:1;stroke-dasharray:none;stroke-dashoffset:0"
         d="m 132.87402,907.97152 0,15.05905"
         id="path4779" />
      <path
         style="fill:none;stroke:#000000;stroke-width:0.35433072;stroke-miterlimit:4;stroke-opacity:1;stroke-dasharray:none;stroke-dashoffset:0"
         d="m 132.87402,907.97152 17.71653,15.05905"
         id="path4781"
         sodipodi:nodetypes="cc" />
      <use
         transform="translate(-234.20403,797.63209)"
         id="use4783"
         y="134.565"
         x="346.43964"
         xlink:href="#textext-21a9117b-4"
         width="765"
         height="990"
         style="fill:#000000;fill-opacity:1" />
      <g
         transform="translate(-255.17612,755.91409)"
         style="fill:#000000;fill-opacity:1"
         id="g4785">
        <use
           height="990"
           width="765"
           xlink:href="#textext-21a9117b-6"
           x="385.05014"
           y="176.408"
           id="use4787" />
      </g>
      <g
         transform="translate(-269.58398,769.8611)"
         style="fill:#000000;fill-opacity:1"
         id="g4789">
        <use
           height="990"
           width="765"
           xlink:href="#textext-21a9117b-7"
           x="417.25266"
           y="162.461"
           id="use4791" />
      </g>
      <g
         transform="translate(3.754383e-7,-0.19054323)"
         id="g5028">
        <path
           style="fill:none;stroke:#000000;stroke-width:0.35433072;stroke-miterlimit:4;stroke-opacity:1;stroke-dasharray:none;stroke-dashoffset:0"
           d="m 150.59055,933.66049 -4.42913,15.94489"
           id="path4797"
           sodipodi:nodetypes="cc" />
        <path
           style="fill:none;stroke:#000000;stroke-width:0.35433072;stroke-miterlimit:4;stroke-opacity:1;stroke-dasharray:none;stroke-dashoffset:0"
           d="m 150.59055,933.66049 4.42914,15.94489"
           id="path4799"
           sodipodi:nodetypes="cc" />
        <g
           id="g4821"
           transform="translate(93.277435,-3.8232961e-6)">
          <use
             style="fill:#000000;fill-opacity:1"
             height="990"
             width="765"
             xlink:href="#textext-21a9117b-4"
             x="346.43964"
             y="134.565"
             id="use4823"
             transform="translate(-296.2119,824.2069)" />
          <g
             id="g4825"
             style="fill:#000000;fill-opacity:1"
             transform="translate(-326.04227,782.48889)">
            <use
               id="use4827"
               y="176.408"
               x="385.05014"
               xlink:href="#textext-21a9117b-6"
               width="765"
               height="990" />
          </g>
        </g>
      </g>
      <g
         transform="translate(-17.716535,-0.19054323)"
         id="g5036">
        <path
           sodipodi:nodetypes="cc"
           id="path5038"
           d="m 150.59055,933.66049 -4.42913,15.94489"
           style="fill:none;stroke:#000000;stroke-width:0.35433072;stroke-miterlimit:4;stroke-opacity:1;stroke-dasharray:none;stroke-dashoffset:0" />
        <path
           sodipodi:nodetypes="cc"
           id="path5040"
           d="m 150.59055,933.66049 4.42914,15.94489"
           style="fill:none;stroke:#000000;stroke-width:0.35433072;stroke-miterlimit:4;stroke-opacity:1;stroke-dasharray:none;stroke-dashoffset:0" />
        <g
           transform="translate(93.277435,-3.8232961e-6)"
           id="g5042">
          <use
             transform="translate(-296.2119,824.2069)"
             id="use5044"
             y="134.565"
             x="346.43964"
             xlink:href="#textext-21a9117b-4"
             width="765"
             height="990"
             style="fill:#000000;fill-opacity:1" />
          <g
             transform="translate(-326.04227,782.48889)"
             style="fill:#000000;fill-opacity:1"
             id="g5046">
            <use
               height="990"
               width="765"
               xlink:href="#textext-21a9117b-6"
               x="385.05014"
               y="176.408"
               id="use5048" />
          </g>
        </g>
      </g>
      <g
         id="g5050"
         transform="translate(-35.43307,-0.19054323)">
        <path
           style="fill:none;stroke:#000000;stroke-width:0.35433072;stroke-miterlimit:4;stroke-opacity:1;stroke-dasharray:none;stroke-dashoffset:0"
           d="m 150.59055,933.66049 -4.42913,15.94489"
           id="path5052"
           sodipodi:nodetypes="cc" />
        <path
           style="fill:none;stroke:#000000;stroke-width:0.35433072;stroke-miterlimit:4;stroke-opacity:1;stroke-dasharray:none;stroke-dashoffset:0"
           d="m 150.59055,933.66049 4.42914,15.94489"
           id="path5054"
           sodipodi:nodetypes="cc" />
        <g
           id="g5056"
           transform="translate(93.277435,-3.8232961e-6)">
          <use
             style="fill:#000000;fill-opacity:1"
             height="990"
             width="765"
             xlink:href="#textext-21a9117b-4"
             x="346.43964"
             y="134.565"
             id="use5058"
             transform="translate(-296.2119,824.2069)" />
          <g
             id="g5060"
             style="fill:#000000;fill-opacity:1"
             transform="translate(-326.04227,782.48889)">
            <use
               id="use5062"
               y="176.408"
               x="385.05014"
               xlink:href="#textext-21a9117b-6"
               width="765"
               height="990" />
          </g>
        </g>
      </g>
    </g>
    <g
       id="g5155"
       transform="translate(-57.589876,0)">
      <path
         id="path5157"
         d="m 132.87402,907.97152 -17.71654,15.05905"
         style="fill:none;stroke:#000000;stroke-width:0.35433072;stroke-miterlimit:4;stroke-opacity:1;stroke-dasharray:none;stroke-dashoffset:0"
         sodipodi:nodetypes="cc" />
      <path
         id="path5159"
         d="m 132.87402,907.97152 0,15.05905"
         style="fill:none;stroke:#000000;stroke-width:0.35433072;stroke-miterlimit:4;stroke-opacity:1;stroke-dasharray:none;stroke-dashoffset:0"
         sodipodi:nodetypes="cc" />
      <path
         sodipodi:nodetypes="cc"
         id="path5161"
         d="m 132.87402,907.97152 17.71653,15.05905"
         style="fill:none;stroke:#000000;stroke-width:0.35433072;stroke-miterlimit:4;stroke-opacity:1;stroke-dasharray:none;stroke-dashoffset:0" />
      <use
         style="fill:#000000;fill-opacity:1"
         height="990"
         width="765"
         xlink:href="#textext-21a9117b-4"
         x="346.43964"
         y="134.565"
         id="use5163"
         transform="translate(-234.20403,797.63209)" />
      <g
         id="g5165"
         style="fill:#000000;fill-opacity:1"
         transform="translate(-255.17612,755.91409)">
        <use
           id="use5167"
           y="176.408"
           x="385.05014"
           xlink:href="#textext-21a9117b-6"
           width="765"
           height="990" />
      </g>
      <g
         id="g5169"
         style="fill:#000000;fill-opacity:1"
         transform="translate(-269.58398,769.8611)">
        <use
           id="use5171"
           y="162.461"
           x="417.25266"
           xlink:href="#textext-21a9117b-7"
           width="765"
           height="990" />
      </g>
      <g
         id="g5173"
         transform="translate(3.754383e-7,-0.19054323)">
        <path
           sodipodi:nodetypes="cc"
           id="path5175"
           d="m 150.59055,933.66049 -4.42913,15.94489"
           style="fill:none;stroke:#000000;stroke-width:0.35433072;stroke-miterlimit:4;stroke-opacity:1;stroke-dasharray:none;stroke-dashoffset:0" />
        <path
           sodipodi:nodetypes="cc"
           id="path5177"
           d="m 150.59055,933.66049 4.42914,15.94489"
           style="fill:none;stroke:#000000;stroke-width:0.35433072;stroke-miterlimit:4;stroke-opacity:1;stroke-dasharray:none;stroke-dashoffset:0" />
        <g
           transform="translate(93.277435,-3.8232961e-6)"
           id="g5179">
          <use
             transform="translate(-296.2119,824.2069)"
             id="use5181"
             y="134.565"
             x="346.43964"
             xlink:href="#textext-21a9117b-4"
             width="765"
             height="990"
             style="fill:#000000;fill-opacity:1" />
          <g
             transform="translate(-326.04227,782.48889)"
             style="fill:#000000;fill-opacity:1"
             id="g5183">
            <use
               height="990"
               width="765"
               xlink:href="#textext-21a9117b-6"
               x="385.05014"
               y="176.408"
               id="use5185" />
          </g>
        </g>
      </g>
      <g
         id="g5187"
         transform="translate(-17.716535,-0.19054323)">
        <path
           style="fill:none;stroke:#000000;stroke-width:0.35433072;stroke-miterlimit:4;stroke-opacity:1;stroke-dasharray:none;stroke-dashoffset:0"
           d="m 150.59055,933.66049 -4.42913,15.94489"
           id="path5189"
           sodipodi:nodetypes="cc" />
        <path
           style="fill:none;stroke:#000000;stroke-width:0.35433072;stroke-miterlimit:4;stroke-opacity:1;stroke-dasharray:none;stroke-dashoffset:0"
           d="m 150.59055,933.66049 4.42914,15.94489"
           id="path5191"
           sodipodi:nodetypes="cc" />
        <g
           id="g5193"
           transform="translate(93.277435,-3.8232961e-6)">
          <use
             style="fill:#000000;fill-opacity:1"
             height="990"
             width="765"
             xlink:href="#textext-21a9117b-4"
             x="346.43964"
             y="134.565"
             id="use5195"
             transform="translate(-296.2119,824.2069)" />
          <g
             id="g5197"
             style="fill:#000000;fill-opacity:1"
             transform="translate(-326.04227,782.48889)">
            <use
               id="use5199"
               y="176.408"
               x="385.05014"
               xlink:href="#textext-21a9117b-6"
               width="765"
               height="990" />
          </g>
        </g>
      </g>
      <g
         transform="translate(-35.43307,-0.19054323)"
         id="g5201">
        <path
           sodipodi:nodetypes="cc"
           id="path5203"
           d="m 150.59055,933.66049 -4.42913,15.94489"
           style="fill:none;stroke:#000000;stroke-width:0.35433072;stroke-miterlimit:4;stroke-opacity:1;stroke-dasharray:none;stroke-dashoffset:0" />
        <path
           sodipodi:nodetypes="cc"
           id="path5205"
           d="m 150.59055,933.66049 4.42914,15.94489"
           style="fill:none;stroke:#000000;stroke-width:0.35433072;stroke-miterlimit:4;stroke-opacity:1;stroke-dasharray:none;stroke-dashoffset:0" />
        <g
           transform="translate(93.277435,-3.8232961e-6)"
           id="g5207">
          <use
             transform="translate(-296.2119,824.2069)"
             id="use5209"
             y="134.565"
             x="346.43964"
             xlink:href="#textext-21a9117b-4"
             width="765"
             height="990"
             style="fill:#000000;fill-opacity:1" />
          <g
             transform="translate(-326.04227,782.48889)"
             style="fill:#000000;fill-opacity:1"
             id="g5211">
            <use
               height="990"
               width="765"
               xlink:href="#textext-21a9117b-6"
               x="385.05014"
               y="176.408"
               id="use5213" />
          </g>
        </g>
      </g>
    </g>
    <g
       id="g5215"
       transform="translate(57.689431,0)">
      <path
         id="path5217"
         d="m 132.87402,907.97152 -17.71654,15.05905"
         style="fill:none;stroke:#000000;stroke-width:0.35433072;stroke-miterlimit:4;stroke-opacity:1;stroke-dasharray:none;stroke-dashoffset:0"
         sodipodi:nodetypes="cc" />
      <path
         id="path5219"
         d="m 132.87402,907.97152 0,15.05905"
         style="fill:none;stroke:#000000;stroke-width:0.35433072;stroke-miterlimit:4;stroke-opacity:1;stroke-dasharray:none;stroke-dashoffset:0"
         sodipodi:nodetypes="cc" />
      <path
         sodipodi:nodetypes="cc"
         id="path5221"
         d="m 132.87402,907.97152 17.71653,15.05905"
         style="fill:none;stroke:#000000;stroke-width:0.35433072;stroke-miterlimit:4;stroke-opacity:1;stroke-dasharray:none;stroke-dashoffset:0" />
      <use
         style="fill:#000000;fill-opacity:1"
         height="990"
         width="765"
         xlink:href="#textext-21a9117b-4"
         x="346.43964"
         y="134.565"
         id="use5223"
         transform="translate(-234.20403,797.63209)" />
      <g
         id="g5225"
         style="fill:#000000;fill-opacity:1"
         transform="translate(-255.17612,755.91409)">
        <use
           id="use5227"
           y="176.408"
           x="385.05014"
           xlink:href="#textext-21a9117b-6"
           width="765"
           height="990" />
      </g>
      <g
         id="g5229"
         style="fill:#000000;fill-opacity:1"
         transform="translate(-269.58398,769.8611)">
        <use
           id="use5231"
           y="162.461"
           x="417.25266"
           xlink:href="#textext-21a9117b-7"
           width="765"
           height="990" />
      </g>
      <g
         id="g5233"
         transform="translate(3.754383e-7,-0.19054323)">
        <path
           sodipodi:nodetypes="cc"
           id="path5235"
           d="m 150.59055,933.66049 -4.42913,15.94489"
           style="fill:none;stroke:#000000;stroke-width:0.35433072;stroke-miterlimit:4;stroke-opacity:1;stroke-dasharray:none;stroke-dashoffset:0" />
        <path
           sodipodi:nodetypes="cc"
           id="path5237"
           d="m 150.59055,933.66049 4.42914,15.94489"
           style="fill:none;stroke:#000000;stroke-width:0.35433072;stroke-miterlimit:4;stroke-opacity:1;stroke-dasharray:none;stroke-dashoffset:0" />
        <g
           transform="translate(93.277435,-3.8232961e-6)"
           id="g5239">
          <use
             transform="translate(-296.2119,824.2069)"
             id="use5241"
             y="134.565"
             x="346.43964"
             xlink:href="#textext-21a9117b-4"
             width="765"
             height="990"
             style="fill:#000000;fill-opacity:1" />
          <g
             transform="translate(-326.04227,782.48889)"
             style="fill:#000000;fill-opacity:1"
             id="g5243">
            <use
               height="990"
               width="765"
               xlink:href="#textext-21a9117b-6"
               x="385.05014"
               y="176.408"
               id="use5245" />
          </g>
        </g>
      </g>
      <g
         id="g5247"
         transform="translate(-17.716535,-0.19054323)">
        <path
           style="fill:none;stroke:#000000;stroke-width:0.35433072;stroke-miterlimit:4;stroke-opacity:1;stroke-dasharray:none;stroke-dashoffset:0"
           d="m 150.59055,933.66049 -4.42913,15.94489"
           id="path5249"
           sodipodi:nodetypes="cc" />
        <path
           style="fill:none;stroke:#000000;stroke-width:0.35433072;stroke-miterlimit:4;stroke-opacity:1;stroke-dasharray:none;stroke-dashoffset:0"
           d="m 150.59055,933.66049 4.42914,15.94489"
           id="path5251"
           sodipodi:nodetypes="cc" />
        <g
           id="g5253"
           transform="translate(93.277435,-3.8232961e-6)">
          <use
             style="fill:#000000;fill-opacity:1"
             height="990"
             width="765"
             xlink:href="#textext-21a9117b-4"
             x="346.43964"
             y="134.565"
             id="use5255"
             transform="translate(-296.2119,824.2069)" />
          <g
             id="g5257"
             style="fill:#000000;fill-opacity:1"
             transform="translate(-326.04227,782.48889)">
            <use
               id="use5259"
               y="176.408"
               x="385.05014"
               xlink:href="#textext-21a9117b-6"
               width="765"
               height="990" />
          </g>
        </g>
      </g>
      <g
         transform="translate(-35.43307,-0.19054323)"
         id="g5261">
        <path
           sodipodi:nodetypes="cc"
           id="path5263"
           d="m 150.59055,933.66049 -4.42913,15.94489"
           style="fill:none;stroke:#000000;stroke-width:0.35433072;stroke-miterlimit:4;stroke-opacity:1;stroke-dasharray:none;stroke-dashoffset:0" />
        <path
           sodipodi:nodetypes="cc"
           id="path5265"
           d="m 150.59055,933.66049 4.42914,15.94489"
           style="fill:none;stroke:#000000;stroke-width:0.35433072;stroke-miterlimit:4;stroke-opacity:1;stroke-dasharray:none;stroke-dashoffset:0" />
        <g
           transform="translate(93.277435,-3.8232961e-6)"
           id="g5267">
          <use
             transform="translate(-296.2119,824.2069)"
             id="use5269"
             y="134.565"
             x="346.43964"
             xlink:href="#textext-21a9117b-4"
             width="765"
             height="990"
             style="fill:#000000;fill-opacity:1" />
          <g
             transform="translate(-326.04227,782.48889)"
             style="fill:#000000;fill-opacity:1"
             id="g5271">
            <use
               height="990"
               width="765"
               xlink:href="#textext-21a9117b-6"
               x="385.05014"
               y="176.408"
               id="use5273" />
          </g>
        </g>
      </g>
    </g>
    <g
       transform="translate(115.27535,0)"
       id="g5275">
      <path
         sodipodi:nodetypes="cc"
         style="fill:none;stroke:#000000;stroke-width:0.35433072;stroke-miterlimit:4;stroke-opacity:1;stroke-dasharray:none;stroke-dashoffset:0"
         d="m 132.87402,907.97152 -17.71654,15.05905"
         id="path5277" />
      <path
         sodipodi:nodetypes="cc"
         style="fill:none;stroke:#000000;stroke-width:0.35433072;stroke-miterlimit:4;stroke-opacity:1;stroke-dasharray:none;stroke-dashoffset:0"
         d="m 132.87402,907.97152 0,15.05905"
         id="path5279" />
      <path
         style="fill:none;stroke:#000000;stroke-width:0.35433072;stroke-miterlimit:4;stroke-opacity:1;stroke-dasharray:none;stroke-dashoffset:0"
         d="m 132.87402,907.97152 17.71653,15.05905"
         id="path5281"
         sodipodi:nodetypes="cc" />
      <use
         transform="translate(-234.20403,797.63209)"
         id="use5283"
         y="134.565"
         x="346.43964"
         xlink:href="#textext-21a9117b-4"
         width="765"
         height="990"
         style="fill:#000000;fill-opacity:1" />
      <g
         transform="translate(-255.17612,755.91409)"
         style="fill:#000000;fill-opacity:1"
         id="g5285">
        <use
           height="990"
           width="765"
           xlink:href="#textext-21a9117b-6"
           x="385.05014"
           y="176.408"
           id="use5287" />
      </g>
      <g
         transform="translate(-269.58398,769.8611)"
         style="fill:#000000;fill-opacity:1"
         id="g5289">
        <use
           height="990"
           width="765"
           xlink:href="#textext-21a9117b-7"
           x="417.25266"
           y="162.461"
           id="use5291" />
      </g>
      <g
         transform="translate(3.754383e-7,-0.19054323)"
         id="g5293">
        <path
           style="fill:none;stroke:#000000;stroke-width:0.35433072;stroke-miterlimit:4;stroke-opacity:1;stroke-dasharray:none;stroke-dashoffset:0"
           d="m 150.59055,933.66049 -4.42913,15.94489"
           id="path5295"
           sodipodi:nodetypes="cc" />
        <path
           style="fill:none;stroke:#000000;stroke-width:0.35433072;stroke-miterlimit:4;stroke-opacity:1;stroke-dasharray:none;stroke-dashoffset:0"
           d="m 150.59055,933.66049 4.42914,15.94489"
           id="path5297"
           sodipodi:nodetypes="cc" />
        <g
           id="g5299"
           transform="translate(93.277435,-3.8232961e-6)">
          <use
             style="fill:#000000;fill-opacity:1"
             height="990"
             width="765"
             xlink:href="#textext-21a9117b-4"
             x="346.43964"
             y="134.565"
             id="use5301"
             transform="translate(-296.2119,824.2069)" />
          <g
             id="g5303"
             style="fill:#000000;fill-opacity:1"
             transform="translate(-326.04227,782.48889)">
            <use
               id="use5305"
               y="176.408"
               x="385.05014"
               xlink:href="#textext-21a9117b-6"
               width="765"
               height="990" />
          </g>
        </g>
      </g>
      <g
         transform="translate(-17.716535,-0.19054323)"
         id="g5307">
        <path
           sodipodi:nodetypes="cc"
           id="path5309"
           d="m 150.59055,933.66049 -4.42913,15.94489"
           style="fill:none;stroke:#000000;stroke-width:0.35433072;stroke-miterlimit:4;stroke-opacity:1;stroke-dasharray:none;stroke-dashoffset:0" />
        <path
           sodipodi:nodetypes="cc"
           id="path5311"
           d="m 150.59055,933.66049 4.42914,15.94489"
           style="fill:none;stroke:#000000;stroke-width:0.35433072;stroke-miterlimit:4;stroke-opacity:1;stroke-dasharray:none;stroke-dashoffset:0" />
        <g
           transform="translate(93.277435,-3.8232961e-6)"
           id="g5313">
          <use
             transform="translate(-296.2119,824.2069)"
             id="use5315"
             y="134.565"
             x="346.43964"
             xlink:href="#textext-21a9117b-4"
             width="765"
             height="990"
             style="fill:#000000;fill-opacity:1" />
          <g
             transform="translate(-326.04227,782.48889)"
             style="fill:#000000;fill-opacity:1"
             id="g5317">
            <use
               height="990"
               width="765"
               xlink:href="#textext-21a9117b-6"
               x="385.05014"
               y="176.408"
               id="use5319" />
          </g>
        </g>
      </g>
      <g
         id="g5321"
         transform="translate(-35.43307,-0.19054323)">
        <path
           style="fill:none;stroke:#000000;stroke-width:0.35433072;stroke-miterlimit:4;stroke-opacity:1;stroke-dasharray:none;stroke-dashoffset:0"
           d="m 150.59055,933.66049 -4.42913,15.94489"
           id="path5323"
           sodipodi:nodetypes="cc" />
        <path
           style="fill:none;stroke:#000000;stroke-width:0.35433072;stroke-miterlimit:4;stroke-opacity:1;stroke-dasharray:none;stroke-dashoffset:0"
           d="m 150.59055,933.66049 4.42914,15.94489"
           id="path5325"
           sodipodi:nodetypes="cc" />
        <g
           id="g5327"
           transform="translate(93.277435,-3.8232961e-6)">
          <use
             style="fill:#000000;fill-opacity:1"
             height="990"
             width="765"
             xlink:href="#textext-21a9117b-4"
             x="346.43964"
             y="134.565"
             id="use5329"
             transform="translate(-296.2119,824.2069)" />
          <g
             id="g5331"
             style="fill:#000000;fill-opacity:1"
             transform="translate(-326.04227,782.48889)">
            <use
               id="use5333"
               y="176.408"
               x="385.05014"
               xlink:href="#textext-21a9117b-6"
               width="765"
               height="990" />
          </g>
        </g>
      </g>
    </g>
  </g>
</svg>
